<svg width="710" height="623" viewBox="0 0 710 623" fill="none" xmlns="http://www.w3.org/2000/svg">
<path d="M312.486 346.961C312.713 346.764 315.671 343.995 315.961 343.643C316.665 342.783 316.695 342.35 316.183 341.245C316.021 340.888 315.638 340.218 315.194 339.65C315.071 339.509 315.107 339.379 315.22 339.28L315.958 338.689C316.099 338.566 316.254 338.63 316.324 338.767C316.662 339.328 318.694 341.666 319.068 342.096C319.938 343.098 321.242 344.369 321.815 344.914C321.938 345.056 321.931 345.162 321.842 345.288L321.288 345.919C321.171 346.071 321.04 346.035 320.84 345.861C320.459 345.537 319.718 345.028 319.363 344.79C318.671 344.338 317.981 344.183 317.165 344.743C315.701 345.767 313.731 347.479 313.273 347.877L314.812 349.649C316.15 351.189 318.612 353.907 319.109 354.479C320.426 355.937 321.636 355.889 322.672 355.287C323.342 354.903 324.243 354.27 324.956 353.65C325.443 353.227 326.844 351.959 327.395 351.381C327.833 350.902 328.814 349.493 329.009 348.22C329.109 347.637 328.914 344.189 328.751 343.189C328.713 342.974 328.699 342.787 328.948 342.719L329.628 342.576C329.844 342.537 329.917 342.622 330.034 342.928L332.168 348.436C332.304 348.764 332.259 349.112 331.913 349.412C331.772 349.535 331.119 350.053 329.379 351.515C327.664 353.005 324.872 355.382 320.423 359.249C319.364 360.169 318.591 360.891 318.019 361.387C317.444 361.937 317.095 362.29 316.84 362.511C316.67 362.659 316.536 362.676 316.413 362.535L315.744 361.765C315.646 361.652 315.706 361.55 315.91 361.372L317.053 360.379C318.366 359.238 318.307 358.941 317.387 357.883L309.079 348.322C307.018 345.951 303.863 342.434 303.588 342.175C302.683 341.362 302.217 341.41 301.165 342.324L300.134 343.22C299.993 343.343 299.883 343.388 299.736 343.218L299.067 342.449C298.993 342.364 299.001 342.258 299.142 342.135C299.77 341.589 300.84 340.808 302.725 339.17L303.982 338.078C306.806 335.623 309.612 333.136 312.436 330.681C312.895 330.283 313.383 329.759 313.531 329.631C313.678 329.503 313.778 329.515 313.88 329.576L319.329 332.908C319.456 332.996 319.529 333.081 319.465 333.236L319.232 333.836C319.196 333.967 319.009 333.98 318.932 333.948C318.777 333.884 314.309 333.008 313.251 333.173C312.301 333.292 311.208 333.646 310.414 334.287L305.232 338.591L312.503 346.957L312.486 346.961Z" fill="black"/>
<path d="M10.8628 594.605L10.1496 595.225C9.2383 596.017 6.75343 598.176 5.9384 599.49C5.00276 601.009 5.88438 603.75 6.27446 605.01C6.34083 605.201 6.28052 605.303 6.11442 605.398L5.4764 605.704C5.3669 605.749 5.25736 605.795 5.16639 605.576C4.55415 604.3 2.35869 599.75 2.13982 599.384C1.87177 598.961 1.9112 598.778 2.0244 598.679C2.16591 598.556 2.2754 598.511 2.46806 598.492L3.06301 598.422C3.90276 598.348 4.25956 598.187 5.11056 597.497C6.67106 596.241 7.96945 595.311 10.6524 592.979L12.0223 591.789C15.1355 589.084 16.2654 587.903 17.6143 586.631C18.218 586.057 18.5121 585.652 18.7481 584.941L18.9914 584.123C19.0591 583.915 19.1194 583.813 19.2383 583.71C19.3798 583.587 19.5101 583.623 19.8914 583.947C20.248 584.243 23.8659 587.309 25.1843 588.369C25.3356 588.485 25.3281 588.591 25.2112 588.743L24.8511 589.254C24.7625 589.381 24.7096 589.377 24.4525 589.253C23.7539 588.906 20.9849 587.458 19.6469 587.816C18.4183 588.128 15.6861 590.403 14.288 591.618L13.4899 592.312L20.5585 600.446C20.9078 600.848 27.8534 608.84 28.2998 609.297C28.9762 609.961 29.5821 610.189 30.267 609.594L32.067 608.03C32.3217 607.808 32.4295 607.864 32.6017 608.062L33.1231 608.662C33.246 608.803 33.2915 608.913 33.0312 609.139C32.7481 609.385 31.7573 610.097 28.9611 612.527C26.2215 614.908 25.0954 616.035 24.6935 616.385C24.4671 616.582 24.3403 616.493 24.1928 616.323L23.7206 615.78C23.5484 615.582 23.503 615.472 23.6728 615.324L25.6142 613.637C26.1859 613.14 26.2255 612.5 25.9587 612.136C25.3254 611.236 17.7108 602.473 17.2386 601.93L10.8685 594.6L10.8628 594.605Z" fill="black"/>
<path d="M43.3596 597.531C40.2658 598.063 35.4171 596.862 31.7967 592.696C30.2816 590.953 28.3839 587.843 28.2731 583.28C28.13 578.039 30.4627 575.019 32.8627 572.933C34.6626 571.369 37.325 569.711 41.2166 569.627C44.8638 569.617 49.1221 570.825 52.5457 574.764C54.3559 576.847 55.5833 579.586 55.8366 582.873C56.1051 586.703 55.0549 590.616 51.1153 594.039C49.7172 595.254 46.8338 596.955 43.366 597.515L43.3596 597.531ZM49.9455 577.431C44.515 571.182 36.858 571.368 33.6883 574.123C33.2581 574.497 31.0165 575.839 30.6379 579.725C30.3135 583.216 31.8777 586.913 33.9142 589.257C40.4367 596.762 47.9682 594.877 50.3965 592.767C56.6738 587.311 52.1493 579.967 49.9455 577.431Z" fill="black"/>
<path d="M55.6085 567.999C55.1609 567.484 50.2406 561.994 50.0438 561.768C49.7684 561.451 49.3071 561.206 48.5939 561.825L47.5921 562.696C47.4223 562.844 47.3165 562.836 47.1935 562.695L46.5491 561.953C46.4507 561.84 46.4581 561.734 46.628 561.587C46.9732 561.287 47.9017 560.629 50.0413 558.769C51.9545 557.107 52.8204 556.205 53.1939 555.881C53.3637 555.733 53.4696 555.74 53.5679 555.854L54.2123 556.595C54.3353 556.737 54.3278 556.842 54.1863 556.965L52.9863 558.008C52.4146 558.505 52.3604 558.9 52.9556 559.585C53.3295 560.015 57.1109 564.538 58.3259 565.936L59.5655 567.362L60.0806 566.915C60.5391 566.516 60.752 566.133 60.903 565.495C61.1328 564.49 60.5603 553.165 60.4953 552.576C60.4008 551.952 60.0134 551.792 59.6454 552.112L59.2435 552.461C59.1303 552.56 59.0528 552.528 58.9298 552.386L58.3592 551.73C58.2363 551.588 58.2437 551.482 58.3569 551.384C58.7022 551.084 59.942 550.155 61.2552 549.014C62.0816 548.296 63.0097 547.341 63.3493 547.045C63.4908 546.922 63.5966 546.93 63.6704 547.015L64.3394 547.785C64.4623 547.926 64.4267 548.056 64.2852 548.179L63.6851 548.701C63.2832 549.05 62.7742 549.79 62.5894 550.607C62.1999 552.296 62.2285 561.144 62.3873 563.807L78.2745 566.632C79.2827 566.809 80.2075 566.204 80.8924 565.609L81.8886 564.743C82.0302 564.62 82.1605 564.656 82.2589 564.769L82.8787 565.482C83.0017 565.624 82.9942 565.73 82.8244 565.877C82.5414 566.123 81.3809 566.983 79.2413 568.842C76.8696 570.903 75.834 571.952 75.4321 572.301C75.3189 572.4 75.213 572.392 75.1147 572.279L74.4703 571.538C74.3719 571.425 74.3793 571.319 74.4925 571.22L74.9227 570.846C75.4661 570.374 75.0997 569.838 74.7122 569.678C73.9607 569.328 63.1016 567.041 62.482 567.083C61.6989 567.108 61.2818 567.371 60.8516 567.745L60.3082 568.217L62.0938 570.272C63.3334 571.698 67.035 575.843 67.4126 576.221C67.7655 576.57 68.2415 576.603 68.6151 576.278L69.8718 575.186C70.0133 575.063 70.1473 575.046 70.2457 575.159L70.8901 575.901C70.9885 576.014 71.034 576.124 70.8925 576.247C70.5472 576.547 69.6187 577.204 67.5922 578.965C65.3394 580.923 64.4963 581.805 64.2416 582.026C64.1001 582.149 63.9943 582.142 63.8713 582L63.2269 581.259C63.1039 581.117 63.1642 581.015 63.2775 580.917L64.4491 579.899C64.9642 579.451 64.9655 579.052 64.7713 578.715C64.5782 578.435 60.1438 573.218 57.0448 569.652L55.6085 567.999Z" fill="black"/>
<path d="M88.3868 551.585C89.3558 552.7 91.0493 554.478 91.353 554.77C92.2299 555.607 92.7388 555.324 93.4803 554.68L94.5953 553.711C94.7934 553.539 94.8672 553.624 94.9656 553.737L95.5362 554.393C95.6838 554.563 95.7576 554.648 95.5595 554.82C95.2142 555.12 94.031 555.999 91.631 558.085C89.0612 560.318 88.252 561.171 87.935 561.446C87.8218 561.544 87.6914 561.509 87.5684 561.367L86.9732 560.682C86.8748 560.569 86.8294 560.46 86.9992 560.312L88.3973 559.097C89.1388 558.453 89.1193 557.973 88.7737 557.518C88.4528 557.092 86.5516 554.79 84.2446 552.135L82.8083 550.482C81.7903 550.065 70.0578 546.133 68.3607 545.85C67.6133 545.744 66.7353 546.06 66.2825 546.454L65.5693 547.073C65.3995 547.221 65.2974 547.161 65.199 547.047L64.5546 546.306C64.4562 546.193 64.4354 546.112 64.6052 545.964C64.8599 545.743 66.2751 544.662 68.0185 543.147C70.9562 540.594 71.9126 539.614 72.1957 539.368C72.3655 539.22 72.4429 539.252 72.5167 539.337L73.1365 540.05C73.2595 540.192 73.3296 540.329 73.1598 540.477L72.2202 541.294C71.3655 542.036 71.4736 542.389 72.1821 542.976C72.6654 543.361 81.5562 546.503 83.8332 547.386C83.4504 544.807 82.2915 535.403 81.9571 534.789C81.6473 534.204 81.2428 533.453 80.0484 534.491L79.2786 535.16C79.1088 535.307 79.0068 535.247 78.8592 535.077L78.264 534.392C78.1656 534.279 78.1447 534.198 78.3145 534.05C78.5975 533.804 79.843 532.871 81.7562 531.208C83.443 529.742 83.9975 529.111 84.2522 528.89C84.4503 528.718 84.5278 528.75 84.6262 528.863L85.2214 529.548C85.369 529.718 85.4144 529.827 85.2163 530L84.5031 530.619C84.0729 530.993 83.7394 531.581 83.651 532.463C83.5516 533.503 84.8645 545.337 85.1459 547.845L88.3973 551.586L88.3868 551.585Z" fill="black"/>
<path d="M104.146 544.706C101.052 545.238 96.2034 544.037 92.5831 539.871C91.068 538.128 89.1703 535.018 89.0595 530.455C88.9164 525.214 91.249 522.194 93.649 520.108C95.449 518.544 98.1113 516.886 102.003 516.802C105.65 516.792 109.908 518 113.332 521.939C115.142 524.022 116.37 526.761 116.623 530.048C116.892 533.878 115.841 537.791 111.902 541.214C110.504 542.429 107.62 544.13 104.152 544.69L104.146 544.706ZM110.732 524.606C105.301 518.357 97.6443 518.544 94.4746 521.298C94.0444 521.672 91.8028 523.014 91.4242 526.9C91.0999 530.391 92.6641 534.088 94.7005 536.432C101.223 543.937 108.755 542.052 111.183 539.942C117.46 534.486 112.936 527.142 110.732 524.606Z" fill="black"/>
<path d="M134.553 520.784C134.327 520.981 134.01 521.257 133.813 521.03C133.666 520.86 133.492 520.604 133.511 520.339C133.479 517.307 131.013 490.599 130.911 490.081L123.173 496.805C122.771 497.155 122.555 497.591 122.428 498.257C122.251 499.266 122.417 504.178 122.641 505.534C122.655 505.721 122.545 505.766 122.411 505.783L121.89 505.938C121.756 505.955 121.703 505.952 121.612 505.733L118.946 499.029C118.809 498.7 118.873 498.545 119.02 498.417C119.134 498.319 119.39 498.146 119.641 497.977C121.13 496.981 125.155 493.484 127.526 491.423C128.557 490.527 129.532 489.58 130.538 488.657C131.519 487.705 132.49 486.811 133.492 485.94C133.951 485.542 134.278 485.804 134.285 486.453C134.288 487.554 136.637 515.625 136.861 516.981L146.908 508.249C147.396 506.673 147.279 501.36 147.235 500.554C147.246 500.395 147.278 500.318 147.44 500.276L148.039 500.153C148.173 500.136 148.275 500.196 148.317 500.359C148.563 501.397 150.137 506.089 150.58 507.055C150.695 507.303 150.624 507.564 150.477 507.691C150.364 507.79 150.082 507.935 149.665 508.198C147.925 509.362 143.282 513.189 140.571 515.545L134.548 520.779L134.553 520.784Z" fill="black"/>
<path d="M156.951 498.816C153.858 499.349 149.009 498.148 145.388 493.982C143.873 492.239 141.976 489.129 141.865 484.566C141.722 479.325 144.054 476.304 146.454 474.219C148.254 472.654 150.917 470.997 154.808 470.913C158.456 470.903 162.714 472.11 166.137 476.05C167.948 478.133 169.175 480.871 169.428 484.158C169.697 487.988 168.647 491.902 164.707 495.325C163.309 496.54 160.426 498.241 156.958 498.801L156.951 498.816ZM163.532 478.722C158.101 472.473 150.444 472.659 147.28 475.409C146.85 475.783 144.608 477.125 144.23 481.01C143.905 484.501 145.469 488.199 147.506 490.542C154.028 498.048 161.56 496.162 163.988 494.052C170.266 488.597 165.741 481.253 163.537 478.717L163.532 478.722Z" fill="black"/>
<path d="M169.2 469.285C168.753 468.77 163.832 463.28 163.635 463.053C163.36 462.736 162.899 462.491 162.186 463.111L161.189 463.977C161.02 464.124 160.914 464.117 160.791 463.975L160.146 463.234C160.048 463.121 160.055 463.015 160.225 462.867C160.57 462.567 161.499 461.909 163.639 460.05C165.552 458.387 166.418 457.486 166.791 457.161C166.961 457.014 167.067 457.021 167.165 457.134L167.81 457.876C167.933 458.017 167.925 458.123 167.784 458.246L166.584 459.289C166.012 459.786 165.958 460.181 166.553 460.866C166.927 461.296 170.708 465.819 171.923 467.217L173.163 468.643L173.678 468.196C174.136 467.797 174.349 467.413 174.5 466.775C174.73 465.771 174.158 454.446 174.093 453.856C173.998 453.233 173.611 453.073 173.243 453.393L172.841 453.742C172.728 453.84 172.65 453.808 172.527 453.667L171.957 453.01C171.834 452.869 171.841 452.763 171.954 452.665C172.299 452.365 173.539 451.436 174.852 450.295C175.679 449.577 176.607 448.621 176.947 448.326C177.088 448.203 177.194 448.211 177.268 448.295L177.937 449.065C178.06 449.207 178.024 449.337 177.882 449.46L177.282 449.982C176.881 450.331 176.372 451.071 176.187 451.888C175.797 453.577 175.826 462.424 175.985 465.088L191.872 467.913C192.88 468.09 193.805 467.485 194.49 466.89L195.486 466.024C195.627 465.901 195.758 465.937 195.856 466.05L196.476 466.763C196.599 466.905 196.592 467.01 196.422 467.158C196.139 467.404 194.978 468.264 192.839 470.123C190.467 472.184 189.431 473.233 189.029 473.582C188.916 473.681 188.81 473.673 188.712 473.56L188.068 472.819C187.969 472.705 187.977 472.6 188.09 472.501L188.52 472.127C189.063 471.655 188.697 471.119 188.309 470.959C187.558 470.609 176.699 468.322 176.079 468.364C175.296 468.389 174.879 468.652 174.449 469.026L173.906 469.498L175.691 471.553C176.931 472.979 180.632 477.124 181.01 477.501C181.363 477.85 181.839 477.884 182.212 477.559L183.469 476.467C183.611 476.344 183.745 476.327 183.843 476.44L184.487 477.182C184.586 477.295 184.631 477.404 184.49 477.527C184.144 477.827 183.216 478.485 181.19 480.246C178.937 482.204 178.094 483.086 177.839 483.307C177.697 483.43 177.592 483.423 177.469 483.281L176.824 482.54C176.701 482.398 176.762 482.296 176.875 482.198L178.046 481.179C178.562 480.732 178.563 480.333 178.369 479.995C178.176 479.716 173.741 474.499 170.642 470.933L169.206 469.28L169.2 469.285Z" fill="black"/>
<path d="M193.896 450.029C194.122 449.833 197.08 447.063 197.371 446.711C198.074 445.852 198.105 445.418 197.592 444.314C197.431 443.957 197.047 443.287 196.603 442.719C196.48 442.577 196.516 442.447 196.629 442.349L197.367 441.757C197.509 441.634 197.664 441.698 197.734 441.836C198.072 442.396 200.103 444.734 200.477 445.164C201.348 446.166 202.652 447.438 203.225 447.983C203.348 448.124 203.34 448.23 203.252 448.357L202.697 448.988C202.58 449.139 202.45 449.103 202.249 448.93C201.868 448.605 201.128 448.096 200.767 447.864C200.075 447.411 199.384 447.257 198.569 447.816C197.105 448.84 195.135 450.552 194.676 450.951L196.216 452.722C197.554 454.262 200.016 456.981 200.513 457.552C201.83 459.011 203.04 458.963 204.071 458.365C204.741 457.981 205.641 457.348 206.354 456.728C206.841 456.305 208.243 455.037 208.793 454.459C209.231 453.98 210.212 452.571 210.408 451.298C210.507 450.715 210.313 447.268 210.149 446.267C210.111 446.052 210.097 445.865 210.347 445.797L211.026 445.654C211.242 445.616 211.316 445.701 211.432 446.006L213.566 451.514C213.702 451.843 213.657 452.19 213.311 452.49C213.17 452.613 212.517 453.131 210.777 454.593C209.062 456.084 206.27 458.461 201.815 462.332C200.757 463.252 199.983 463.974 199.411 464.47C198.836 465.02 198.493 465.368 198.232 465.595C198.063 465.742 197.928 465.759 197.805 465.618L197.137 464.848C197.038 464.735 197.098 464.633 197.297 464.46L198.44 463.467C199.753 462.326 199.694 462.029 198.774 460.971L190.466 451.41C188.405 449.039 185.249 445.522 184.975 445.263C184.07 444.451 183.604 444.498 182.551 445.413L181.521 446.308C181.38 446.431 181.27 446.476 181.123 446.306L180.454 445.537C180.38 445.452 180.387 445.346 180.529 445.223C181.157 444.677 182.233 443.891 184.112 442.258L185.369 441.166C188.193 438.711 190.999 436.224 193.823 433.769C194.282 433.371 194.77 432.847 194.917 432.719C195.065 432.591 195.165 432.603 195.267 432.664L200.716 435.996C200.842 436.084 200.916 436.169 200.852 436.324L200.619 436.924C200.583 437.055 200.396 437.068 200.319 437.036C200.164 436.972 195.696 436.096 194.637 436.261C193.688 436.38 192.595 436.734 191.801 437.375L186.619 441.679L193.889 450.045L193.896 450.029Z" fill="black"/>
<path d="M210.61 433.696C210.015 433.011 205.463 427.946 205.066 427.546C204.414 426.91 203.88 426.878 202.799 427.817L201.146 429.254C201.004 429.377 200.87 429.394 200.772 429.281L200.103 428.511C200.004 428.398 200.04 428.267 200.153 428.169C200.499 427.869 202.027 426.689 204.682 424.382C207.336 422.075 208.061 421.297 208.463 420.948C208.604 420.825 208.735 420.86 208.833 420.974L209.453 421.687C209.576 421.828 209.54 421.959 209.399 422.082L208.057 423.248C207.485 423.744 207.258 424.34 207.754 424.911C208 425.194 213.4 431.579 213.695 431.919L215.604 434.115C215.85 434.398 221.665 440.919 221.941 441.236C222.708 442.119 223.266 441.892 224.177 441.1L225.349 440.082C225.491 439.959 225.625 439.942 225.748 440.083L226.392 440.825C226.491 440.938 226.455 441.068 226.285 441.216C225.94 441.516 224.728 442.42 222.243 444.579C219.532 446.935 218.378 448.088 218.066 448.358C217.925 448.481 217.791 448.499 217.692 448.385L217.023 447.616C216.925 447.502 216.961 447.372 217.102 447.249L218.698 445.862C219.27 445.365 219.796 444.759 219.265 443.919C218.948 443.439 213.676 437.201 212.362 435.69L210.626 433.692L210.61 433.696Z" fill="black"/>
<path d="M243.69 425.644C241.079 426.561 238.991 426.17 236.968 424.769C235.507 423.784 233.731 421.969 230.484 418.233L224.577 411.435C223.706 410.433 223.114 410.152 222.226 410.925L220.884 412.091C220.714 412.238 220.637 412.206 220.465 412.008L219.919 411.38C219.771 411.21 219.75 411.129 219.977 410.932C220.26 410.686 221.731 409.556 223.962 407.618C226.186 405.685 227.482 404.409 227.799 404.134C228.026 403.937 228.103 403.969 228.201 404.082L228.846 404.824C228.969 404.965 228.99 405.047 228.792 405.219L227.365 406.458C226.539 407.176 226.524 408.143 227.014 408.82C227.207 409.1 228.915 411.122 230.184 412.583L231.822 414.468C233.135 415.979 236.402 419.509 237.222 420.396C238.391 421.684 239.784 422.829 241.281 423.226C243.678 423.846 245.948 422.777 247.606 421.336C249.231 419.924 250.417 417.939 250.523 416.049C250.595 413.88 249.478 411.851 247.638 409.734L242.33 403.627C240.446 401.459 238.949 399.849 238.244 399.21C237.515 398.542 236.608 398.426 235.867 399.07L234.61 400.162C234.441 400.31 234.338 400.249 234.216 400.108L233.62 399.423C233.497 399.281 233.476 399.2 233.646 399.053C233.929 398.807 235.316 397.75 237.229 396.088C239.199 394.376 240.037 393.499 240.297 393.273C240.552 393.051 240.679 393.14 240.752 393.225L241.298 393.853C241.446 394.023 241.516 394.161 241.375 394.284L240.203 395.302C239.144 396.222 239.753 397.094 239.968 397.513C240.157 397.845 243.684 401.903 244.029 402.3C244.378 402.702 248.66 407.743 249.544 408.932C251.411 411.423 252.342 413.763 251.93 416.525C251.707 418.577 250.54 420.744 248.055 422.904C246.572 424.192 244.973 425.234 243.679 425.653L243.69 425.644Z" fill="black"/>
<path d="M248.591 392.722C247.13 391.041 245.454 390.838 244.399 391.705L243.203 392.695C243.061 392.818 242.935 392.729 242.861 392.644L242.216 391.903C242.118 391.79 242.097 391.708 242.239 391.586C242.38 391.463 242.637 391.289 243.061 390.92C243.516 390.575 244.169 390.057 245.137 389.216C246.105 388.375 246.656 387.797 247.001 387.497C247.375 387.172 247.699 387.088 248.152 387.152L260.895 389.709C261.556 389.84 271.519 391.554 272.996 391.87L273.109 391.771L270.158 388.375C267.949 385.834 266.706 384.46 265.41 383.083C264.413 381.992 261.841 379.319 261.243 378.985C260.396 378.468 259.504 378.539 258.706 379.232L257.794 380.024C257.681 380.123 257.575 380.115 257.452 379.974L256.808 379.232C256.71 379.119 256.717 379.013 256.83 378.915C257.232 378.566 258.217 377.859 260.046 376.27C261.761 374.779 262.372 374.099 262.74 373.78C262.938 373.607 263.04 373.668 263.138 373.781L263.758 374.494C263.856 374.607 263.874 374.741 263.76 374.84L262.991 375.509C262.221 376.178 262.355 376.915 263.238 378.046C264.787 380.057 267.242 382.882 268.855 384.738L278.133 395.414C278.482 395.816 278.7 396.123 278.586 396.222C278.241 396.522 277.686 396.398 277.503 396.358L270.2 394.985C266.042 394.237 261.677 393.421 261.36 393.399C260.802 393.386 249.819 391.357 249.442 391.277L249.272 391.425L254.781 397.764C257.088 400.419 261.358 404.875 261.911 405.397C262.994 406.414 263.636 406.799 264.406 406.13L265.261 405.388C265.459 405.215 265.561 405.276 265.709 405.446L266.255 406.074C266.402 406.244 266.423 406.325 266.225 406.497C265.942 406.743 264.153 408.149 263.383 408.817C262.783 409.339 260.887 411.136 260.604 411.382C260.491 411.48 260.414 411.448 260.291 411.306L259.646 410.565C259.572 410.48 259.527 410.371 259.669 410.248L260.636 409.406C261.463 408.688 261.48 408.067 260.406 406.546C259.991 405.954 257.219 402.65 252.806 397.573L248.591 392.722Z" fill="black"/>
<path d="M276.547 376.395C275.952 375.71 271.401 370.644 271.003 370.244C270.352 369.609 269.817 369.576 268.736 370.516L267.083 371.952C266.942 372.075 266.807 372.092 266.709 371.979L266.04 371.209C265.942 371.096 265.977 370.966 266.091 370.867C266.436 370.567 267.964 369.388 270.619 367.081C273.274 364.774 273.998 363.996 274.4 363.646C274.541 363.523 274.672 363.559 274.77 363.672L275.39 364.386C275.513 364.527 275.477 364.657 275.336 364.78L273.994 365.946C273.423 366.443 273.189 367.043 273.686 367.615C273.932 367.898 279.332 374.283 279.627 374.623L281.535 376.819C281.781 377.102 287.597 383.622 287.872 383.939C288.64 384.822 289.198 384.596 290.109 383.804L291.281 382.786C291.422 382.663 291.556 382.645 291.679 382.787L292.324 383.528C292.422 383.642 292.386 383.772 292.217 383.92C291.871 384.22 290.66 385.123 288.175 387.283C285.464 389.639 284.309 390.791 283.998 391.062C283.856 391.185 283.722 391.202 283.624 391.089L282.955 390.319C282.856 390.206 282.892 390.075 283.034 389.953L284.63 388.565C285.202 388.069 285.728 387.462 285.197 386.622C284.879 386.143 279.608 379.905 278.294 378.394L276.558 376.396L276.547 376.395Z" fill="black"/>
<path d="M277.754 361.069C277.631 360.928 277.61 360.847 277.78 360.699C278.063 360.453 279.082 359.717 281.306 357.783C283.706 355.698 284.912 354.501 285.172 354.275C285.427 354.054 285.529 354.114 285.627 354.227L286.198 354.884C286.321 355.025 286.391 355.163 286.193 355.335L284.823 356.526C284.025 357.219 283.845 357.823 284.268 358.31C284.464 358.536 284.793 358.857 285.222 359.179C286.287 360.062 290.297 362.538 292.199 363.687C293.489 364.474 299.406 367.945 301.578 369.118L301.635 369.069C301.069 367.206 298.183 359.391 297.844 358.533C297.464 357.512 295.692 353.29 295.03 351.659C294.637 350.749 294.365 350.082 294.02 349.686C293.72 349.34 293.251 349.201 292.538 349.821L291.797 350.465C291.684 350.564 291.581 350.503 291.434 350.334L290.863 349.677C290.74 349.536 290.719 349.454 290.861 349.331C291.116 349.11 292.503 348.054 294.303 346.489C296.386 344.679 297.025 343.975 297.285 343.748C297.455 343.601 297.533 343.633 297.656 343.774L298.275 344.487C298.374 344.601 298.419 344.71 298.25 344.858L297.48 345.527C296.54 346.343 296.395 347.274 296.422 348.403C296.473 349.959 299.278 357.794 299.834 359.417C300.305 360.656 304.516 372.933 304.621 373.339C304.704 373.664 304.69 373.934 304.549 374.057C304.323 374.254 303.958 374.074 303.492 373.823C300.298 371.989 292.326 367.491 291.068 366.787L289.943 366.065C287.498 364.633 282.56 361.661 281.439 361.126C280.585 360.715 280.051 360.683 279.451 361.204L278.709 361.849C278.596 361.947 278.494 361.887 278.396 361.774L277.776 361.06L277.754 361.069Z" fill="black"/>
<path d="M327.999 329.874C326.164 327.763 324.575 325.934 323.829 325.132C322.984 324.217 322.215 324.031 321.502 324.651L320.359 325.644C320.217 325.767 320.115 325.707 320.017 325.594L319.397 324.88C319.274 324.739 319.253 324.658 319.395 324.535C319.649 324.313 320.612 323.626 323.006 321.545C324.602 320.158 327.183 317.766 327.698 317.319C330.07 315.258 332.569 314.338 334.551 314.423C336.283 314.518 337.943 315.331 338.863 316.389C341.962 319.955 341.503 322.709 338.545 326.69L338.594 326.747C339.5 326.406 340.35 326.572 340.852 326.692C341.522 326.766 346.076 327.914 346.627 328.091C347.015 328.251 351.101 329.26 351.994 329.19C352.967 329.099 353.673 328.585 354.471 327.891C354.669 327.719 354.796 327.808 354.895 327.921L355.441 328.549C355.588 328.719 355.634 328.828 355.435 329.001C355.209 329.197 354.388 329.762 353.137 330.849C352.311 331.567 351.301 332.543 350.902 332.941C350.339 332.933 348.87 332.501 348.285 332.353C347.758 332.205 343.857 330.836 343.519 330.733C343.233 330.633 340.078 329.769 339.383 329.667C337.874 329.428 336.521 329.254 334.862 330.695C334.607 330.916 334.319 331.167 333.996 331.597L335.383 333.193C336.849 334.879 339.652 338.047 340.054 338.453C340.632 339.004 341.306 339.322 341.736 338.948L343.536 337.384C343.734 337.212 343.837 337.272 343.959 337.414L344.505 338.042C344.678 338.24 344.699 338.321 344.415 338.567C344.104 338.838 343.312 339.378 340.6 341.734C338.002 343.992 337.419 344.647 337.108 344.918C336.882 345.114 336.808 345.029 336.685 344.888L336.114 344.231C335.991 344.09 335.917 344.005 336.059 343.882L337.231 342.864C337.859 342.318 338.174 341.697 337.505 340.927C335.107 338.053 332.775 335.37 330.419 332.659L328.013 329.891L327.999 329.874ZM333.028 330.471C333.532 330.182 333.868 329.94 334.411 329.467C339.607 324.952 337.505 320.52 336.462 319.32C335.321 318.007 333.629 317.272 332.207 317.305C330.325 317.391 328.694 318.053 326.328 320.109C325.983 320.409 325.664 320.785 325.551 321.181C325.476 321.495 325.604 321.94 325.998 322.393L333.017 330.47L333.028 330.471Z" fill="black"/>
<path d="M358.315 324.471C357.748 324.517 357.5 324.574 357.358 324.697C357.188 324.844 357.242 325.146 357.323 325.582C357.424 326.041 357.312 326.198 357.108 326.375C356.938 326.522 356.673 326.504 356.455 326.138C355.948 325.326 353.078 321.452 352.45 320.547C352.331 320.352 352.388 320.303 352.501 320.205L352.956 319.859C353.069 319.761 353.175 319.768 353.322 319.938C354.143 320.825 355.021 321.721 357.23 322.354C359.251 322.953 361.493 322.355 363.061 320.993C364.776 319.502 366.024 316.56 363.791 313.99C361.238 311.052 358.182 311.8 355.202 312.989C354.048 313.445 351.369 314.512 349.024 314.295C347.268 314.172 345.615 313.253 343.977 311.368C342.738 309.942 342.406 307.776 342.571 306.172C342.76 304.309 343.837 302.667 345.377 301.329C347.007 299.913 348.681 299.312 349.365 299.116C349.742 299.036 349.865 298.88 349.884 298.615L349.957 297.945C350 297.709 350.036 297.579 350.183 297.451C350.33 297.323 350.606 297.481 350.833 297.741C351.703 298.743 354.605 301.328 355.179 301.931C355.302 302.073 355.323 302.154 355.235 302.281L354.963 302.666C354.903 302.768 354.822 302.789 354.72 302.728C353.775 302.099 352.432 301.308 350.193 301.098C348.705 300.941 347.354 301.41 346.013 302.575C343.471 304.784 344.198 307.461 345.462 308.916C346.156 309.714 347.147 310.511 348.505 310.633C350.049 310.741 352.197 309.977 353.25 309.52C355.766 308.436 357.785 307.536 359.907 307.897C361.416 308.136 362.9 308.803 364.538 310.688C367.465 314.056 367.914 318.723 364.144 321.999C362.146 323.735 360.226 324.35 358.316 324.461L358.315 324.471Z" fill="black"/>
<path d="M364.928 299.59C364.332 298.905 359.781 293.839 359.384 293.439C358.732 292.803 358.197 292.771 357.116 293.711L355.464 295.147C355.322 295.27 355.188 295.287 355.09 295.174L354.421 294.404C354.322 294.291 354.358 294.161 354.471 294.062C354.816 293.762 356.345 292.583 359 290.276C361.654 287.969 362.379 287.19 362.78 286.841C362.922 286.718 363.052 286.754 363.151 286.867L363.771 287.58C363.894 287.722 363.858 287.852 363.716 287.975L362.375 289.141C361.803 289.638 361.575 290.233 362.072 290.805C362.318 291.088 367.718 297.473 368.013 297.813L369.922 300.009C370.168 300.292 375.983 306.812 376.259 307.129C377.026 308.012 377.584 307.786 378.495 306.994L379.667 305.976C379.808 305.853 379.943 305.835 380.066 305.977L380.71 306.718C380.808 306.832 380.773 306.962 380.603 307.11C380.258 307.41 379.046 308.313 376.561 310.473C373.85 312.829 372.695 313.981 372.384 314.252C372.242 314.375 372.108 314.392 372.01 314.279L371.341 313.509C371.243 313.396 371.278 313.265 371.42 313.142L373.016 311.755C373.588 311.259 374.114 310.652 373.583 309.812C373.266 309.333 367.994 303.095 366.68 301.584L364.944 299.586L364.928 299.59Z" fill="black"/>
<path d="M373.979 279.047L373.266 279.666C372.355 280.458 369.87 282.618 369.055 283.932C368.119 285.451 369.001 288.191 369.391 289.452C369.457 289.643 369.397 289.745 369.231 289.839L368.593 290.146C368.483 290.191 368.374 290.237 368.283 290.018C367.676 288.736 365.475 284.192 365.256 283.825C364.988 283.403 365.028 283.219 365.141 283.121C365.282 282.998 365.392 282.952 365.585 282.934L366.18 282.864C367.019 282.79 367.376 282.629 368.233 281.934C369.793 280.677 371.092 279.748 373.775 277.416L375.144 276.226C378.258 273.52 379.388 272.34 380.736 271.068C381.34 270.494 381.634 270.089 381.87 269.378L382.113 268.56C382.181 268.352 382.242 268.25 382.36 268.147C382.502 268.024 382.632 268.06 383.014 268.384C383.37 268.68 386.988 271.745 388.306 272.805C388.458 272.922 388.45 273.028 388.333 273.179L387.973 273.691C387.885 273.818 387.832 273.814 387.575 273.69C386.876 273.343 384.107 271.894 382.769 272.252C381.541 272.565 378.808 274.84 377.41 276.055L376.612 276.749L383.681 284.883C384.03 285.284 390.976 293.277 391.422 293.733C392.098 294.397 392.704 294.626 393.389 294.031L395.189 292.466C395.444 292.245 395.552 292.3 395.724 292.499L396.245 293.099C396.368 293.24 396.414 293.35 396.153 293.576C395.87 293.822 394.88 294.534 392.083 296.964C389.344 299.345 388.217 300.472 387.816 300.822C387.589 301.018 387.463 300.93 387.315 300.76L386.843 300.216C386.671 300.018 386.625 299.909 386.795 299.761L388.736 298.074C389.308 297.577 389.348 296.937 389.081 296.573C388.448 295.672 380.833 286.91 380.361 286.367L373.991 279.037L373.979 279.047Z" fill="black"/>
<path d="M408.869 273.077C409.839 274.192 411.532 275.969 411.836 276.261C412.713 277.099 413.221 276.816 413.963 276.171L415.078 275.202C415.276 275.03 415.35 275.115 415.448 275.228L416.019 275.885C416.166 276.055 416.24 276.14 416.042 276.312C415.697 276.612 414.514 277.491 412.114 279.577C409.544 281.81 408.735 282.662 408.418 282.938C408.304 283.036 408.174 283 408.051 282.859L407.456 282.174C407.358 282.061 407.312 281.951 407.482 281.804L408.88 280.589C409.621 279.944 409.602 279.464 409.256 279.01C408.935 278.583 407.034 276.281 404.727 273.626L403.291 271.974C402.273 271.557 390.54 267.625 388.843 267.341C388.102 267.231 387.218 267.552 386.765 267.945L386.052 268.565C385.882 268.712 385.78 268.652 385.682 268.539L385.037 267.797C384.939 267.684 384.918 267.603 385.088 267.455C385.343 267.234 386.758 266.153 388.501 264.638C391.439 262.085 392.395 261.105 392.678 260.859C392.848 260.712 392.926 260.744 392.999 260.828L393.619 261.542C393.742 261.683 393.812 261.821 393.643 261.969L392.703 262.785C391.848 263.528 391.951 263.886 392.665 264.467C393.148 264.852 402.039 267.995 404.316 268.877C403.933 266.299 402.774 256.894 402.44 256.281C402.13 255.696 401.725 254.944 400.531 255.982L399.761 256.651C399.592 256.799 399.489 256.738 399.342 256.569L398.747 255.884C398.648 255.77 398.627 255.689 398.797 255.542C399.086 255.291 400.326 254.362 402.239 252.7C403.92 251.239 404.48 250.603 404.735 250.382C404.933 250.21 405.01 250.242 405.109 250.355L405.704 251.04C405.852 251.209 405.897 251.319 405.699 251.491L404.986 252.111C404.556 252.485 404.222 253.073 404.134 253.954C404.034 254.994 405.347 266.829 405.629 269.336L408.88 273.078L408.869 273.077Z" fill="black"/>
<path d="M435.785 256.502C432.691 257.034 427.843 255.834 424.222 251.668C422.707 249.924 420.809 246.814 420.699 242.251C420.556 237.01 422.888 233.99 425.288 231.904C427.088 230.34 429.751 228.682 433.642 228.599C437.289 228.588 441.548 229.796 444.971 233.735C446.781 235.818 448.009 238.557 448.262 241.844C448.531 245.674 447.475 249.592 443.541 253.011C442.143 254.226 439.259 255.927 435.792 256.486L435.785 256.502ZM442.371 236.402C436.941 230.153 429.284 230.34 426.114 233.094C425.684 233.468 423.442 234.81 423.063 238.696C422.739 242.187 424.303 245.884 426.34 248.228C432.862 255.733 440.394 253.848 442.822 251.738C449.099 246.282 444.575 238.938 442.371 236.402Z" fill="black"/>
<path d="M454.119 229.8C455.285 231.141 458.688 235 459.065 235.377C459.668 235.956 460.202 235.988 460.797 235.472L462.625 233.883C462.823 233.711 462.925 233.771 463.023 233.884L463.619 234.569C463.742 234.711 463.787 234.82 463.561 235.017C463.159 235.366 462.202 236.048 459.519 238.38C457.006 240.564 455.965 241.618 455.653 241.889C455.455 242.061 455.353 242 455.255 241.887L454.635 241.174C454.512 241.033 454.491 240.951 454.633 240.828L455.861 239.761C456.834 238.915 456.91 238.601 456.325 237.758C456.103 237.444 452.321 232.922 449.444 229.61L446.591 226.327C444.953 224.442 442.219 221.354 441.945 221.095C441.391 220.573 441.054 220.767 440.284 221.436L438.659 222.848C438.518 222.971 438.44 222.939 438.293 222.769L437.697 222.084C437.574 221.943 437.554 221.861 437.695 221.738C438.006 221.468 439.11 220.657 441.822 218.301C442.337 217.854 443.944 216.308 444.889 215.486C448.116 212.683 449.898 211.68 452.497 211.379C454.63 211.124 456.849 212.008 458.261 213.633C461.384 217.227 460.611 221.813 456.071 225.758C455.013 226.678 453.85 227.639 452.835 228.322L454.124 229.805L454.119 229.8ZM451.935 227.286C452.654 226.959 453.668 226.228 454.783 225.259C456.526 223.744 457.249 221.466 457.12 219.82C457.03 218.447 456.223 217.291 455.358 216.294C452.106 212.553 447.759 214.582 446.073 216.048C445.586 216.471 444.42 217.484 444.02 218.179L451.935 227.286Z" fill="black"/>
<path d="M468.938 211C469.164 210.803 472.123 208.034 472.413 207.682C473.116 206.822 473.147 206.389 472.634 205.284C472.473 204.928 472.09 204.257 471.646 203.689C471.523 203.548 471.558 203.418 471.672 203.319L472.409 202.728C472.551 202.605 472.706 202.669 472.776 202.807C473.114 203.367 475.146 205.705 475.519 206.135C476.39 207.137 477.694 208.408 478.267 208.953C478.39 209.095 478.382 209.201 478.294 209.327L477.739 209.958C477.622 210.11 477.492 210.074 477.291 209.9C476.91 209.576 476.17 209.067 475.809 208.834C475.117 208.382 474.427 208.227 473.611 208.787C472.147 209.811 470.177 211.523 469.719 211.921L471.258 213.693C472.596 215.233 475.058 217.951 475.555 218.523C476.872 219.981 478.082 219.933 479.118 219.331C479.788 218.947 480.689 218.314 481.402 217.694C481.889 217.271 483.29 216.003 483.841 215.425C484.279 214.946 485.26 213.537 485.455 212.264C485.555 211.681 485.361 208.233 485.191 207.238C485.153 207.023 485.14 206.836 485.389 206.768L486.069 206.624C486.284 206.586 486.358 206.671 486.474 206.977L488.608 212.485C488.745 212.813 488.699 213.161 488.354 213.461C488.212 213.584 487.559 214.102 485.82 215.564C484.105 217.054 481.312 219.431 476.857 223.303C475.799 224.222 475.025 224.944 474.454 225.441C473.878 225.991 473.535 226.339 473.275 226.565C473.105 226.713 472.971 226.73 472.848 226.588L472.179 225.819C472.08 225.705 472.141 225.603 472.339 225.431L473.482 224.438C474.795 223.296 474.736 223 473.816 221.941L465.508 212.381C463.447 210.009 460.292 206.493 460.017 206.234C459.112 205.421 458.647 205.468 457.594 206.383L456.564 207.278C456.422 207.401 456.312 207.447 456.165 207.277L455.496 206.507C455.422 206.422 455.43 206.317 455.571 206.194C456.199 205.648 457.275 204.862 459.154 203.229L460.411 202.137C463.235 199.682 466.035 197.199 468.865 194.74C469.324 194.341 469.812 193.817 469.96 193.69C470.107 193.562 470.207 193.574 470.309 193.634L475.758 196.966C475.885 197.055 475.958 197.14 475.894 197.295L475.661 197.895C475.625 198.025 475.438 198.039 475.361 198.007C475.206 197.943 470.738 197.066 469.68 197.231C468.73 197.351 467.637 197.705 466.843 198.346L461.661 202.65L468.932 211.016L468.938 211Z" fill="black"/>
<path d="M481.14 190.63C479.679 188.949 478.003 188.746 476.948 189.613L475.752 190.603C475.611 190.726 475.484 190.637 475.41 190.553L474.766 189.811C474.667 189.698 474.646 189.617 474.788 189.494C474.93 189.371 475.186 189.197 475.611 188.828C476.065 188.483 476.718 187.965 477.686 187.124C478.66 186.278 479.205 185.705 479.55 185.405C479.924 185.08 480.249 184.997 480.701 185.06L493.445 187.617C494.105 187.748 504.069 189.462 505.546 189.778L505.659 189.679L502.707 186.283C500.499 183.742 499.256 182.368 497.959 180.991C496.962 179.901 494.391 177.227 493.792 176.893C492.946 176.377 492.053 176.447 491.255 177.141L490.344 177.932C490.231 178.031 490.125 178.023 490.002 177.882L489.357 177.14C489.259 177.027 489.266 176.921 489.38 176.823C489.781 176.474 490.767 175.767 492.595 174.178C494.31 172.687 494.921 172.007 495.289 171.688C495.487 171.515 495.589 171.576 495.688 171.689L496.307 172.402C496.406 172.515 496.423 172.649 496.31 172.748L495.54 173.417C494.77 174.086 494.904 174.823 495.787 175.954C497.337 177.965 499.791 180.79 501.405 182.646L510.682 193.322C511.031 193.724 511.249 194.031 511.136 194.13C510.79 194.43 510.236 194.306 510.052 194.266L502.749 192.894C498.592 192.145 494.226 191.329 493.909 191.307C493.352 191.294 482.368 189.265 481.991 189.185L481.821 189.333L487.331 195.672C489.638 198.327 493.907 202.783 494.466 203.301C495.549 204.317 496.186 204.707 496.956 204.038L497.81 203.296C498.008 203.124 498.111 203.184 498.258 203.354L498.804 203.982C498.952 204.152 498.973 204.233 498.774 204.405C498.486 204.656 496.703 206.057 495.933 206.726C495.333 207.247 493.437 209.044 493.154 209.29C493.041 209.388 492.963 209.356 492.84 209.215L492.196 208.473C492.122 208.388 492.076 208.279 492.218 208.156L493.186 207.315C494.012 206.596 494.029 205.976 492.956 204.455C492.54 203.862 489.768 200.558 485.356 195.481L481.14 190.63Z" fill="black"/>
<path d="M526.367 176.433C522.625 176.277 518.745 173.836 516.364 171.097C514.057 168.442 512.531 164.96 512.702 161.006C512.819 158.202 514.223 154.628 517.336 151.922C519.934 149.664 522.915 148.773 524.466 148.478C525.037 148.379 525.154 148.228 525.038 147.981L524.546 146.958C524.455 146.739 524.512 146.689 524.772 146.463C525.033 146.237 525.133 146.249 525.482 146.651C525.954 147.195 530.171 150.892 531.006 151.567C531.157 151.684 531.227 151.822 531.139 151.949L530.807 152.436C530.69 152.587 530.609 152.608 530.327 152.455C529.109 151.865 527.29 151.041 525.028 150.851C522.761 150.665 520.408 151.011 518.15 152.973C513.039 157.415 514.929 163.74 518.578 167.882C520.019 169.54 523.333 172.313 527.692 172.837C531.518 173.317 533.344 172.138 535.257 170.475C538.484 167.671 539.457 163.716 539.157 160.718C539.119 160.502 539.151 160.425 539.31 160.436L539.929 160.394C540.063 160.377 540.169 160.385 540.207 160.6C540.651 164.575 539.89 169.29 535.866 172.788C532.498 175.714 529.439 176.515 526.361 176.438L526.367 176.433Z" fill="black"/>
<path d="M543.245 151.691C543.576 152.655 545.781 158.359 546.161 159.082C546.305 159.305 546.499 159.643 546.622 159.784C546.971 160.186 547.513 160.113 548.136 159.572L549.477 158.406C549.675 158.234 549.809 158.216 549.932 158.358L550.503 159.014C550.675 159.213 550.639 159.343 550.498 159.466C550.096 159.815 548.856 160.744 547.169 162.209C545.086 164.02 544.532 164.651 544.13 165C543.989 165.123 543.883 165.115 543.735 164.946L543.14 164.261C543.017 164.119 543.081 163.964 543.194 163.866L544.19 163C545.045 162.257 545.098 161.506 544.702 160.251C544.502 159.62 541.995 152.529 540.796 149.468C540.497 148.724 537.48 140.576 537.066 139.585C536.905 139.228 536.722 138.732 536.253 138.593C536.07 138.553 535.833 138.51 535.73 138.391C535.656 138.306 535.615 138.144 535.763 137.915C536.414 137.052 536.923 135.099 536.896 134.428C536.914 134.163 536.901 133.976 537.048 133.848C537.218 133.701 537.422 133.821 537.782 134.064C539.89 135.392 547.668 139.85 549.8 141.206C552.39 142.86 558.86 146.556 559.98 147.043C561.283 147.56 562.325 147.261 563.038 146.641L563.977 145.824C564.147 145.677 564.278 145.713 564.376 145.826L564.996 146.539C565.119 146.68 565.083 146.811 564.879 146.988C564.364 147.436 563.69 147.872 561.381 149.879C559.009 151.94 558.087 152.891 557.43 153.461C557.289 153.584 557.13 153.573 556.983 153.403L556.412 152.747C556.264 152.577 556.325 152.475 556.495 152.327L557.208 151.708C558.006 151.014 558.02 150.505 557.118 149.878C555.996 149.045 551.652 146.412 550.256 145.618L543.238 151.717L543.245 151.691ZM549.029 144.857C548.031 144.223 539.513 139.097 538.998 138.79C538.741 138.666 538.507 138.511 538.422 138.585C538.309 138.683 538.368 138.98 538.485 139.286C538.668 139.782 542.307 149.446 542.723 150.336L549.029 144.857Z" fill="black"/>
<path d="M575.367 129.687C575.396 128.908 572.321 119.608 572.223 119.037C572.072 118.463 569.356 109.05 568.944 108.405C568.725 108.039 569.017 107.735 569.3 107.489C573.098 104.188 573.993 103.262 574.31 102.987C574.451 102.864 574.553 102.924 574.652 103.037L575.222 103.694C575.37 103.864 575.415 103.973 575.217 104.145L573.961 105.237C573.106 105.98 573.469 106.569 574.039 107.226C574.757 108.052 578.219 112.207 579.882 114.12L581.618 116.118C582.858 117.545 586.961 122.095 587.458 122.667C588.403 123.754 589.051 123.985 589.77 123.361L591.451 121.9C591.621 121.752 591.723 121.812 591.821 121.926L592.392 122.582C592.539 122.752 592.585 122.861 592.358 123.058C592.013 123.358 591.43 123.716 588.288 126.446C585.662 128.729 584.621 129.783 584.253 130.102C584.055 130.274 583.953 130.214 583.805 130.044L583.234 129.388C583.111 129.246 583.09 129.165 583.289 128.993L585.23 127.306C585.717 126.883 585.824 126.491 585.133 125.582C584.861 125.212 580.576 120.223 578.741 118.112L577.152 116.284C575.514 114.399 571.102 109.321 570.79 109.135L570.734 109.184C570.77 109.809 574.528 122.319 574.638 122.731C574.768 123.224 577.924 133.257 578.032 133.611C578.14 133.964 578.282 134.596 578.056 134.792C577.886 134.94 577.542 134.841 577.178 134.651L564.987 128.465C563.302 127.624 555.145 123.486 554.454 123.491C554.69 123.991 560.91 131.263 561.205 131.602C561.5 131.942 566.711 137.995 567.662 138.917C569.215 140.419 569.874 140.651 570.785 139.859L572.211 138.619C572.381 138.472 572.483 138.532 572.582 138.645L573.201 139.358C573.3 139.472 573.345 139.581 573.119 139.778C572.808 140.048 571.958 140.637 569.592 142.694C567.164 144.804 566.242 145.754 565.981 145.981C565.755 146.178 565.702 146.174 565.505 145.947L564.91 145.263C564.836 145.178 564.791 145.068 564.932 144.945L566.443 143.632C567.53 142.687 567.141 141.724 566.464 140.603C565.049 138.277 558.783 130.896 558.335 130.38C557.986 129.979 554.243 125.671 553.496 124.869C552.897 124.237 552.576 123.811 551.405 124.829L549.661 126.344C549.492 126.492 549.39 126.431 549.291 126.318L548.647 125.577C548.573 125.492 548.527 125.382 548.697 125.235C548.986 124.984 549.83 124.4 552.252 122.294C553.594 121.129 554.261 120.399 554.607 120.099C555.037 119.725 555.305 119.691 555.771 119.942L575.358 129.676L575.367 129.687Z" fill="black"/>
<path d="M593.799 108.414C594.965 109.755 598.368 113.614 598.745 113.991C599.348 114.57 599.882 114.602 600.477 114.086L602.305 112.497C602.503 112.325 602.605 112.385 602.704 112.498L603.299 113.183C603.422 113.325 603.467 113.434 603.241 113.631C602.839 113.98 601.882 114.662 599.199 116.994C596.686 119.178 595.645 120.232 595.333 120.503C595.135 120.675 595.033 120.614 594.935 120.501L594.315 119.788C594.192 119.647 594.171 119.565 594.313 119.442L595.541 118.375C596.515 117.529 596.59 117.215 596.006 116.372C595.783 116.058 592.002 111.536 589.124 108.224L586.271 104.941C584.633 103.056 581.899 99.9678 581.625 99.7093C581.072 99.1868 580.734 99.3811 579.964 100.05L578.339 101.462C578.198 101.585 578.12 101.553 577.973 101.383L577.378 100.698C577.255 100.557 577.234 100.475 577.375 100.352C577.687 100.082 578.791 99.2715 581.502 96.9153C582.017 96.4677 583.624 94.9218 584.57 94.1004C587.796 91.2965 589.578 90.2945 592.177 89.9929C594.31 89.7384 596.529 90.6221 597.941 92.2466C601.064 95.841 600.291 100.427 595.751 104.372C594.693 105.292 593.531 106.253 592.515 106.936L593.804 108.419L593.799 108.414ZM591.615 105.9C592.334 105.573 593.348 104.842 594.463 103.873C596.206 102.358 596.929 100.08 596.8 98.4339C596.71 97.0614 595.904 95.9046 595.038 94.9084C591.786 91.1669 587.44 93.1958 585.753 94.6617C585.266 95.0847 584.1 96.098 583.7 96.793L591.615 105.9Z" fill="black"/>
<path d="M617.38 100.897C614.769 101.814 612.681 101.423 610.658 100.022C609.196 99.0367 607.421 97.2219 604.174 93.4861L598.266 86.688C597.396 85.6862 596.804 85.4055 595.915 86.1778L594.574 87.3436C594.404 87.4911 594.327 87.4591 594.154 87.261L593.608 86.6327C593.461 86.4629 593.44 86.3817 593.666 86.185C593.955 85.9341 595.427 84.804 597.651 82.8708C599.876 80.9377 601.172 79.6624 601.489 79.3869C601.715 79.1901 601.793 79.2222 601.891 79.3354L602.536 80.0769C602.659 80.2184 602.68 80.2996 602.481 80.4717L601.055 81.7113C600.229 82.4295 600.214 83.3959 600.703 84.0734C600.896 84.3527 602.605 86.3754 603.874 87.8358L605.512 89.7207C606.825 91.232 610.091 94.7619 610.912 95.6486C612.081 96.9372 613.473 98.082 614.971 98.4793C617.368 99.099 619.638 98.0302 621.296 96.5889C622.921 95.1772 624.107 93.1925 624.213 91.3023C624.285 89.1332 623.168 87.1041 621.328 84.9871L616.02 78.8796C614.136 76.7117 612.638 75.1024 611.934 74.463C611.204 73.7953 610.298 73.6786 609.557 74.323L608.3 75.415C608.13 75.5626 608.028 75.5023 607.905 75.3608L607.31 74.6759C607.187 74.5344 607.166 74.4532 607.336 74.3056C607.619 74.0596 609.006 73.0033 610.919 71.3407C612.889 69.6289 613.727 68.752 613.987 68.5258C614.242 68.3044 614.368 68.393 614.442 68.4779L614.988 69.1062C615.136 69.276 615.206 69.4138 615.064 69.5368L613.893 70.5551C612.834 71.4749 613.443 72.3468 613.658 72.7659C613.847 73.0981 617.374 77.1565 617.719 77.5528C618.063 77.949 622.35 82.9962 623.234 84.1851C625.101 86.6761 626.032 89.0164 625.62 91.7783C625.397 93.8304 624.229 95.9971 621.745 98.1566C620.262 99.4453 618.663 100.487 617.368 100.906L617.38 100.897Z" fill="black"/>
<path d="M634.302 84.6311C633.735 84.6765 633.487 84.7335 633.345 84.8565C633.175 85.004 633.229 85.3054 633.31 85.7417C633.41 86.2006 633.298 86.3575 633.095 86.5346C632.925 86.6822 632.66 86.6636 632.441 86.2975C631.935 85.4859 629.065 81.6116 628.437 80.7065C628.318 80.5121 628.375 80.4629 628.488 80.3646L628.943 80.019C629.056 79.9206 629.162 79.928 629.309 80.0979C630.129 80.9846 631.007 81.8807 633.217 82.5139C635.237 83.1126 637.48 82.515 639.048 81.1524C640.763 79.6619 642.011 76.7195 639.778 74.1497C637.225 71.212 634.169 71.96 631.189 73.1491C630.035 73.6052 627.356 74.6719 625.011 74.4544C623.255 74.3314 621.602 73.4129 619.964 71.528C618.724 70.1016 618.392 67.9362 618.558 66.3318C618.747 64.4686 619.824 62.8272 621.364 61.4892C622.994 60.0725 624.668 59.4722 625.352 59.2756C625.729 59.1957 625.852 59.0395 625.87 58.7751L625.944 58.1051C625.987 57.8689 626.023 57.7386 626.17 57.6107C626.317 57.4828 626.593 57.6403 626.819 57.9007C627.69 58.9026 630.592 61.4873 631.166 62.091C631.289 62.2325 631.31 62.3137 631.222 62.4404L630.95 62.8254C630.89 62.9275 630.809 62.9484 630.706 62.8881C629.762 62.2584 628.419 61.468 626.18 61.2579C624.692 61.1005 623.341 61.5693 621.999 62.7351C619.458 64.9437 620.185 67.6205 621.449 69.0752C622.142 69.8734 623.134 70.6711 624.491 70.7928C626.036 70.901 628.184 70.1372 629.236 69.6794C631.752 68.5959 633.772 67.6956 635.894 68.0569C637.403 68.2955 638.887 68.963 640.525 70.8479C643.452 74.2158 643.901 78.8825 640.131 82.1585C638.133 83.8949 636.213 84.5099 634.302 84.6206L634.302 84.6311Z" fill="black"/>
<path d="M659.397 64.6806C658.91 65.1036 658.425 65.5746 658.02 65.9768C657.614 66.3789 657.299 66.7024 657.186 66.8008C657.044 66.9237 656.959 66.9975 656.727 66.9015C656.47 66.7772 656.424 66.6677 656.438 66.3975C656.688 63.9751 657.292 59.5949 657.438 55.1559C657.585 50.717 656.995 47.3747 654.745 44.9685C652.451 42.5008 649.598 42.3274 647.563 44.1462C645.159 46.2848 645.886 48.9616 646.142 50.2394C646.201 50.5359 646.14 50.638 645.919 50.681L645.37 50.8604C645.236 50.8776 645.134 50.8173 645.021 50.4585C644.51 48.945 643.159 44.5659 647.013 41.216C649.413 39.1304 653.717 38.8473 656.521 42.0737C658.632 44.5019 659.449 47.3978 659.383 52.5121C659.375 56.4239 658.563 60.0401 658.276 62.2472L664.072 57.2102C666.013 55.5229 665.589 53.5371 665.298 51.9326C665.218 51.5549 665.278 51.4528 665.69 51.3434C666.014 51.2599 666.232 51.2698 666.265 51.5485L668.28 57.6167C668.414 58.0566 668.64 57.8599 668.125 58.3075C667.871 58.5288 667.846 58.5005 667.511 58.3442C667.017 58.1182 666.449 58.5621 665.594 59.3049L659.402 64.6863L659.397 64.6806Z" fill="black"/>
<path d="M663.711 45.8998C658.03 39.3621 656.919 32.6078 660.575 29.4301C664.77 25.7851 671.448 29.5488 675.221 33.8903C680.902 40.428 681.598 46.1326 677.919 49.3299C673.294 53.3487 666.712 49.3526 663.711 45.8998ZM678.035 43.8736C677.473 41.9578 675.844 39.5685 672.218 35.3969C668.573 31.2025 663.723 28.5025 661.295 30.6128C660.18 31.5818 659.756 32.7056 660.216 34.5611C660.922 37.4544 663.711 40.8924 665.772 43.2641C668.128 45.9754 670.21 47.6734 671.979 48.4406C674.501 49.5582 676.06 49.1571 677.056 48.2914C677.939 47.524 678.725 46.2343 678.034 43.8842L678.035 43.8736Z" fill="black"/>
<path d="M686.368 41.2416C685.882 41.6646 685.391 42.1406 684.991 42.5378C684.586 42.9399 684.271 43.2634 684.157 43.3618C684.016 43.4847 683.931 43.5585 683.698 43.4625C683.441 43.3382 683.396 43.2287 683.41 42.9585C683.659 40.5361 684.264 36.1559 684.41 31.7169C684.556 27.278 683.961 23.9406 681.716 21.5295C679.423 19.0618 676.564 18.8933 674.534 20.7072C672.131 22.8458 672.857 25.5226 673.113 26.8004C673.172 27.0969 673.112 27.199 672.891 27.2419L672.341 27.4214C672.207 27.4386 672.105 27.3783 671.992 27.0195C671.482 25.506 670.13 21.1269 673.985 17.777C676.385 15.6914 680.695 15.4034 683.498 18.6297C685.609 21.058 686.421 23.9588 686.36 29.0682C686.352 32.9799 685.54 36.5962 685.253 38.8033L691.049 33.7662C692.991 32.079 692.566 30.0931 692.275 28.4886C692.195 28.1109 692.255 28.0089 692.667 27.8995C692.992 27.8159 693.209 27.8259 693.242 28.1046L695.257 34.1727C695.391 34.6127 695.618 34.4159 695.102 34.8636C694.848 35.0849 694.823 35.0566 694.483 34.9052C693.988 34.6792 693.42 35.1231 692.566 35.8659L686.373 41.2473L686.368 41.2416Z" fill="black"/>
<path d="M689.771 16.7357C690.435 16.0593 692.52 14.5948 693.296 14.2186C696.737 12.5301 700.075 13.1361 702.308 15.7059C705.883 19.7625 705.15 25.6646 701.267 29.0391C699.156 30.8738 696.891 31.4912 696.173 30.6648C695.824 30.2629 695.783 29.7019 696.157 29.3773C696.672 28.9296 697.428 28.8285 698.08 28.7094C698.731 28.5903 699.95 28.0378 700.805 27.295C703.03 25.3619 703.622 21.5389 701.438 19.0257C699.701 17.0276 697.682 16.0303 695.127 16.8399C692.992 17.493 691.566 18.7326 690.868 19.4385C690.723 19.6144 690.606 19.7657 690.303 19.8295C690.113 19.8959 690.011 19.8356 689.887 19.6355L683.922 10.6913C683.65 10.3214 683.608 10.159 683.982 9.83434L690.084 4.53167C691.086 3.661 690.917 2.95286 690.588 1.59021C690.525 1.34662 690.585 1.24453 690.81 1.14864C691.249 1.02527 691.415 0.930595 691.506 1.1496L692.955 4.89766C693.155 5.52831 693.107 5.76942 692.224 6.53678L686.286 11.6968L689.765 16.7406L689.771 16.7357Z" fill="black"/>
</svg>
