<?xml version="1.0" encoding="UTF-8"?>
<svg id="_レイヤー_2" data-name="レイヤー 2" xmlns="http://www.w3.org/2000/svg" viewBox="0 0 1110.69 60.06">
  <defs>
    <style>
      .cls-1 {
        fill: #231815;
      }
    </style>
  </defs>
  <g id="_レイヤー_1-2" data-name="レイヤー 1">
    <g>
      <path class="cls-1" d="M35.14,39.39c6.07,5.94,13.05,10.21,23.38,13.24.19.07.19.13.19.2s-.06.13-.13.19c-1.1,1.23-2.52,2.91-3.62,4.33-.13.19-.32.19-.52.13-8.78-3.36-15.89-7.95-22.41-15.24-.13-.13-.26-.06-.26.13.13,6.26.32,11.69.65,17.37,0,.19-.13.33-.32.33h-5.36c-.19,0-.32-.13-.32-.33.32-5.62.52-11.04.65-17.24,0-.19-.06-.26-.26-.06-6.46,6.84-12.66,10.91-22.74,15.18-.26.13-.39.06-.52-.13-.84-1.23-2.13-2.65-3.42-3.81C.06,53.6,0,53.54,0,53.47s0-.13.19-.19c10.08-3.23,17.05-7.88,23.06-13.88.13-.13.13-.26-.06-.26-4.71.07-9.11.13-13.31.26-.19,0-.32-.13-.32-.33.13-3.61.13-6.84.13-11.1,0-3.62,0-6.79-.13-10.07,0-.26.13-.33.32-.33,5.1.13,10.72.13,16.73.13.26,0,.32-.13.32-.33v-3.69c0-.19-.06-.32-.32-.32-10.79,0-17.83.13-24.28.51-.2,0-.32-.13-.32-.32v-4.71c0-.19.13-.32.32-.32,6.46.45,13.5.58,24.22.58.26,0,.39-.13.32-.32-.06-2.65-.26-4.52-.84-6.52-.06-.26.06-.33.26-.33,2.13.06,4.46.26,6.01.45,1.03.13,1.16.78.45,1.55-.71.78-.9,1.81-.9,4.85,0,.19.13.32.32.32,11.17,0,18.02-.13,24.74-.58.26,0,.32.13.32.32v4.71c0,.19-.06.32-.32.32-6.65-.39-13.63-.51-24.74-.51-.19,0-.32.13-.32.32v3.69c0,.19.13.33.32.33,6.26,0,11.88,0,17.05-.13.26,0,.32.13.32.33-.13,3.28-.13,6.39-.13,9.94,0,4.32,0,7.62.13,11.23,0,.2-.06.33-.32.33-3.68-.13-8.66-.19-14.02-.26-.13,0-.26.07-.06.26ZM26.61,26.42c.2,0,.32-.13.32-.33v-3.95c0-.19-.13-.32-.32-.32h-11.69c-.2,0-.32.13-.32.32v3.95c0,.2.13.33.32.33h11.69ZM26.93,30.74c0-.2-.13-.33-.32-.33h-11.69c-.2,0-.32.13-.32.33v4.14c0,.19.13.32.32.32h11.69c.2,0,.32-.13.32-.32v-4.14ZM44.05,26.42c.19,0,.32-.13.32-.33v-3.95c0-.19-.13-.32-.32-.32h-11.88c-.19,0-.32.13-.32.32v3.95c0,.2.13.33.32.33h11.88ZM32.17,30.41c-.19,0-.32.13-.32.33v4.14c0,.19.13.32.32.32h11.88c.19,0,.32-.13.32-.32v-4.14c0-.2-.13-.33-.32-.33h-11.88Z"/>
      <path class="cls-1" d="M88.74,45.02c-1.03.19-1.74.78-2.84,1.94-3.04,3.16-8.27,7.04-13.11,9.37-.26.13-.45,0-.58-.13-1.16-1.16-2.2-2.2-3.55-3.23-.06-.06-.13-.13-.13-.2s.13-.13.58-.32c4.91-2.13,9.75-5.23,12.47-8.2.97-1.03,1.87-2.2,2.45-3.42.13-.26.2-.32.52-.19,1.49.77,3.36,1.8,4.39,2.58,1.03.78.77,1.62-.2,1.81ZM124.27,10.4v4.84c0,.2-.07.33-.32.33-6.72-.45-11.76-.52-26.16-.52-14.28,0-19.38.13-26.16.52-.19,0-.32-.13-.32-.33v-4.84c0-.19.13-.33.32-.33,6.2.39,11.05.52,22.86.52.26,0,.32-.13.32-.32v-2.33c0-2.07-.19-3.94-.52-5.49-.06-.26.06-.32.26-.32,2.13.19,4.52.45,6.01.71,1.23.2,1.36.97.52,1.68-.71.58-.71,1.75-.71,3.16v2.59c0,.19.13.32.32.32,12.21,0,16.99-.13,23.25-.52.26,0,.32.13.32.33ZM100.56,37.53v7.62c0,2.71.06,5.42.06,7.49,0,5.17-3.1,6.26-10.98,6.78-.19,0-.39-.13-.45-.33-.65-1.8-1.35-3.55-2.32-5.36-.06-.13,0-.26.19-.26,1.16.06,2.78.13,4.26.13,3.3,0,3.81-.97,3.81-4.07v-12.01c0-.19-.07-.33-.32-.33-5.04,0-9.88,0-14.34.2-.19,0-.32-.13-.32-.33.19-3.1.26-5.81.26-8.91,0-2.71-.06-4.97-.19-8.01,0-.26.13-.32.32-.32,5.23.19,10.85.19,16.73.19,6.2,0,11.75,0,17.05-.19.26,0,.32.13.32.32-.13,3.04-.19,5.36-.19,8.01,0,3.1.06,5.81.19,8.91,0,.2-.06.33-.32.33-4.33-.13-8.65-.2-13.43-.2-.2,0-.32.13-.32.33ZM109.15,24.8c0-.2-.13-.33-.32-.33h-22.86c-.19,0-.32.13-.32.33v7.75c0,.19.13.32.32.32h22.86c.19,0,.32-.13.32-.32v-7.75ZM105.67,43.27l3.75-2.58c.19-.13.32-.06.45.06,3.49,4.07,8.72,8.27,15.31,11.04.39.13.45.2.45.26s0,.13-.06.19c-1.29,1.1-2.52,2.32-3.81,3.81-.13.13-.26.26-.52.13-5.88-2.97-11.82-7.95-15.63-12.47-.13-.13-.13-.33.06-.45Z"/>
      <path class="cls-1" d="M194.99,52.83c.13,0,.2.07.2.13s0,.19-.07.32c-.58,1.35-1.1,3.1-1.55,4.85-.06.26-.13.32-.39.32-4.97.06-10.59.13-17.44.13-15.31,0-23.64-.71-28.55-8.07-.13-.19-.32-.13-.45,0-1.29,1.29-2.97,2.97-4.07,4.01-.97.97-1.36,1.55-1.75,2.32-.32.71-.58,1.03-.97,1.03s-.77-.32-1.23-1.03c-.9-1.35-1.42-2.2-2.52-4.07-.13-.19-.19-.32-.19-.39s.06-.13.19-.19c.9-.26,1.87-.65,2.84-1.29,1.68-1.1,3.87-3.04,5.55-5.04.2-.26.26-.45.26-.71v-15.11c0-.2-.06-.33-.32-.33-3.81,0-6.39.06-8.14.19-.2,0-.32-.13-.32-.32v-4.33c0-.19.13-.32.32-.32,2.2.13,4.46.19,6.78.19,2.45,0,4.33,0,6.33-.13.26,0,.32.06.32.32-.06,1.87-.13,3.88-.13,5.75v12.85c0,8.33,9.24,10.01,22.54,10.01,10.14,0,14.92-.26,22.74-1.1ZM151.26,10.78l-3.29,3.29c-.2.19-.32.13-.45,0-2.2-2.39-5.36-5.49-7.69-7.3-.19-.13-.19-.26,0-.45l2.91-2.71c.19-.19.32-.19.52-.06,2.58,1.68,5.81,4.52,8.01,6.72.13.13.19.32,0,.51ZM170.64,15.95c0-.19-.13-.32-.32-.32h-9.62c-.26,0-.32,0-.45.19-1.16,1.81-2.39,3.61-3.68,5.17-.13.13-.26.19-.45.06-1.35-.9-2.45-1.48-3.87-2.2-.13-.06-.19-.19-.06-.32,3.23-3.49,5.68-7.17,7.49-11.11.58-1.29.97-2.46,1.16-3.68.07-.26.2-.32.39-.26,1.55.45,3.36,1.16,4.59,1.75,1.1.58.97,1.16.06,1.61-.77.39-1.03.78-1.81,2.26l-1.1,2.07c-.13.26,0,.33.19.33h7.17c.19,0,.32-.13.32-.33v-1.87c0-2.71-.19-5.1-.58-6.66-.06-.26.06-.32.26-.32,2,.13,4.07.39,5.55.71,1.1.26,1.36.77.52,1.61-.71.71-.77,1.68-.77,4.65v1.87c0,.2.13.33.32.33,4.13-.06,9.56-.19,13.56-.39.26,0,.32.13.32.33v4.26c0,.19-.06.32-.32.32-4.01-.19-9.43-.32-13.56-.39-.2,0-.32.13-.32.32v6.46c0,.19.13.33.32.33,7.68,0,12.79-.13,17.63-.45.26,0,.32.13.32.32v4.52c0,.19-.06.32-.32.32-5.42-.32-11.04-.45-20.41-.45-9.56,0-14.73.13-20.09.45-.2,0-.32-.13-.32-.32v-4.52c0-.19.13-.32.32-.32,4.84.32,9.49.45,17.24.45.26,0,.32-.13.32-.33v-6.46ZM188.14,50.38h-4.46c-.19,0-.32-.13-.32-.32v-2.2c0-.2-.13-.33-.32-.33h-19.64c-.19,0-.32.13-.32.33v2.2c0,.19-.13.32-.32.32h-4.33c-.19,0-.32-.13-.32-.32.13-2.84.2-7.56.2-10.33,0-2.32,0-5.17-.13-7.69,0-.19.13-.32.32-.32,4.26.19,8.2.19,14.47.19,6.72,0,10.85,0,15.11-.19.26,0,.32.13.32.32-.13,2.52-.13,5.36-.13,7.69,0,2.78,0,7.49.2,10.33,0,.19-.13.32-.32.32ZM163.41,36.17c-.19,0-.32.13-.32.33v6.26c0,.19.13.32.32.32h19.64c.2,0,.32-.13.32-.32v-6.26c0-.19-.13-.33-.32-.33h-19.64Z"/>
      <path class="cls-1" d="M230.84,29.96v9.88c0,5.49.19,12.27.52,18.15,0,.2-.13.33-.32.33h-5.42c-.2,0-.32-.13-.32-.33.39-5.87.52-12.66.52-18.15v-9.95c0-.19-.06-.32-.32-.32h-6.26c-.19,0-.32.06-.32.32-.2,10.85-2.39,19.7-9.24,27.06-.13.13-.32.2-.45.06-1.29-1.23-2.71-2.13-4.07-2.97-.13-.06-.13-.13-.13-.2,0-.06.06-.13.13-.19,6.2-6.07,8.59-12.98,8.78-23.7,0-.26-.06-.32-.32-.32-3.17.06-5.81.13-8.07.32-.19,0-.32-.13-.32-.32v-4.65c0-.19.13-.33.32-.33,2.26.2,4.91.26,8.07.33.26,0,.32-.06.32-.33v-12.66c0-.19-.06-.32-.32-.32-2.46.06-4.59.13-6.46.32-.19,0-.32-.13-.32-.32v-4.39c0-.19.13-.33.32-.33,3.75.26,8.78.39,15.44.39,6.78,0,11.3-.13,15.05-.39.26,0,.32.13.32.33v4.39c0,.19-.06.32-.32.32-1.87-.19-4.01-.26-6.46-.32-.19,0-.32.13-.32.32v12.66c0,.2.13.33.32.33,2.52-.06,4.71-.13,6.59-.33.26,0,.32.13.32.33v4.65c0,.19-.07.32-.32.32-1.87-.19-4.07-.26-6.59-.32-.19,0-.32.13-.32.32ZM225.8,24.73v-12.79c0-.19-.06-.32-.32-.32h-6.26c-.19,0-.32.13-.32.32v12.79c0,.2.13.33.32.33h6.26c.26,0,.32-.13.32-.33ZM262.87,40.04c0,.45-.32.78-.97.84-.84.13-1.81.78-2.84,2-4.59,5.55-12.08,11.95-19.05,15.76-.06.06-.19.13-.26.13s-.2,0-.32-.19c-1.1-1.35-2.07-2.39-3.36-3.55-.13-.13-.26-.26,0-.39,7.75-3.42,14.98-9.56,19.57-15.63.71-.97,1.42-2.13,2-3.23.13-.26.26-.32.45-.19,1.49,1.1,2.91,2.26,4.26,3.49.39.39.52.71.52.97ZM256.35,18.92c.06-.13.19-.19.39-.06,1.42,1.1,2.84,2.26,4.2,3.49.84.84.58,1.62-.52,1.81-.84.13-1.62.58-2.97,2.07-3.88,4.2-10.21,9.75-17.31,13.69-.13.06-.32.06-.45-.13-1.1-1.42-2.13-2.45-3.36-3.62-.13-.13-.26-.26,0-.39,7.88-3.61,13.82-8.65,17.83-13.56.77-.9,1.61-2.13,2.2-3.29ZM240.72,22.74c-1.16-1.3-2.33-2.26-3.62-3.3-.26-.19-.2-.32-.06-.39,6.26-3.42,11.04-7.75,14.53-12.85.58-.97,1.23-2.13,1.68-3.16.06-.13.13-.2.26-.2.06,0,.13,0,.2.06,1.48.9,2.91,1.87,4.33,2.97,1.1.84.71,1.62-.32,1.87-.84.13-1.55.65-2.52,1.94-3.29,4.33-7.94,9.04-14.01,13.05-.2.13-.32.13-.45,0Z"/>
      <path class="cls-1" d="M303.82,24.15c3.68,13.82,12.59,23.38,25.71,28.61.19.06.26.13.26.2s0,.13-.07.19c-1.42,1.23-3.03,2.97-4.2,4.39-.13.19-.19.26-.32.26-.06,0-.13,0-.52-.19-10.72-5.36-18.86-13.63-23.38-25.77-.13-.32-.32-.32-.39-.06-3.16,11.69-10.4,19.7-23.25,25.9-.26.13-.32.13-.39.13s-.13,0-.26-.19c-.97-1.35-2.58-2.91-3.94-4.01-.07-.06-.13-.13-.13-.19,0-.13.06-.19.26-.26,14.92-6.01,22.28-15.05,24.09-28.94,0-.32-.06-.39-.32-.39-9.95,0-16.6.19-23.25.58-.2,0-.32-.13-.32-.32v-5.23c0-.19.13-.32.32-.32,6.72.39,13.5.58,23.64.58.26,0,.39-.13.39-.32v-1.94c0-7.68-.32-10.46-.78-12.92-.06-.19.07-.26.26-.26,1.81.06,4.91.33,6.52.65.97.19,1.23.9.45,1.61-.9.78-1.03,2-1.03,7.69,0,2,0,3.68-.06,5.17,0,.19.13.32.32.32,10.66,0,17.63-.13,24.61-.58.26,0,.32.13.32.32v5.23c0,.19-.06.32-.32.32-6.85-.39-13.69-.58-24.03-.58-.13,0-.26.06-.19.32Z"/>
      <path class="cls-1" d="M397.28,38.56v4.71c0,.19-.06.33-.32.33-6.01-.33-11.24-.45-22.35-.52-.19,0-.32.13-.32.32.26,1.62.39,3.36.39,5.23,0,7.23-2.58,10.79-9.82,10.79-1.03,0-2.33,0-3.3-.06-.19,0-.32-.13-.39-.39-.39-1.55-.97-3.1-1.81-4.65-.06-.13-.06-.32.19-.26,1.75.26,3.62.39,5.1.39,3.3,0,4.71-1.42,4.71-5.94,0-1.94-.13-3.61-.32-5.1-.06-.26-.2-.32-.45-.32-14.53,0-20.93.13-27.84.52-.19,0-.32-.13-.32-.33v-4.71c0-.19.13-.33.32-.33,6.65.52,12.85.58,26.35.58.26,0,.32-.06.19-.32-1.1-1.87-2.91-3.49-5.36-5.1-.19-.13-.26-.26,0-.45l3.1-2.52c.19-.13.32-.13.52,0,1.49.9,2.71,1.94,3.81,2.97.13.13.32.19.52.06,2.71-1.81,5.49-3.88,7.62-5.75.19-.19.06-.32-.06-.32h-3.81c-10.46,0-16.53.06-22.41.45-.19,0-.32-.13-.32-.32v-4.39c0-.19.13-.32.32-.32,5.88.45,12.01.45,26.55.45,2.78,0,3.04-.13,3.88-.71.77-.45,1.23-.45,2,.26.77.58,2.07,1.8,2.71,2.45.9.97.58,1.62-.45,2-1.03.32-1.68.71-3.04,1.81-2.84,2.2-6.78,5.23-10.46,7.68-.19.13-.26.26-.13.52.26.45.45.9.65,1.29.13.26.26.26.45.26,11.95,0,17.37-.13,23.57-.58.26,0,.32.13.32.33ZM347.22,18.47c-.2,0-.32.13-.32.33v8.4c0,.19-.13.32-.32.32h-4.78c-.19,0-.32-.13-.32-.32.26-2.91.32-4.85.32-7.17,0-1.62,0-3.49-.13-5.69,0-.26.13-.32.32-.32,5.75.19,12.79.26,26.74.26h6.85c.26,0,.39-.06.52-.26,1.94-2.65,3.75-5.62,5.1-8.2.71-1.35,1.03-2.26,1.36-3.49.06-.19.13-.19.19-.19s.19.06.32.13c1.68.78,3.49,1.68,4.91,2.52,1.03.58.9,1.42-.06,1.68-.9.19-1.49.84-2.33,2.13-.97,1.55-2.39,3.49-3.75,5.36-.13.19,0,.32.13.32,5.94-.06,9.95-.13,13.5-.26.26,0,.32.13.32.32-.06,2.14-.06,4.07-.06,5.69,0,2.32.06,4.26.26,7.17,0,.19-.13.32-.32.32h-4.78c-.2,0-.32-.13-.32-.32v-8.4c0-.19-.13-.33-.32-.33h-43.01ZM357.62,11.37l-4.07,2.45c-.13.06-.32.13-.45-.06-1.36-2.52-3.29-5.42-5.1-7.68-.13-.2-.06-.33.13-.45l3.55-2.26c.13-.06.26-.06.39.06,1.87,2.2,3.87,4.72,5.56,7.49.13.19.19.32,0,.45ZM371.51,10.91l-4.46,1.81c-.2.06-.39,0-.45-.19-.9-2.84-1.94-5.42-3.36-8.14-.13-.26-.06-.39.2-.52l3.62-1.55c.32-.13.39-.13.45-.13s.19,0,.26.13c1.49,2.58,2.78,5.3,3.94,8.14.06.19,0,.39-.2.45Z"/>
      <path class="cls-1" d="M462.19,23.12c-.07.26-.13.32-.39.32-4.2-.26-9.69-.45-15.57-.51-.19,0-.32.06-.32.26.06,5.94.26,13.95.52,23.25.2,7.23-1.68,9.24-12.85,9.56-.2,0-.32-.06-.39-.32-.32-1.61-.97-3.61-1.81-5.23-.13-.26-.06-.39.2-.39,8.01.06,9.11-.39,9.11-4.91,0-3.49-.06-10.72-.13-17.89,0-.26-.13-.26-.26-.06-5.81,8.97-15.31,15.95-24.22,20.41-.13.06-.32.06-.45-.13-.97-1.42-2.2-2.58-3.81-4.01-.06-.06-.13-.13-.13-.19s.06-.13.19-.19c10.59-4.65,18.99-11.3,24.74-19.89.13-.19.07-.32-.19-.32-8.52.06-17.12.32-22.28.58-.19,0-.32-.06-.39-.32-.13-.78-.13-1.62-.13-2.65,0-1.1,0-2,.13-2.71.07-.26.2-.33.39-.33,5.94.45,16.34.65,25.96.65.19,0,.26-.13.26-.32-.07-3.81-.13-6.98-.26-8.72-.06-1.23-.32-2.52-.65-3.68-.06-.19.06-.26.26-.26,1.36,0,4.39.19,6.01.45,1.29.19,1.49.78.9,1.81-.65,1.1-.84,2.2-.84,5.42,0,.9,0,2.58.06,4.91,0,.32.13.39.32.39,5.94-.06,11.5-.26,15.63-.65.26,0,.32.07.39.33.06.78.13,1.61.13,2.71,0,.97-.06,1.87-.13,2.65Z"/>
      <path class="cls-1" d="M474.01,33.46c-.06-.9-.13-1.87-.13-2.84,0-1.1.06-2.13.13-3.04.06-.26.13-.32.32-.32,6.52.39,14.92.39,24.22.39,9.43,0,18.02-.06,24.41-.39.26,0,.26.06.32.32.06.84.13,1.81.13,2.78,0,1.16-.06,2.26-.13,3.1-.07.26-.07.32-.32.32-6.39-.32-14.86-.39-24.41-.39-9.11,0-17.37,0-24.22.39-.2,0-.26-.06-.32-.32Z"/>
      <path class="cls-1" d="M575.35,16.4c0,.33-.19.65-.78,1.23-.9.9-1.35,1.68-2.52,4.58-3.17,7.88-11.05,24.35-31.39,33.58-.13.06-.26.13-.32.13-.13,0-.2-.06-.32-.19-1.23-1.29-3.23-3.04-4.78-4.01-.2-.13-.13-.26.06-.32,16.08-6.07,26.09-18.21,31.2-32.49.06-.19,0-.32-.26-.32-7.3,0-12.66.06-20.99.19-6.07.06-10.14.26-13.76.51-.2,0-.32-.06-.39-.32-.13-.9-.13-1.94-.13-3.04,0-1.16,0-2.2.13-3.1.06-.26.19-.32.39-.32,4.07.32,7.68.45,13.76.51,7.04.06,12.85.06,18.92.06,2.97,0,3.55-.06,4.26-.51.52-.33.9-.52,1.16-.52.32,0,.71.13,1.29.52,1.36.9,2.91,2,3.94,2.91.32.32.52.58.52.9ZM571.54,7.04c0-3.94,2.97-7.04,6.97-7.04,4.01,0,7.04,3.04,7.04,6.97,0,4.01-2.97,7.04-7.04,7.04-3.94,0-6.97-3.04-6.97-6.98ZM582.13,7.04c0-2.07-1.55-3.61-3.62-3.61-2.07,0-3.62,1.55-3.62,3.61,0,2.07,1.55,3.62,3.62,3.62s3.62-1.55,3.62-3.62Z"/>
      <path class="cls-1" d="M598.8,10.72c.06,0,.19.06.39.19,3.68,2.39,8.85,6.72,12.08,9.88.13.13.13.32,0,.45-1.29,1.49-2.97,3.1-4.52,4.46-.13.13-.32.06-.45-.06-3.36-3.87-8.2-8.07-11.82-10.53-.13-.13-.13-.19-.13-.26s0-.13.39-.58c.9-1.03,2.52-2.52,3.75-3.42.2-.13.26-.13.32-.13ZM594.34,47.34c0-.06,0-.13.2-.19,2.2-.32,4.13-.97,7.17-2.2,11.37-4.33,27.06-15.12,36.75-26.35.2-.26.32-.2.39.06.52,1.87,1.42,4.2,2.13,5.75.06.13.13.26.13.32,0,.13-.06.2-.19.33-11.3,11.88-23.38,19.64-37.27,26.54-2.07,1.03-2.45,1.3-2.97,2-.45.65-.78.84-1.16.84-.26,0-.52-.13-.84-.51-1.1-1.36-3.16-4.4-4.13-6.14-.2-.33-.2-.39-.2-.45Z"/>
      <path class="cls-1" d="M700.26,29c.32,1.42.58,3.16.58,4.78v.58c0,.19-.06.32-.32.32-4.07.19-11.88.9-20.48,1.75-.26.06-.32.13-.26.45.77,5.94,1.87,12.79,2.97,18.92.06.26,0,.33-.26.39-1.68.39-4.07.71-5.68.84-.19,0-.32,0-.39-.32-.58-6.91-1.36-13.43-2.07-19.37-.07-.2-.13-.26-.39-.26-9.37.97-17.63,2-21.64,2.71-.26.06-.32,0-.39-.26-.32-1.68-.58-3.88-.58-5.36,0-.26.13-.33.32-.33,4.13-.19,12.4-.84,21.57-1.81.32-.06.32-.13.32-.39-.39-3.1-.9-6.39-1.36-9.62-.06-.26-.13-.26-.39-.26-6.33.64-11.88,1.23-15.63,1.87-.26.06-.32,0-.39-.26-.39-1.75-.65-3.61-.65-5.3,0-.26.13-.32.32-.32,4.07-.06,9.56-.52,15.57-1.1.26,0,.32-.13.32-.39-.39-2.65-.78-4.84-.97-6-.32-1.75-.77-3.62-1.49-5.04-.06-.13,0-.33.2-.33,1.94-.19,4.52-.32,5.62-.32,1.87,0,2.07.39,1.75,1.35-.39,1.17-.39,2-.13,4.65.07.78.32,2.78.58,5.04.06.39.13.39.39.39,6.85-.71,11.95-1.35,16.34-2.2.26-.06.32,0,.39.26.39,1.55.58,3.56.58,5.3,0,.2-.07.33-.32.33-3.75.19-9.88.71-16.34,1.42-.2.06-.26.13-.26.32.39,3.16.84,6.53,1.29,9.69.06.26.19.32.39.32,8.66-.97,16.41-2,20.48-2.71.26-.06.32,0,.39.26Z"/>
      <path class="cls-1" d="M754.97,26.09c0,.26-.2.58-.58.97-.52.51-.84.77-1.55,2-2.58,4.39-6.01,9.1-9.5,12.92-.13.13-.26.19-.52,0-1.1-.71-2.52-1.48-4-2-.2-.06-.2-.26-.06-.39,2.91-2.91,5.55-6.33,8.01-10.4.06-.13.06-.33-.13-.26-4.46.9-9.95,2-15.37,3.1-.26.07-.32.13-.26.39,1.81,9.24,3.55,17.05,4.97,23.31.06.26,0,.33-.19.39-1.23.45-4.39,1.1-5.04,1.1-.13,0-.19,0-.26-.26-.9-5.87-2.52-14.53-4.33-23.64-.06-.19-.13-.26-.39-.19-3.36.64-6.01,1.29-7.75,1.68-2.2.45-3.81.84-5.17,1.29-.2.06-.32.06-.45-.19-.39-1.23-1.16-4.2-1.16-5.23,0-.19.06-.32.26-.32,1.94-.13,3.75-.39,6.01-.78,1.94-.32,4.13-.71,7.3-1.29.26-.06.32-.13.26-.39-.77-3.62-1.29-5.94-1.94-8.14-.26-.84-.52-1.62-.9-2.52-.06-.19-.06-.32.13-.39,2-.32,4.91-.65,5.75-.65.84,0,1.1.39.9,1.23-.2.84-.26,1.49-.06,3.04.13,1.23.52,3.43,1.1,6.46.06.26.13.39.39.32,6.07-1.23,12.59-2.45,15.31-3.04,2-.45,2.58-.71,3.1-1.23.39-.39.58-.45.9-.45.26,0,.52.13.9.33,1.16.58,2.58,1.48,3.55,2.2.52.39.78.64.78,1.03Z"/>
      <path class="cls-1" d="M771.5,10.72c.06,0,.19.06.39.19,3.68,2.39,8.85,6.72,12.08,9.88.13.13.13.32,0,.45-1.29,1.49-2.97,3.1-4.52,4.46-.13.13-.32.06-.45-.06-3.36-3.87-8.2-8.07-11.82-10.53-.13-.13-.13-.19-.13-.26s0-.13.39-.58c.9-1.03,2.52-2.52,3.75-3.42.2-.13.26-.13.32-.13ZM767.05,47.34c0-.06,0-.13.2-.19,2.2-.32,4.13-.97,7.17-2.2,11.37-4.33,27.06-15.12,36.75-26.35.2-.26.32-.2.39.06.52,1.87,1.42,4.2,2.13,5.75.06.13.13.26.13.32,0,.13-.06.2-.19.33-11.3,11.88-23.38,19.64-37.27,26.54-2.07,1.03-2.45,1.3-2.97,2-.45.65-.78.84-1.16.84-.26,0-.52-.13-.84-.51-1.1-1.36-3.16-4.4-4.13-6.14-.2-.33-.2-.39-.2-.45Z"/>
      <path class="cls-1" d="M837.06,18.47c.06,0,.32.07.78.2,1.55.45,4.2,1.29,5.75,2.07,1.29.64,1.29,1.29.39,2.07-.77.64-1.29,1.23-2,2.9-2.84,6.66-7.95,16.09-15.31,23.13-.06.06-.13.13-.26.13-.06,0-.13,0-.65-.39-1.03-.84-2.71-1.94-4.33-2.77-.13-.06-.13-.13-.13-.19,0-.07.06-.13.13-.2,6.78-6.39,12.47-15.24,14.73-22.67.45-1.42.71-2.78.71-4.01,0-.19.06-.26.19-.26ZM857.79,20.73c1.55-.9,3.04-1.62,4.52-2.2.13-.07.32-.13.39-.13.13,0,.2.06.32.2,6.01,7.62,11.5,16.53,15.76,25.12.06.13.13.26.13.32,0,.13-.07.19-.26.32-1.42,1.03-3.81,2.26-5.56,2.91-.19.06-.39,0-.45-.13-4.2-9.69-9.69-18.86-14.98-25.96-.13-.19-.06-.32.13-.45ZM865.61,11.69c0-3.94,2.97-7.04,6.97-7.04,4.01,0,7.04,3.04,7.04,6.98,0,4.01-2.97,7.04-7.04,7.04-3.94,0-6.97-3.04-6.97-6.98ZM876.2,11.69c0-2.07-1.55-3.62-3.62-3.62-2.07,0-3.62,1.55-3.62,3.62,0,2.07,1.55,3.61,3.62,3.61,2.07,0,3.62-1.55,3.62-3.61Z"/>
      <path class="cls-1" d="M920.7,32.03c6.2,5.1,12.08,10.73,16.86,16.28.06.06.13.13.13.26,0,.06-.07.13-.13.2-1.42,1.35-3.29,2.77-5.04,3.74-.13.06-.32.06-.45-.13-3.94-5.23-8.91-10.66-14.92-15.95-.19-.19-.32-.19-.52,0-5.36,6-12.79,11.69-22.86,16.66-.13.06-.26.13-.32.13-.13,0-.2-.06-.32-.19-1.1-1.16-2.97-2.78-4.52-3.81-.13-.06-.13-.13-.13-.19s.06-.13.26-.19c16.02-6.46,27.13-17.44,33.33-31,.06-.19,0-.32-.2-.32h-7.43c-7.43,0-13.18.19-18.41.45-.2,0-.32-.06-.39-.32-.2-1.75-.2-4.13,0-5.75.06-.26.19-.32.39-.32,5.23.39,11.37.64,24.03.64,2.78,0,3.36-.06,4.33-.71.39-.26.78-.39,1.1-.39s.71.13,1.23.52c1.23.9,2.91,2.2,3.81,3.04.97.9.9,1.29-.2,2.13-1.03.84-1.55,1.48-3.16,4.46-1.74,3.36-3.81,6.78-6.46,10.27-.13.19-.19.32,0,.51Z"/>
      <path class="cls-1" d="M952.14,56.77v-5.84c6.31-5.64,19.34-17.32,22.83-24.7.81-1.81,1.28-3.56,1.28-5.57,0-5.24-3.42-8.52-8.33-8.52-5.31,0-8.87,3.69-8.87,9.32h-6.38c.14-9.38,7.05-14.2,15.45-14.2,7.66,0,14.57,4.08,14.57,12.86,0,5.64-4.03,11.81-8.93,17.39-2.48,2.82-5.1,5.5-7.66,7.92-2.48,2.35-6.85,6.45-6.85,6.45h23.98s0,4.9,0,4.9h-31.1Z"/>
      <path class="cls-1" d="M1010.2,57.48c-13.61,0-16.23-14.63-16.23-25.83,0-10.93,3.63-24.42,16.57-24.42,13.14,0,16.16,13.55,16.16,24.62,0,11.14-3.16,25.63-16.5,25.63ZM1010.53,12c-9.38,0-10.25,13.28-10.25,20.53,0,6.84,1.01,20.06,9.85,20.06s10.25-12.81,10.25-19.99c0-6.97-.8-20.59-9.85-20.59Z"/>
      <path class="cls-1" d="M1036.52,56.77v-5.84c6.31-5.64,19.34-17.32,22.83-24.7.81-1.81,1.28-3.56,1.28-5.57,0-5.24-3.42-8.52-8.33-8.52-5.31,0-8.87,3.69-8.87,9.32h-6.38c.14-9.38,7.05-14.2,15.45-14.2,7.66,0,14.57,4.08,14.57,12.86,0,5.64-4.03,11.81-8.93,17.39-2.48,2.82-5.1,5.5-7.66,7.92-2.48,2.35-6.85,6.45-6.85,6.45h23.98s0,4.9,0,4.9h-31.1Z"/>
      <path class="cls-1" d="M1110.69,40.83c0,10.13-6.58,16.78-16.26,16.78-8.13,0-15.11-3.83-15.45-13.23h6.51c.2,5.37,4.03,8.47,8.88,8.47,6.64,0,9.93-5.63,9.93-12.07,0-6.03-2.95-11.4-9.26-11.4-4.22,0-7.98,2.68-8.92,7.17h-6.26s1.08-28.35,1.08-28.35h27.25s0,4.77,0,4.77h-21.46s-.81,16.68-.81,16.68c2.62-3.22,6.17-4.91,10.26-4.91,9.19,0,14.5,6.91,14.5,16.1h0Z"/>
    </g>
  </g>
</svg>