<?xml version="1.0" encoding="UTF-8"?>
<svg id="_レイヤー_2" data-name="レイヤー 2" xmlns="http://www.w3.org/2000/svg" viewBox="0 0 388.65 1168.74">
  <defs>
    <style>
      .cls-1 {
        fill: #231815;
      }
    </style>
  </defs>
  <g id="K100">
    <g>
      <path class="cls-1" d="M173.16,658.99c.12-.38,1.5-5.6,1.58-6.21.19-1.47-.08-1.98-1.44-2.87-.44-.29-1.34-.78-2.25-1.11-.24-.07-.29-.25-.23-.44l.42-1.19c.07-.24.3-.28.47-.17.78.4,4.73,1.61,5.45,1.83,1.69.52,4.06,1.03,5.1,1.24.24.07.31.2.3.41l-.18,1.1c-.03.26-.2.31-.55.25-.66-.1-1.85-.14-2.43-.16-1.1-.02-1.99.29-2.52,1.5-.93,2.19-1.95,5.52-2.19,6.29l2.99.91c2.6.8,7.31,2.13,8.28,2.43,2.52.72,3.86-.19,4.6-1.6.49-.91,1.06-2.26,1.43-3.47.25-.82.94-3.25,1.15-4.29.15-.85.27-3.13-.41-4.71-.3-.73-2.95-4.49-3.85-5.5-.2-.22-.35-.42-.11-.67l.67-.64c.22-.2.36-.15.7.11l6.31,4.72c.39.28.58.7.4,1.28-.07.24-.45,1.29-1.38,4.17-.88,2.89-2.36,7.56-4.66,15.08-.55,1.78-.91,3.15-1.21,4.11-.26,1.03-.4,1.67-.54,2.1-.09.29-.23.41-.47.33l-1.3-.4c-.19-.06-.2-.22-.09-.56l.59-1.93c.68-2.22.4-2.51-1.38-3.06l-16.16-4.94c-4-1.22-10.06-2.97-10.56-3.07-1.6-.28-2.09.1-2.63,1.88l-.53,1.74c-.07.24-.17.37-.46.28l-1.3-.4c-.14-.04-.21-.17-.14-.41.32-1.06.99-2.7,1.96-5.89l.65-2.12c1.46-4.77,2.87-9.56,4.33-14.34.24-.77.42-1.72.49-1.96s.2-.31.36-.31l8.52-.08c.21.01.35.05.39.28l.16.84c.05.17-.15.32-.26.34-.22.04-5.89,2.21-6.97,3.14-.98.81-1.98,1.98-2.42,3.27l-2.82,8.52,14.13,4.32Z"/>
      <path class="cls-1" d="M7.13,1152.22l-.37,1.21c-.47,1.54-1.75,5.74-1.75,7.8.01,2.38,2.94,4.86,4.28,6,.21.17.22.33.09.56l-.51.79c-.09.13-.19.26-.45.08-1.59-1.01-7.29-4.6-7.79-4.86-.6-.29-.68-.53-.62-.72.07-.24.17-.37.37-.52l.63-.49c.89-.68,1.18-1.11,1.66-2.5.88-2.53,1.69-4.49,3.08-9.03l.71-2.32c1.61-5.26,2.05-7.39,2.67-9.78.28-1.08.32-1.75.09-2.71l-.3-1.09c-.07-.29-.08-.45-.02-.64.07-.24.25-.29.9-.2.61.08,6.87.99,9.11,1.26.26.03.32.15.3.41l-.04.83c-.01.21-.07.24-.46.28-1.03.11-5.19.42-6.45,1.77-1.17,1.23-2.65,5.73-3.37,8.09l-.41,1.35,13.74,4.2c.68.21,14.18,4.33,15.01,4.54,1.24.27,2.08.11,2.43-1.05l.93-3.04c.13-.43.29-.44.63-.34l1.01.31c.24.07.37.17.24.6-.15.48-.76,1.98-2.21,6.71-1.42,4.63-1.89,6.7-2.1,7.37-.12.39-.32.37-.61.29l-.92-.28c-.34-.1-.47-.2-.38-.48l1-3.28c.29-.96-.11-1.72-.67-1.95-1.35-.57-16.16-5.1-17.08-5.38l-12.39-3.79Z"/>
      <path class="cls-1" d="M45.94,1132.55c-3.12,2.79-9.45,4.86-16.49,2.71-2.94-.9-7.29-3.07-10.64-8.16-3.86-5.82-3.37-10.89-2.13-14.94.93-3.04,2.76-6.8,7.11-9.64,4.12-2.59,9.79-4.23,16.44-2.2,3.52,1.08,6.85,3.31,9.46,6.85,3.01,4.14,4.59,9.31,2.55,15.97-.72,2.36-2.78,6.32-6.3,9.41ZM39.18,1105.17c-10.56-3.23-19.08,2.39-20.72,7.75-.22.72-1.8,3.83.52,8.49,2.1,4.17,6.48,7.26,10.44,8.46,12.68,3.88,19.87-3.58,21.12-7.68,3.24-10.61-7.06-15.71-11.35-17.02Z"/>
      <path class="cls-1" d="M38.92,1090.5c-.87-.27-10.32-3-10.7-3.11-.53-.16-1.23-.11-1.6,1.09l-.52,1.69c-.09.29-.21.36-.46.28l-1.25-.38c-.19-.06-.26-.18-.17-.47.18-.58.76-1.98,1.87-5.6.99-3.23,1.33-4.87,1.52-5.49.09-.29.21-.36.41-.3l1.25.38c.24.07.31.2.23.44l-.62,2.03c-.29.96-.08,1.45,1.08,1.81.72.22,8.2,2.67,10.56,3.39l2.41.74.27-.87c.24-.77.21-1.36-.07-2.18-.45-1.3-9.1-13.7-9.6-14.32-.54-.64-1.1-.55-1.29.08l-.21.68c-.06.19-.17.21-.41.14l-1.11-.34c-.24-.07-.31-.2-.25-.39.18-.58.93-2.51,1.61-4.73.43-1.4.8-3.13.97-3.71.07-.24.2-.31.34-.26l1.3.4c.24.07.29.25.22.49l-.31,1.01c-.21.68-.26,1.87.11,2.93.76,2.18,7.04,12.17,9.1,15.07l19.96-8.03c1.26-.51,1.88-1.85,2.24-3.01l.52-1.69c.07-.24.25-.29.44-.23l1.21.37c.24.07.31.2.22.49-.15.48-.85,2.27-1.96,5.89-1.22,4-1.65,5.93-1.86,6.6-.06.19-.19.26-.38.2l-1.25-.38c-.19-.06-.26-.18-.2-.38l.22-.72c.28-.92-.51-1.26-1.07-1.17-1.1.14-14.99,5.22-15.67,5.7-.86.58-1.15,1.18-1.37,1.9l-.28.92,3.47,1.06c2.41.74,9.53,2.81,10.22,2.97.64.14,1.21-.16,1.4-.78l.65-2.12c.07-.24.21-.36.41-.3l1.25.38c.19.06.32.15.25.39-.18.58-.76,1.98-1.81,5.41-1.16,3.81-1.49,5.4-1.62,5.83-.07.24-.2.31-.44.23l-1.25-.38c-.24-.07-.25-.23-.19-.43l.6-1.98c.27-.87-.02-1.32-.47-1.57-.42-.18-9.12-2.95-15.15-4.79l-2.8-.86Z"/>
      <path class="cls-1" d="M64.38,1048.77c1.88.57,5.06,1.39,5.6,1.5,1.59.33,1.95-.35,2.34-1.61l.57-1.88c.1-.34.25-.29.44-.23l1.11.34c.29.09.43.13.33.47-.18.58-.9,2.42-2.14,6.47-1.33,4.34-1.64,5.88-1.8,6.41-.06.19-.23.25-.47.17l-1.16-.35c-.19-.06-.32-.15-.23-.44l.72-2.36c.38-1.25.02-1.79-.69-2.06-.66-.25-4.44-1.52-8.93-2.89l-2.8-.86c-1.45.24-17.49,4.09-19.61,4.97-.92.41-1.69,1.38-1.92,2.15l-.37,1.21c-.09.29-.25.29-.44.23l-1.25-.38c-.19-.06-.27-.14-.19-.43.13-.43.97-2.66,1.87-5.6,1.52-4.97,1.9-6.75,2.05-7.23.09-.29.2-.31.34-.26l1.21.37c.24.07.42.18.33.47l-.49,1.59c-.44,1.45-.07,1.77,1.15,1.93.82.09,13.09-2.64,16.29-3.25-2.25-2.64-10.22-12.46-11.03-12.92-.76-.44-1.75-1.01-2.37,1.02l-.4,1.3c-.09.29-.25.29-.54.2l-1.16-.35c-.19-.06-.27-.14-.19-.43.15-.48.9-2.41,1.89-5.65.87-2.85,1.05-3.95,1.18-4.39.1-.34.21-.36.41-.3l1.16.35c.29.09.42.18.32.52l-.37,1.21c-.22.72-.18,1.63.34,2.69.62,1.24,10.47,13.7,12.57,16.34l6.32,1.93Z"/>
      <path class="cls-1" d="M77.34,1029.85c-3.12,2.79-9.45,4.86-16.49,2.71-2.94-.9-7.29-3.07-10.64-8.16-3.86-5.82-3.37-10.89-2.13-14.94.93-3.04,2.76-6.8,7.11-9.64,4.12-2.59,9.79-4.23,16.44-2.2,3.52,1.08,6.85,3.31,9.46,6.85,3.01,4.14,4.59,9.31,2.55,15.97-.72,2.36-2.78,6.32-6.3,9.41ZM70.58,1002.47c-10.56-3.23-19.08,2.39-20.72,7.75-.22.72-1.8,3.83.52,8.49,2.1,4.17,6.48,7.26,10.44,8.46,12.68,3.88,19.87-3.58,21.12-7.68,3.24-10.61-7.06-15.71-11.35-17.02Z"/>
      <path class="cls-1" d="M94.82,981.31c-.12.38-.28.92-.67.8-.29-.09-.66-.25-.83-.57-2.18-3.41-23.85-31.87-24.32-32.38l-4,13.07c-.21.67-.14,1.33.18,2.16.51,1.26,4.17,6.71,5.39,8.08.15.2.06.33-.08.45l-.48.54c-.14.12-.2.15-.46-.04l-7.75-5.69c-.39-.28-.43-.5-.35-.74.06-.19.23-.56.39-.93.98-2.18,3.06-8.98,4.29-12.98.53-1.74.96-3.5,1.45-5.25.43-1.77.9-3.47,1.42-5.16.24-.77.8-.71,1.26.02.78,1.24,23.28,31.32,24.49,32.69l5.19-16.98c-.56-2.12-4.45-8.06-5.07-8.93-.1-.19-.12-.3.04-.46l.59-.56c.14-.12.3-.12.46.04,1.01,1,6.11,5.19,7.3,5.97.31.2.41.55.34.79-.06.19-.27.55-.56,1.15-1.15,2.55-3.69,10.16-5.09,14.74l-3.11,10.18Z"/>
      <path class="cls-1" d="M104.62,940.64c-3.12,2.79-9.45,4.86-16.49,2.71-2.94-.9-7.29-3.07-10.64-8.16-3.86-5.82-3.37-10.89-2.13-14.94.93-3.04,2.76-6.8,7.11-9.64,4.12-2.59,9.78-4.23,16.44-2.2,3.52,1.08,6.85,3.31,9.46,6.85,3.01,4.14,4.59,9.31,2.55,15.97-.72,2.36-2.78,6.32-6.3,9.41ZM97.85,913.26c-10.56-3.23-19.08,2.39-20.72,7.75-.22.72-1.8,3.83.52,8.49,2.1,4.17,6.48,7.26,10.44,8.47,12.68,3.88,19.87-3.58,21.12-7.68,3.24-10.61-7.06-15.71-11.35-17.02Z"/>
      <path class="cls-1" d="M97.59,898.59c-.87-.27-10.32-3-10.7-3.11-.53-.16-1.23-.11-1.6,1.09l-.52,1.69c-.09.29-.21.36-.46.28l-1.25-.38c-.19-.06-.26-.19-.17-.47.18-.58.76-1.98,1.87-5.6.99-3.23,1.33-4.87,1.52-5.49.09-.29.21-.36.41-.3l1.25.38c.24.07.31.2.23.44l-.62,2.03c-.3.96-.08,1.45,1.08,1.81.72.22,8.2,2.67,10.57,3.39l2.41.74.27-.87c.24-.77.21-1.36-.07-2.18-.45-1.3-9.1-13.7-9.6-14.32-.54-.64-1.1-.55-1.29.08l-.21.67c-.06.19-.17.21-.41.14l-1.11-.34c-.24-.07-.31-.2-.25-.39.18-.58.93-2.51,1.61-4.73.43-1.4.8-3.13.98-3.71.07-.24.2-.31.34-.26l1.3.4c.24.07.29.25.22.49l-.31,1.01c-.21.67-.26,1.87.11,2.93.76,2.18,7.04,12.17,9.1,15.07l19.96-8.03c1.26-.51,1.88-1.85,2.24-3.01l.52-1.69c.07-.24.25-.29.44-.23l1.21.37c.24.07.31.2.22.49-.15.48-.85,2.27-1.96,5.89-1.22,4-1.65,5.93-1.86,6.6-.06.19-.19.26-.38.2l-1.25-.38c-.19-.06-.26-.18-.2-.38l.22-.72c.28-.92-.51-1.26-1.07-1.17-1.1.14-14.99,5.23-15.67,5.7-.86.58-1.15,1.18-1.37,1.9l-.28.92,3.47,1.06c2.41.74,9.53,2.81,10.22,2.97.64.14,1.21-.16,1.4-.79l.65-2.12c.07-.24.21-.36.41-.3l1.25.38c.19.06.32.15.25.39-.18.58-.76,1.98-1.81,5.41-1.16,3.81-1.49,5.4-1.62,5.83-.07.24-.2.31-.44.23l-1.25-.38c-.24-.07-.24-.23-.19-.43l.6-1.98c.27-.87-.02-1.32-.47-1.57-.42-.18-9.12-2.95-15.15-4.79l-2.8-.86Z"/>
      <path class="cls-1" d="M111.9,859.36c.12-.39,1.5-5.6,1.58-6.21.19-1.47-.08-1.98-1.44-2.87-.44-.29-1.34-.78-2.25-1.11-.24-.07-.29-.25-.23-.44l.42-1.19c.07-.24.3-.28.47-.17.78.4,4.73,1.6,5.45,1.83,1.69.52,4.06,1.03,5.1,1.24.24.07.31.2.3.41l-.18,1.11c-.03.26-.2.31-.55.25-.66-.1-1.85-.15-2.43-.16-1.1-.02-1.99.29-2.52,1.5-.93,2.19-1.95,5.52-2.19,6.29l2.99.91c2.6.8,7.31,2.13,8.28,2.42,2.52.72,3.86-.19,4.6-1.6.49-.91,1.06-2.26,1.43-3.47.25-.82.94-3.25,1.15-4.29.15-.85.27-3.13-.41-4.71-.3-.73-2.95-4.49-3.85-5.5-.2-.22-.35-.42-.11-.67l.67-.64c.22-.2.36-.15.7.11l6.31,4.72c.39.28.58.7.4,1.28-.07.24-.45,1.29-1.38,4.17-.88,2.89-2.36,7.56-4.66,15.08-.55,1.78-.91,3.15-1.21,4.11-.26,1.03-.4,1.67-.54,2.1-.09.29-.23.4-.47.33l-1.3-.4c-.19-.06-.2-.22-.09-.56l.59-1.93c.68-2.22.4-2.51-1.38-3.06l-16.16-4.94c-4-1.22-10.06-2.97-10.56-3.07-1.6-.28-2.09.1-2.63,1.88l-.53,1.74c-.07.24-.17.37-.46.28l-1.3-.4c-.14-.04-.21-.17-.14-.41.32-1.06.99-2.7,1.96-5.89l.65-2.12c1.46-4.77,2.87-9.56,4.33-14.34.24-.77.42-1.72.49-1.96s.2-.31.36-.31l8.52-.09c.21.01.35.05.39.28l.16.84c.05.17-.15.32-.26.34-.22.04-5.89,2.21-6.97,3.14-.98.81-1.98,1.98-2.42,3.27l-2.82,8.53,14.13,4.32Z"/>
      <path class="cls-1" d="M119.26,829.08c-1.16-.35-9.88-2.86-10.62-3.04-1.19-.26-1.82.08-2.38,1.91l-.86,2.8c-.07.24-.21.36-.41.3l-1.3-.4c-.19-.06-.24-.23-.19-.43.18-.58,1.07-2.99,2.45-7.48s1.64-5.88,1.84-6.55c.07-.24.25-.29.44-.23l1.21.37c.24.07.29.25.22.49l-.69,2.27c-.29.96-.13,1.81.83,2.1.48.15,11.1,3.55,11.67,3.73l3.71,1.14c.48.15,11.67,3.41,12.2,3.57,1.5.46,1.96-.19,2.43-1.74l.6-1.98c.07-.24.21-.36.45-.28l1.25.38c.19.06.25.23.16.52-.18.58-.91,2.46-2.19,6.66-1.4,4.58-1.89,6.7-2.05,7.23-.07.24-.21.36-.41.3l-1.3-.4c-.19-.06-.24-.23-.17-.47l.83-2.7c.29-.96.46-2.02-.74-2.6-.69-.32-11.07-3.65-13.62-4.43l-3.38-1.03Z"/>
      <path class="cls-1" d="M150.98,796.59c-2.3,2.88-4.94,3.92-8.22,3.76-2.35-.08-5.64-.88-11.96-2.81l-11.48-3.51c-1.69-.52-2.56-.41-3.02,1.08l-.69,2.27c-.09.29-.2.31-.54.2l-1.06-.32c-.29-.09-.37-.17-.25-.55.15-.48,1.02-2.8,2.17-6.56s1.71-6.12,1.87-6.65c.12-.39.23-.4.42-.34l1.25.38c.24.07.32.15.22.49l-.74,2.41c-.43,1.4.24,2.5,1.27,2.92.42.18,3.78,1.26,6.24,2.01l3.18.97c2.56.78,8.74,2.46,10.3,2.88,2.23.63,4.62.94,6.6.33,3.15-.99,4.96-3.81,5.82-6.61.84-2.75.78-5.83-.44-8.04-1.45-2.5-4.15-4.01-7.72-5.1l-10.32-3.16c-3.67-1.12-6.49-1.88-7.74-2.1-1.3-.24-2.4.27-2.79,1.52l-.65,2.12c-.09.29-.25.29-.49.22l-1.16-.35c-.24-.07-.32-.15-.23-.44.15-.48.97-2.66,1.96-5.89,1.02-3.33,1.34-4.91,1.48-5.35.13-.43.34-.42.49-.38l1.06.32c.29.09.47.2.39.44l-.6,1.98c-.55,1.78.76,2.34,1.29,2.66.45.24,7.3,2.34,7.98,2.54.68.21,9.09,2.88,10.92,3.6,3.87,1.5,6.58,3.49,8.07,6.9,1.19,2.47,1.4,5.76.12,9.95-.77,2.51-1.84,4.82-3,6.2Z"/>
      <path class="cls-1" d="M133.25,755.9c-2.84-.87-4.88.09-5.46,1.81l-.65,1.96c-.07.24-.28.23-.43.19l-1.25-.38c-.19-.06-.27-.14-.2-.38s.24-.61.46-1.34c.27-.71.64-1.75,1.14-3.39s.71-2.68.89-3.26c.19-.63.5-.95,1.05-1.21l16.21-6.12c.84-.32,13.31-5.42,15.21-6.11l.06-.19-5.74-1.75c-4.29-1.31-6.67-1.99-9.11-2.63-1.9-.53-6.7-1.73-7.6-1.69-1.32.02-2.28.73-2.69,2.08l-.47,1.54c-.06.19-.19.26-.43.19l-1.25-.38c-.19-.06-.26-.18-.2-.38.21-.67.82-2.17,1.77-5.26.88-2.89,1.09-4.1,1.28-4.72.1-.34.26-.34.46-.28l1.21.37c.19.06.31.2.25.39l-.4,1.3c-.4,1.3.27,2.04,2.08,2.69,3.17,1.18,7.95,2.64,11.08,3.6l18.04,5.51c.67.21,1.14.4,1.08.6-.18.58-.89.84-1.13.92l-9.23,3.61c-5.23,2.09-10.74,4.26-11.12,4.46-.64.38-14.5,5.85-14.97,6.02l-.09.29,10.71,3.27c4.49,1.37,12.46,3.39,13.46,3.59,1.94.38,2.94.37,3.34-.93l.44-1.45c.1-.34.26-.34.55-.25l1.06.32c.29.09.37.17.27.5-.15.48-1.18,3.33-1.57,4.63-.31,1.01-1.18,4.38-1.33,4.87-.06.19-.17.21-.41.14l-1.25-.38c-.14-.04-.27-.14-.2-.38l.5-1.64c.43-1.4.01-2.11-2.28-3.07-.89-.38-6.36-2.15-14.94-4.78l-8.2-2.51Z"/>
      <path class="cls-1" d="M153.32,717.67c-1.16-.35-9.88-2.86-10.62-3.04-1.19-.26-1.82.08-2.38,1.91l-.86,2.8c-.07.24-.21.36-.41.3l-1.3-.4c-.19-.06-.25-.23-.19-.43.18-.58,1.07-2.99,2.45-7.48s1.64-5.88,1.85-6.56c.07-.24.25-.29.44-.23l1.21.37c.24.07.29.25.22.49l-.69,2.27c-.3.96-.13,1.81.83,2.1.48.15,11.1,3.55,11.67,3.73l3.71,1.14c.48.15,11.67,3.41,12.2,3.57,1.5.46,1.96-.19,2.43-1.74l.6-1.98c.07-.24.21-.36.46-.28l1.25.38c.19.06.24.23.16.52-.18.58-.91,2.46-2.19,6.66-1.4,4.58-1.89,6.7-2.05,7.23-.07.24-.21.36-.41.3l-1.3-.4c-.19-.06-.25-.23-.17-.47l.83-2.7c.3-.96.46-2.02-.74-2.6-.69-.32-11.07-3.65-13.62-4.43l-3.38-1.03Z"/>
      <path class="cls-1" d="M143.85,699.49c-.24-.07-.32-.15-.23-.44.15-.48.78-2.03,1.93-5.79,1.24-4.05,1.76-6.27,1.89-6.7.13-.43.29-.44.49-.38l1.11.34c.24.07.42.18.32.52l-.71,2.31c-.41,1.35-.19,2.16.63,2.41.39.12.98.25,1.7.31,1.82.24,8.11.21,11.07.17,2.01-.02,11.16-.28,14.44-.49l.03-.1c-1.96-1.71-10.74-8.51-11.73-9.23-1.15-.88-6.14-4.41-8.04-5.78-1.09-.75-1.87-1.31-2.54-1.52-.58-.18-1.21,0-1.58,1.2l-.38,1.25c-.06.19-.22.2-.51.11l-1.11-.34c-.24-.07-.32-.15-.25-.39.13-.43.96-2.61,1.89-5.65,1.08-3.52,1.3-4.77,1.43-5.2.09-.29.2-.31.44-.23l1.21.37c.19.06.32.15.23.44l-.4,1.3c-.49,1.59,0,2.74.83,4,1.16,1.72,9.87,8.61,11.64,10.05,1.41,1.07,14.85,11.97,15.26,12.36.33.31.49.63.42.87-.12.39-.66.43-1.36.48-4.91.19-17.1.73-19.03.83l-1.79-.02c-3.78.11-11.46.24-13.1.42-1.26.14-1.89.48-2.2,1.49l-.38,1.25c-.06.19-.22.2-.41.14l-1.21-.37Z"/>
      <path class="cls-1" d="M178.62,628.71c-3.57-1.09-6.65-2.03-8.07-2.41-1.61-.44-2.6-.11-2.97,1.1l-.59,1.93c-.07.24-.23.24-.43.19l-1.21-.37c-.24-.07-.32-.15-.25-.39.13-.43.73-1.88,1.97-5.94.83-2.7,2.05-7.23,2.32-8.1,1.22-4,3.4-6.82,5.7-8.12,2.03-1.12,4.48-1.37,6.27-.83,6.03,1.84,7.45,5.29,6.92,11.87l.1.03c.79-1.02,1.86-1.43,2.51-1.66.8-.39,6.77-2.31,7.51-2.5.56-.09,5.89-1.84,6.84-2.55,1.03-.79,1.47-1.87,1.88-3.22.1-.34.31-.33.5-.27l1.06.32c.29.09.42.18.32.52-.12.39-.65,1.6-1.3,3.72-.43,1.4-.88,3.21-1.05,3.95-.64.38-2.61.94-3.37,1.18-.7.21-6.07,1.41-6.53,1.54-.4.09-4.58,1.34-5.43,1.72-1.88.8-3.53,1.56-4.39,4.35-.13.43-.28.92-.34,1.64l2.7.83c2.85.87,8.26,2.47,9,2.65,1.04.21,2.03.09,2.25-.63l.93-3.04c.1-.34.26-.34.5-.27l1.06.32c.34.1.42.18.27.66-.16.53-.68,1.69-2.08,6.27-1.34,4.39-1.54,5.54-1.7,6.07-.12.39-.26.34-.5.27l-1.11-.34c-.24-.07-.39-.12-.31-.36l.6-1.98c.32-1.06.24-1.98-1.07-2.38-4.75-1.56-9.28-2.94-13.86-4.34l-4.68-1.43ZM184.73,625.83c.37-.68.58-1.2.86-2.11,2.68-8.78-2.83-12.31-4.85-12.93-2.22-.68-4.65-.32-6.24.73-2.07,1.42-3.44,3.32-4.66,7.33-.18.58-.27,1.24-.12,1.76.14.41.59.81,1.37,1.05l13.65,4.17Z"/>
      <path class="cls-1" d="M209.09,601.16c-.61.45-.84.69-.92.93-.09.29.19.59.58,1.02.44.45.42.71.31,1.04-.09.29-.4.46-.9.2-1.15-.56-7.12-2.92-8.48-3.49-.27-.14-.25-.23-.19-.43l.27-.71c.06-.19.18-.26.47-.17,1.56.42,3.18.81,6.13-.03,2.71-.75,4.82-3.01,5.63-5.66.89-2.89.22-7.1-4.12-8.43-4.97-1.52-7.89,1.49-10.42,4.94-.99,1.33-3.25,4.44-6.06,5.85-2.08,1.1-4.59,1.23-7.78.26-2.41-.74-4.32-2.95-5.26-4.88-1.11-2.24-1.05-4.86-.25-7.46.84-2.75,2.31-4.62,2.95-5.32.37-.36.4-.62.23-.93l-.39-.8c-.12-.3-.17-.47-.1-.72s.5-.27.94-.13c1.69.52,6.8,1.39,7.87,1.67.24.07.32.15.31.36l-.03.62c0,.16-.07.24-.23.25-1.52-.04-3.59.01-6.27,1.35-1.8.88-2.99,2.36-3.68,4.62-1.31,4.29,1.4,6.81,3.86,7.56,1.35.41,3.03.61,4.65-.21,1.83-.97,3.71-3.35,4.57-4.61,2.08-3,3.72-5.45,6.38-6.54,1.88-.8,4.02-1.09,7.21-.12,5.69,1.74,9.5,6.7,7.55,13.07-1.03,3.38-2.77,5.43-4.85,6.9Z"/>
      <path class="cls-1" d="M198.97,568.36c-1.16-.35-9.88-2.86-10.62-3.04-1.19-.26-1.82.08-2.38,1.91l-.85,2.8c-.07.24-.21.36-.41.3l-1.3-.4c-.19-.06-.25-.23-.19-.43.18-.58,1.07-2.99,2.45-7.48s1.64-5.88,1.85-6.56c.07-.24.25-.29.44-.23l1.21.37c.24.07.29.25.22.49l-.69,2.27c-.3.96-.13,1.81.83,2.1.48.15,11.1,3.55,11.67,3.73l3.71,1.14c.48.15,11.67,3.41,12.2,3.57,1.5.46,1.96-.19,2.43-1.74l.6-1.98c.07-.24.21-.36.46-.28l1.25.38c.19.06.24.23.16.52-.18.58-.91,2.46-2.19,6.66-1.4,4.58-1.89,6.7-2.05,7.23-.07.24-.21.36-.41.3l-1.3-.4c-.19-.06-.25-.23-.17-.47l.83-2.7c.3-.96.46-2.02-.74-2.6-.69-.32-11.07-3.65-13.62-4.43l-3.38-1.03Z"/>
      <path class="cls-1" d="M194.69,538.73l-.37,1.21c-.47,1.54-1.75,5.74-1.75,7.8.01,2.38,2.94,4.86,4.28,6,.21.17.22.33.09.56l-.51.79c-.09.13-.19.26-.45.08-1.59-1.01-7.29-4.6-7.79-4.86-.6-.29-.68-.53-.62-.72.07-.24.17-.37.37-.52l.63-.49c.89-.68,1.18-1.11,1.66-2.5.88-2.53,1.69-4.49,3.08-9.03l.71-2.31c1.61-5.26,2.05-7.39,2.67-9.78.28-1.08.32-1.75.09-2.71l-.3-1.09c-.07-.29-.08-.45-.02-.64.07-.24.25-.29.9-.2.61.08,6.87.99,9.11,1.26.26.03.32.15.3.41l-.04.83c-.01.21-.07.24-.46.28-1.03.11-5.19.42-6.45,1.77-1.17,1.23-2.65,5.73-3.37,8.09l-.41,1.35,13.74,4.2c.68.21,14.18,4.33,15.01,4.54,1.24.27,2.08.11,2.43-1.05l.93-3.04c.13-.43.29-.44.63-.34l1.01.31c.24.07.37.17.24.6-.15.48-.76,1.98-2.21,6.71-1.42,4.63-1.89,6.7-2.1,7.37-.12.38-.32.37-.61.29l-.92-.28c-.34-.1-.47-.2-.38-.49l1-3.28c.3-.96-.11-1.72-.67-1.95-1.35-.57-16.16-5.1-17.08-5.38l-12.39-3.79Z"/>
      <path class="cls-1" d="M229.92,507.32c1.88.57,5.06,1.39,5.61,1.5,1.59.33,1.95-.35,2.34-1.6l.58-1.88c.1-.34.25-.29.44-.23l1.11.34c.29.09.43.13.33.47-.18.58-.9,2.42-2.14,6.47-1.33,4.34-1.64,5.88-1.8,6.41-.06.19-.23.25-.47.17l-1.16-.35c-.19-.06-.32-.15-.23-.44l.72-2.36c.38-1.25.02-1.79-.69-2.06-.66-.25-4.44-1.52-8.93-2.89l-2.8-.86c-1.45.24-17.49,4.09-19.61,4.97-.92.4-1.69,1.38-1.92,2.15l-.37,1.21c-.09.29-.25.29-.44.23l-1.25-.38c-.19-.06-.27-.14-.19-.43.13-.43.97-2.66,1.87-5.6,1.52-4.97,1.9-6.75,2.05-7.23.09-.29.2-.31.34-.26l1.21.37c.24.07.42.18.33.47l-.49,1.59c-.44,1.45-.07,1.77,1.15,1.93.82.09,13.09-2.64,16.29-3.25-2.25-2.64-10.22-12.46-11.03-12.92-.76-.44-1.75-1.01-2.37,1.02l-.4,1.3c-.09.29-.25.29-.54.2l-1.16-.35c-.19-.06-.27-.14-.19-.43.15-.48.9-2.42,1.89-5.65.87-2.84,1.05-3.95,1.18-4.38.1-.34.21-.36.41-.3l1.16.35c.29.09.42.18.32.52l-.37,1.21c-.22.72-.18,1.63.34,2.69.62,1.24,10.47,13.7,12.57,16.34l6.32,1.93Z"/>
      <path class="cls-1" d="M248.64,469.55c-3.12,2.79-9.45,4.86-16.49,2.71-2.94-.9-7.29-3.07-10.64-8.16-3.86-5.82-3.37-10.89-2.13-14.94.93-3.04,2.76-6.8,7.11-9.64,4.12-2.59,9.78-4.23,16.44-2.2,3.52,1.08,6.85,3.31,9.46,6.84,3.01,4.14,4.59,9.31,2.55,15.97-.72,2.36-2.78,6.32-6.3,9.41ZM241.88,442.17c-10.56-3.23-19.08,2.39-20.72,7.75-.22.72-1.8,3.83.52,8.49,2.1,4.17,6.48,7.25,10.44,8.46,12.68,3.88,19.87-3.58,21.12-7.68,3.24-10.61-7.06-15.71-11.35-17.02Z"/>
      <path class="cls-1" d="M250.5,426.4c2.27.69,8.84,2.65,9.53,2.81,1.09.23,1.72-.11,2.03-1.12l.94-3.09c.1-.34.26-.34.45-.28l1.16.35c.24.07.37.17.25.55-.21.68-.81,2.13-2.19,6.66-1.3,4.24-1.73,6.17-1.89,6.7-.1.34-.26.34-.46.28l-1.21-.37c-.24-.07-.32-.15-.25-.39l.63-2.07c.5-1.64.36-2.05-.89-2.59-.47-.2-7.95-2.64-13.54-4.35l-5.55-1.7c-3.18-.97-8.45-2.53-8.95-2.63-.99-.2-1.24.25-1.64,1.56l-.84,2.75c-.07.24-.19.26-.47.17l-1.16-.35c-.24-.07-.32-.15-.25-.39.16-.53.84-2.22,2.24-6.8.27-.87.99-3.76,1.48-5.35,1.67-5.45,2.98-7.84,5.7-10.02,2.24-1.79,5.36-2.37,8.11-1.53,6.08,1.86,8.44,7.59,6.09,15.26-.55,1.78-1.18,3.7-1.85,5.18l2.51.77ZM246.25,425.11c.58-.88,1.22-2.42,1.79-4.3.9-2.94.1-6.03-1.2-7.8-1.07-1.49-2.8-2.23-4.49-2.74-6.32-1.93-9.8,3.44-10.67,6.28-.25.82-.85,2.8-.81,3.86l15.38,4.7Z"/>
      <path class="cls-1" d="M253.97,394.67c.12-.39,1.5-5.6,1.58-6.21.19-1.47-.08-1.98-1.44-2.87-.44-.29-1.34-.78-2.25-1.11-.24-.07-.29-.25-.23-.44l.42-1.19c.07-.24.3-.28.47-.17.78.39,4.73,1.6,5.45,1.82,1.69.52,4.06,1.03,5.1,1.24.24.07.31.2.3.41l-.18,1.11c-.03.26-.2.31-.55.25-.66-.09-1.85-.14-2.43-.16-1.1-.02-1.99.29-2.51,1.5-.93,2.19-1.95,5.52-2.19,6.29l2.99.91c2.6.8,7.31,2.13,8.28,2.42,2.52.72,3.86-.19,4.6-1.6.49-.9,1.06-2.26,1.43-3.46.25-.82.94-3.25,1.15-4.29.15-.85.27-3.13-.41-4.71-.3-.73-2.95-4.49-3.85-5.5-.2-.22-.35-.42-.11-.67l.67-.64c.22-.2.36-.15.7.11l6.31,4.72c.39.28.58.7.4,1.28-.07.24-.45,1.29-1.38,4.17-.88,2.89-2.36,7.56-4.66,15.08-.55,1.78-.91,3.15-1.21,4.11-.26,1.03-.4,1.67-.54,2.1-.09.29-.23.4-.47.33l-1.3-.4c-.19-.06-.2-.22-.09-.56l.59-1.93c.68-2.22.4-2.51-1.38-3.06l-16.16-4.94c-4-1.22-10.06-2.97-10.56-3.07-1.6-.28-2.09.1-2.63,1.89l-.53,1.74c-.07.24-.17.37-.46.28l-1.3-.4c-.14-.04-.21-.17-.14-.41.32-1.06.99-2.7,1.96-5.89l.65-2.12c1.46-4.77,2.87-9.56,4.33-14.34.24-.77.42-1.72.49-1.96s.2-.31.36-.31l8.52-.09c.21.01.35.05.39.28l.16.84c.05.17-.15.32-.26.34-.22.04-5.89,2.2-6.97,3.14-.98.81-1.98,1.98-2.42,3.27l-2.82,8.53,14.13,4.32Z"/>
      <path class="cls-1" d="M253.37,363.01c-2.84-.87-4.88.09-5.46,1.81l-.65,1.96c-.07.24-.28.23-.43.19l-1.25-.38c-.19-.06-.27-.14-.2-.38s.24-.61.46-1.33c.27-.71.64-1.75,1.14-3.39.5-1.64.71-2.68.89-3.26.19-.63.5-.95,1.06-1.21l16.21-6.12c.84-.32,13.31-5.42,15.21-6.11l.06-.19-5.74-1.75c-4.29-1.31-6.67-1.99-9.11-2.63-1.9-.53-6.7-1.73-7.6-1.69-1.32.02-2.28.73-2.69,2.08l-.47,1.54c-.06.19-.19.26-.43.19l-1.25-.38c-.19-.06-.26-.18-.2-.38.21-.68.82-2.17,1.77-5.26.88-2.89,1.09-4.1,1.28-4.72.1-.34.26-.34.46-.28l1.21.37c.19.06.31.2.25.39l-.4,1.3c-.4,1.3.27,2.04,2.08,2.69,3.17,1.18,7.95,2.64,11.08,3.6l18.04,5.51c.67.21,1.14.4,1.08.59-.18.58-.89.84-1.13.92l-9.23,3.61c-5.23,2.09-10.74,4.26-11.12,4.46-.64.38-14.5,5.85-14.97,6.02l-.09.29,10.71,3.27c4.49,1.37,12.46,3.39,13.46,3.59,1.94.38,2.94.37,3.34-.93l.44-1.45c.1-.34.26-.34.55-.25l1.06.32c.29.09.37.17.27.5-.15.48-1.18,3.33-1.58,4.63-.31,1.01-1.18,4.38-1.33,4.87-.06.19-.17.21-.41.14l-1.25-.38c-.14-.04-.27-.14-.2-.38l.5-1.64c.43-1.4.01-2.11-2.28-3.07-.89-.38-6.36-2.15-14.94-4.78l-8.2-2.51Z"/>
      <path class="cls-1" d="M294.47,314.99c-4.34,2.47-10.45,2.45-15.08,1.03-4.49-1.37-8.67-4.23-11.28-8.83-1.85-3.26-2.79-8.29-1.18-13.55,1.34-4.39,4.09-7.5,5.63-8.93.58-.51.6-.76.3-.96l-1.28-.81c-.26-.19-.23-.28-.1-.72s.26-.5.93-.29c.92.28,8.3,1.48,9.73,1.65.26.03.43.13.42.34l-.03.78c-.03.26-.1.34-.53.36-1.8.19-4.44.54-7.13,1.93-2.69,1.39-5.11,3.45-6.28,7.26-2.64,8.63,3.97,14.45,11.02,16.55,2.8.86,8.51,1.65,13.81-.84,4.67-2.16,5.89-4.79,6.88-8.02,1.67-5.45-.03-10.61-2.48-13.79-.2-.22-.22-.33-.03-.43l.67-.48c.14-.12.27-.18.46.04,3.31,4.18,5.79,10.05,3.71,16.85-1.74,5.69-4.63,8.76-8.17,10.85Z"/>
      <path class="cls-1" d="M296.07,275.09c1.06.85,7.58,5.75,8.52,6.3.32.15.78.39,1.02.47.68.21,1.24-.25,1.56-1.31l.69-2.27c.1-.34.24-.45.48-.38l1.11.34c.34.1.39.28.32.52-.21.68-.96,2.61-1.83,5.45-1.08,3.52-1.26,4.63-1.46,5.3-.07.24-.2.31-.49.22l-1.16-.35c-.24-.07-.28-.3-.22-.49l.52-1.69c.44-1.45-.03-2.33-1.36-3.47-.67-.57-8.51-6.82-12.04-9.43-.86-.63-10.04-7.71-11.21-8.54-.44-.29-.99-.72-1.62-.55-.24.08-.54.2-.73.14-.14-.04-.31-.2-.3-.57.12-1.44-.67-4-1.19-4.74-.17-.32-.32-.52-.24-.76.09-.29.41-.3.98-.28,3.32.01,15.27-.45,18.64-.42,4.1.04,14.03-.35,15.63-.6,1.84-.33,2.8-1.41,3.17-2.62l.49-1.59c.09-.29.26-.34.46-.28l1.21.37c.24.07.29.25.19.59-.27.87-.72,1.84-1.91,5.74-1.22,4-1.59,5.73-1.93,6.84-.07.24-.26.34-.55.25l-1.11-.34c-.29-.09-.29-.25-.2-.54l.37-1.21c.41-1.35.06-1.93-1.39-2.01-1.85-.14-8.63-.06-10.77.03l-3.63,11.86ZM297.78,263.27c-1.58,0-14.83.21-15.63.23-.38.04-.75.03-.79.18-.06.19.22.49.56.75.55.43,11.5,8.79,12.6,9.49l3.26-10.66Z"/>
      <path class="cls-1" d="M316.84,227.5c-.52-.9-10.57-9.24-11.08-9.82-.57-.54-10.3-9.27-11.22-9.7-.5-.26-.39-.8-.24-1.29,1.96-6.41,2.32-8.1,2.48-8.63.07-.24.23-.24.43-.19l1.11.34c.29.09.42.18.32.52l-.65,2.12c-.44,1.45.38,1.86,1.49,2.2,1.4.43,8.25,2.68,11.48,3.67l3.38,1.03c2.41.74,10.27,2.98,11.23,3.28,1.83.56,2.74.36,3.11-.84l.87-2.84c.09-.29.25-.29.44-.23l1.11.34c.29.09.42.18.3.57-.18.58-.59,1.4-2.21,6.71-1.36,4.44-1.79,6.36-1.98,6.99-.1.34-.26.34-.55.25l-1.11-.34c-.24-.07-.32-.15-.22-.49l1-3.28c.25-.82.09-1.34-1.32-1.88-.56-.23-8.94-2.84-12.51-3.93l-3.09-.94c-3.18-.97-11.77-3.6-12.25-3.58l-.03.1c.48.67,13.58,12.17,13.99,12.56.49.47,11.15,9.58,11.53,9.9.38.33.98.93.86,1.32-.09.29-.55.41-1.09.46l-18.16,1.62c-2.5.24-14.64,1.32-15.43,1.82.62.4,12.79,4.23,13.37,4.4s10.74,3.34,12.47,3.71c2.82.6,3.73.4,4.2-1.14l.74-2.41c.09-.29.25-.29.44-.23l1.21.37c.19.06.32.15.21.54-.16.53-.71,1.79-1.93,5.79-1.25,4.1-1.62,5.83-1.76,6.27-.12.39-.18.42-.57.3l-1.16-.35c-.14-.04-.27-.14-.2-.38l.78-2.56c.56-1.83-.56-2.65-2.11-3.44-3.25-1.63-15.55-5.55-16.42-5.81-.68-.21-7.96-2.43-9.37-2.81-1.12-.29-1.78-.55-2.39,1.43l-.9,2.94c-.09.29-.25.29-.44.23l-1.25-.38c-.14-.04-.27-.14-.19-.42.15-.48.69-1.74,1.94-5.84.69-2.27.93-3.57,1.11-4.14.22-.72.5-.95,1.2-1l29.03-2.83Z"/>
      <path class="cls-1" d="M322.64,190.41c2.27.69,8.84,2.65,9.53,2.81,1.09.23,1.72-.11,2.03-1.12l.94-3.09c.1-.34.26-.34.45-.28l1.16.35c.24.07.37.17.25.55-.21.68-.81,2.13-2.19,6.66-1.3,4.24-1.73,6.17-1.89,6.7-.1.34-.26.34-.46.28l-1.21-.37c-.24-.07-.32-.15-.25-.39l.63-2.07c.5-1.64.36-2.05-.89-2.59-.47-.2-7.95-2.64-13.54-4.35l-5.55-1.7c-3.18-.97-8.45-2.53-8.95-2.63-.99-.2-1.24.25-1.64,1.56l-.84,2.75c-.07.24-.19.26-.47.17l-1.16-.35c-.24-.07-.32-.15-.25-.39.16-.53.84-2.22,2.24-6.8.27-.87.99-3.76,1.48-5.35,1.67-5.45,2.98-7.84,5.7-10.02,2.24-1.79,5.36-2.37,8.11-1.53,6.08,1.86,8.44,7.59,6.09,15.26-.55,1.78-1.18,3.7-1.85,5.18l2.51.77ZM318.4,189.11c.58-.88,1.22-2.42,1.79-4.3.9-2.94.1-6.03-1.2-7.8-1.07-1.49-2.8-2.23-4.49-2.74-6.32-1.93-9.8,3.44-10.67,6.28-.25.82-.85,2.8-.81,3.86l15.38,4.7Z"/>
      <path class="cls-1" d="M344,165.25c-2.3,2.88-4.94,3.92-8.22,3.76-2.35-.08-5.64-.88-11.96-2.81l-11.48-3.51c-1.69-.52-2.56-.41-3.02,1.08l-.69,2.27c-.09.29-.2.31-.54.2l-1.06-.32c-.29-.09-.37-.17-.25-.55.15-.48,1.02-2.8,2.17-6.56,1.15-3.76,1.71-6.12,1.87-6.65.12-.38.23-.4.42-.34l1.25.38c.24.07.32.15.22.49l-.74,2.41c-.43,1.4.24,2.5,1.27,2.92.42.18,3.78,1.26,6.24,2.01l3.18.97c2.56.78,8.74,2.46,10.3,2.88,2.23.63,4.62.94,6.6.33,3.15-.99,4.96-3.81,5.82-6.61.84-2.75.78-5.83-.44-8.04-1.45-2.5-4.15-4.01-7.72-5.1l-10.32-3.16c-3.67-1.12-6.49-1.88-7.74-2.1-1.3-.24-2.4.27-2.78,1.52l-.65,2.12c-.09.29-.25.29-.49.22l-1.16-.35c-.24-.07-.32-.15-.23-.44.15-.48.97-2.66,1.96-5.89,1.02-3.33,1.34-4.91,1.48-5.35.13-.43.34-.42.49-.38l1.06.32c.29.09.47.2.39.44l-.6,1.98c-.55,1.78.76,2.34,1.29,2.66.45.24,7.3,2.34,7.98,2.54s9.09,2.88,10.92,3.6c3.87,1.5,6.58,3.49,8.07,6.9,1.19,2.48,1.4,5.76.12,9.95-.77,2.51-1.84,4.82-3,6.2Z"/>
      <path class="cls-1" d="M351.64,134.9c-.61.45-.84.69-.92.93-.09.29.19.59.58,1.02.44.45.42.71.31,1.04-.09.29-.4.46-.9.2-1.15-.56-7.12-2.92-8.48-3.49-.27-.14-.25-.23-.19-.43l.27-.71c.06-.19.18-.26.47-.17,1.56.42,3.18.81,6.13-.03,2.71-.75,4.82-3.01,5.63-5.66.89-2.89.22-7.1-4.12-8.43-4.97-1.52-7.89,1.49-10.42,4.94-.99,1.33-3.25,4.44-6.06,5.85-2.08,1.1-4.59,1.23-7.78.26-2.41-.74-4.32-2.95-5.26-4.88-1.11-2.24-1.05-4.86-.25-7.46.84-2.75,2.31-4.62,2.95-5.32.37-.36.4-.62.23-.93l-.39-.8c-.12-.3-.17-.47-.1-.72s.5-.27.94-.13c1.69.52,6.8,1.39,7.87,1.67.24.07.32.15.31.36l-.03.62c0,.16-.07.24-.23.25-1.52-.04-3.59.01-6.27,1.35-1.8.88-2.99,2.36-3.68,4.62-1.31,4.29,1.4,6.81,3.86,7.56,1.35.41,3.03.61,4.65-.21,1.83-.97,3.71-3.35,4.57-4.61,2.08-3,3.72-5.45,6.38-6.54,1.88-.8,4.02-1.09,7.21-.12,5.69,1.74,9.5,6.7,7.55,13.07-1.03,3.38-2.77,5.43-4.85,6.9Z"/>
      <path class="cls-1" d="M365.91,94.6c-.25.82-.47,1.7-.64,2.44-.17.74-.3,1.33-.36,1.52-.07.24-.12.38-.45.44-.38.04-.51-.05-.68-.37-1.43-2.91-3.84-8.29-6.81-13.42-2.97-5.13-6-8.48-10.24-9.62-4.34-1.17-7.69.65-8.7,4.14-1.21,4.11,1.51,6.63,2.7,7.89.28.3.28.45.06.65l-.5.59c-.14.12-.3.12-.68-.21-1.65-1.35-6.28-5.35-4.29-11.86,1.24-4.05,5.91-7.42,11.36-5.76,4.1,1.25,7.07,3.95,10.61,9.78,2.76,4.43,4.39,9.09,5.62,11.79l2.99-9.79c1-3.28-.88-5.23-2.34-6.83-.36-.37-.36-.53.02-.94.31-.33.56-.46.79-.18l6.56,5.43c.46.4.57.02.31.89-.13.43-.18.42-.67.48-.72.1-1.04,1-1.49,2.45l-3.2,10.47Z"/>
      <path class="cls-1" d="M357.52,70.31c-11.04-3.38-17.07-10.23-15.18-16.4,2.17-7.09,12.38-7.55,19.71-5.31,11.04,3.38,15.87,9.33,13.97,15.55-2.39,7.81-12.66,7.94-18.49,6.16ZM372.28,57.9c-1.99-1.77-5.52-3.32-12.56-5.48-7.09-2.17-14.48-1.79-15.73,2.31-.58,1.88-.27,3.45,1.57,5.22,2.84,2.77,8.43,4.69,12.43,5.91,4.58,1.4,8.13,1.85,10.68,1.47,3.64-.52,5.12-2.07,5.63-3.76.46-1.5.44-3.5-2.01-5.68Z"/>
      <path class="cls-1" d="M379.84,49.03c-.25.82-.47,1.7-.64,2.44-.17.74-.3,1.33-.36,1.52-.07.24-.12.39-.45.44-.38.04-.51-.05-.68-.37-1.43-2.92-3.84-8.29-6.81-13.42-2.97-5.13-6-8.48-10.24-9.62-4.34-1.17-7.69.66-8.7,4.14-1.21,4.11,1.51,6.63,2.7,7.89.28.3.28.46.06.65l-.5.59c-.14.11-.3.12-.68-.21-1.65-1.35-6.28-5.35-4.29-11.86,1.24-4.05,5.91-7.42,11.36-5.76,4.1,1.25,7.07,3.96,10.61,9.78,2.76,4.43,4.39,9.09,5.62,11.79l2.99-9.79c1-3.28-.88-5.23-2.34-6.83-.36-.37-.36-.53.02-.94.31-.33.56-.46.79-.18l6.56,5.44c.46.4.58.02.31.88-.13.43-.18.42-.67.48-.72.1-1.04,1-1.49,2.45l-3.2,10.46Z"/>
      <path class="cls-1" d="M366.37,18.92c.27-1.24,1.6-4.36,2.21-5.34,2.7-4.34,6.9-6.01,11.24-4.68,6.91,2.06,10.25,9.25,8.24,15.81-1.09,3.57-3.22,5.87-4.62,5.44-.67-.21-1.12-.82-.93-1.44.27-.87,1.05-1.53,1.7-2.12.66-.59,1.64-2.08,2.08-3.53,1.15-3.76-.88-8.5-5.13-9.79-3.38-1.03-6.37-.73-8.68,1.99-1.95,2.25-2.69,4.66-2.98,5.95-.04.3-.07.56-.36.84-.17.21-.33.22-.6.08l-13.07-5.89c-.56-.23-.73-.38-.54-1.01l3.16-10.32c.52-1.69-.17-2.37-1.51-3.68-.24-.23-.25-.39-.06-.65.4-.46.53-.68.79-.5l4.29,3.21c.67.57.79.87.33,2.37l-3.07,10.03,7.5,3.24Z"/>
    </g>
  </g>
</svg>