<?xml version="1.0" encoding="UTF-8"?>
<svg id="_レイヤー_2" data-name="レイヤー 2" xmlns="http://www.w3.org/2000/svg" viewBox="0 0 298.52 687.1">
  <defs>
    <style>
      .cls-1 {
        fill: #231815;
      }
    </style>
  </defs>
  <g id="K100">
    <g>
      <path class="cls-1" d="M278.19,76.12c-1.07,3.51-2.82,3.98-9.32,2.36-.17-.05-.24-.12-.23-.3.04-1.18-.06-2.49-.28-3.88-.02-.1.06-.21.22-.12.88.41,2.21.86,3.04,1.11,1.92.59,2.73.33,3.31-1.55l2.15-7.02c.04-.13-.02-.23-.14-.27l-13.96-4.27c-.13-.04-.23.02-.27.14-2.17,5-4.83,8.63-9.48,11.41-.05.03-.11.06-.19.03-.04-.01-.08-.03-.11-.08-.82-1.07-1.54-1.84-2.43-2.66-.07-.07-.06-.11-.05-.15s.07-.07.12-.1c7.19-3.79,9.22-9.98,12.1-19.39,1.56-5.1,2.49-8.43,3.18-11.14.05-.17.15-.18.27-.15,3.07,1.03,6.32,2.07,10.45,3.33s7.33,2.19,10.41,3.04c.17.05.2.11.15.27-1.09,3.28-2.55,7.9-4.1,12.96-2.91,9.53-4.15,14.18-4.83,16.4ZM264.11,59.2l13.75,4.2c.13.04.23-.02.27-.15l1.69-5.52c.04-.13-.02-.23-.14-.27l-13.67-4.18c-.13-.04-.23.02-.27.14l-.52,1.71c-.41,1.34-.79,2.59-1.25,3.78-.04.13.02.23.14.27ZM280.62,54.42c.13.04.23-.02.27-.15l1.67-5.48c.04-.13-.02-.23-.14-.27l-13.67-4.18c-.13-.04-.23.02-.27.15l-1.67,5.48c-.04.13.02.23.14.27l13.67,4.18Z"/>
      <path class="cls-1" d="M250.1,173.82l-3.47-1.06c-.13-.04-.18-.15-.15-.27l.96-3.14c.04-.13-.02-.23-.14-.27l-17.85-5.46c-.13-.04-.23.02-.27.14l-.97,3.18c-.04.13-.15.18-.27.14l-3.39-1.04c-.13-.04-.18-.15-.15-.27,1.51-4.2,3.95-11.73,5.84-17.92,1.87-6.1,3.58-11.7,4.77-15.91.05-.17.15-.18.27-.14,4.1,1.39,8.91,2.86,12.46,3.95,3.72,1.14,8.36,2.56,12.54,3.7.17.05.18.15.15.27-1.34,4.07-3.02,9.59-4.86,15.61-2.1,6.86-4.18,14.26-5.2,18.34-.04.13-.15.18-.27.15ZM252.55,151.89c.13.04.23-.02.27-.15l3-9.82c.04-.13-.02-.23-.14-.27l-17.85-5.46c-.13-.04-.23.02-.27.14l-3,9.82c-.04.13.02.23.14.27l17.85,5.46ZM233.72,149.65c-.13-.04-.23.02-.27.14l-3.16,10.33c-.04.13.02.23.14.27l17.85,5.46c.13.04.23-.02.27-.15l3.16-10.33c.04-.13-.02-.23-.14-.27l-17.85-5.46Z"/>
      <g>
        <path class="cls-1" d="M212.94,185.85s.06-.06.11-.09c6.27-3.64,13.58-4.23,20.1-2.23,6.56,2,12.29,6.58,15.41,13.09.03.05.05.1.04.13s-.02.07-.12.12l-1.67,1.1s-.1.05-.13.04c-.07-.02-.1-.07-.13-.12-5.84-11.86-21.18-16.22-32.56-9.96-.05.03-.1.05-.17.03-.04-.01-.06-.06-.09-.11l-.77-1.85c-.05-.1-.04-.13-.03-.17Z"/>
        <path class="cls-1" d="M226.75,210l-3.72,12.17c-.03.11.02.21.13.25,5.97,1.83,10.39,3.1,14.18,4.01.15.05.16.13.13.25l-.93,3.04c-.03.11-.09.18-.25.13-3.99-1.47-8.78-3.01-15.69-5.13-6.91-2.11-11.78-3.52-15.95-4.55-.11-.03-.17-.13-.13-.25l.93-3.04c.03-.11.13-.16.25-.13,3.61,1.35,7.91,2.75,13.85,4.56.15.05.21-.02.25-.13l3.72-12.17c.03-.11.02-.2-.13-.25-4.47-1.37-7.8-2.3-10.79-3.01-.11-.03-.16-.13-.13-.25l.95-3.12c.03-.11.13-.16.25-.13,2.84,1.07,6.16,2.17,10.63,3.54.15.05.21-.02.25-.13l1.31-4.28c.78-2.55,1.23-4.55,1.41-6.22,0-.12.08-.14.2-.1,1.14.43,2.66,1.1,3.59,1.55.68.33.62.8-.03,1.18-.55.32-.89,1.17-1.6,3.5l-1.64,5.37c-.03.11.02.21.13.25,4.7,1.44,8.18,2.42,11.24,3.15.15.05.17.13.13.25l-.95,3.12c-.03.11-.1.18-.25.13-2.95-1.11-6.38-2.24-11.08-3.68-.11-.03-.21.02-.25.13Z"/>
        <path class="cls-1" d="M235.29,240.28s-.06.06-.11.09c-6.27,3.64-13.58,4.23-20.1,2.23-6.56-2-12.29-6.58-15.41-13.09-.03-.05-.05-.1-.04-.13s.02-.07.12-.13l1.67-1.1s.1-.05.13-.04c.07.02.1.07.12.12,5.84,11.86,21.18,16.22,32.56,9.96.05-.03.1-.05.17-.03.04.01.06.06.09.11l.76,1.85c.05.1.04.13.03.17Z"/>
      </g>
      <path class="cls-1" d="M180.22,335.27c-1.22,3.83-2.24,7.04-3.67,11.72-1.46,4.77-2.75,8.99-4.06,14.17-.04.13-.15.18-.27.14l-3.01-.92c-.13-.04-.18-.15-.14-.27l.79-2.59c.04-.13-.02-.23-.14-.27l-4.56-1.39c-.13-.04-.23.02-.27.15l-.98,3.22c-.04.13-.15.18-.27.14l-3.01-.92c-.13-.04-.18-.15-.14-.27,1.69-4.65,3.37-9.99,4.79-14.63,1.43-4.68,2.48-8.11,3.47-11.78.05-.17.15-.18.27-.15,1.6.58,3.35,1.16,5.44,1.8,2.3.7,3.98,1.17,5.64,1.59.17.05.2.11.15.27ZM173.71,344.16c.13.04.23-.02.27-.14l2.13-6.98c.04-.13-.02-.23-.14-.27l-4.56-1.39c-.13-.04-.23.02-.27.15l-2.13,6.98c-.04.13.02.23.14.27l4.56,1.39ZM168.31,345.53c-.13-.04-.23.02-.27.15l-2.22,7.27c-.04.13.02.23.14.27l4.56,1.39c.13.04.23-.02.27-.15l2.22-7.27c.04-.13-.02-.23-.14-.27l-4.56-1.39ZM192.76,344.64l-1.27,4.14c-.04.13.02.23.14.27,4.14,1.27,7.47,2.19,10.19,2.84.17.05.18.15.14.27l-.86,2.8c-.04.13-.11.2-.27.15-2.88-1.06-6.44-2.24-11.17-3.69-5.69-1.74-8.76-2.59-11.7-3.3-.13-.04-.18-.15-.14-.27l.86-2.8c.04-.13.15-.18.27-.15,2.34.85,4.87,1.72,8.95,3.01.17.05.23-.02.27-.14l1.27-4.14c.04-.13.02-.22-.15-.27-3.39-1.04-5.79-1.68-7.89-2.14-.13-.04-.18-.15-.15-.27l.86-2.8c.04-.13.15-.18.27-.14,2.01.75,4.37,1.56,7.74,2.64.17.05.23-.02.27-.14l.27-.88c.58-1.88.87-3.3,1.05-4.62,0-.18.11-.2.23-.16,1.17.5,2.75,1.16,3.66,1.62.59.32.53.8-.11,1.11-.57.24-.88.92-1.39,2.59l-.41,1.34c-.04.13.02.23.14.27,3.3,1.01,6,1.74,8.27,2.25.17.05.18.15.15.27l-.86,2.8c-.04.13-.11.2-.27.15-2.12-.83-4.81-1.75-8.12-2.76-.13-.04-.23.02-.27.14ZM194.2,357.28c-.04.13.02.23.15.27,1.85.52,3.38.9,4.84,1.21.17.05.18.15.15.27l-.91,2.97c-.04.13-.11.2-.27.14-1.38-.56-2.86-1.1-4.69-1.71-.13-.04-.23.02-.27.15l-1.2,3.93c-.51,1.67-.99,3.4-1.39,4.7-1.09,3.55-2.6,4.01-8.81,2.34-.17-.05-.23-.16-.23-.3-.01-1.15-.09-2.4-.3-3.52-.02-.1.06-.21.19-.17,1.34.55,2.41.92,3.38,1.22,1.59.49,2.25.28,2.86-1.73l2.29-7.48c.04-.13.02-.22-.14-.27l-2.72-.83c-5.48-1.67-8.33-2.5-11.13-3.08-.13-.04-.18-.15-.14-.27l.91-2.97c.04-.13.15-.18.27-.15,2.65,1.04,5.46,2.03,10.93,3.71l2.72.83c.17.05.25-.06.27-.14.38-1.39.6-2.42.74-3.48,0-.18.11-.2.23-.16,1.14.44,2.49.99,3.44,1.46.59.32.54.76-.06,1.08-.44.23-.72.7-1.11,1.99ZM178.18,358.83l2.58-.81c.15-.05.23-.02.32.14.87,1.64,1.93,4.16,2.52,6.12.04.15.02.23-.13.28l-3.09.84c-.15.04-.28,0-.31-.19-.44-2.01-1.17-4.24-1.99-6.05-.06-.11-.05-.29.1-.33Z"/>
      <path class="cls-1" d="M137.62,437.22c-.45-1.05-.92-1.93-1.65-2.97-.2-.24-.19-.29-.17-.33s.03-.08.12-.1c5.58-1.22,9.96-4.18,13.74-8,1.25-1.26,2.25-2.74,2.83-4.03.04-.13.12-.1.23-.02.96.75,2.3,2.03,2.96,2.73.72.77.61,1.28-.24,1.39-.62.08-1.19.6-1.92,1.33-4.31,4.53-9.92,8.53-15.63,10.17-.15.05-.21-.06-.27-.17ZM156.24,439.11c4.81,1.47,6.77,2.07,8.97,2.65.17.05.18.15.14.27-.48,1.27-1.35,3.66-2.05,5.82-1.02,3.03-2.46,6.56-3.31,8.13-2.11,3.61-4.55,3.96-7.98,2.91-1-.31-2.06-.72-2.86-1.1-.15-.09-.17-.19-.17-.33.01-1.09-.03-2.16-.14-3.56,0-.14.06-.21.22-.12,1.33.73,2.71,1.29,3.8,1.62,1.96.6,3.2.29,4.32-2.15,1.36-2.97,2.7-6.58,3.56-9.24.04-.13-.02-.23-.14-.27l-7.27-2.22c-.13-.04-.23.02-.31.13-3.14,7.13-7.91,11.39-15.74,13.2-.1.02-.14,0-.18,0-.08-.03-.15-.09-.18-.15-.54-1.08-1.21-2.02-1.99-3.08-.1-.12,0-.18.11-.2,7.35-1.18,11.93-5.08,14.37-10.83.09-.15.03-.26-.09-.3-2.98-.87-4.88-1.4-6.67-1.81-.13-.04-.18-.15-.15-.27l.88-2.88c.06-.21.23-.3.44-.23,2.62.99,5.54,1.92,12.44,4.03ZM161.49,424.63l3.54-.38c.1-.02.43-.05.47-.04s.07.07.07.21c-.2,7.53,2.27,15.14,8.68,20.8.07.07.06.11.05.15s-.03.08-.08.11c-1.36.73-2.66,1.52-3.61,2.23-.12.1-.21.07-.31-.05-5.07-5.98-7.42-11.91-8.29-19.22-.14-1.19-.38-2.36-.7-3.55-.05-.15.04-.26.17-.27Z"/>
      <path class="cls-1" d="M138.96,494.58c1.43-4.68-2.52-10-.55-16.44,1.29-4.22,4.6-6.82,8.57-7.99.1-.02.14,0,.18,0,.08.03.11.08.13.18l.8,2.76c.05.15,0,.28-.14.32-3.07,1.07-5.28,3.05-6.11,5.77-1.43,4.68,2.52,10,.55,16.44-1.3,4.26-4.55,6.79-8.57,7.99-.1.02-.14,0-.18,0-.08-.03-.11-.08-.13-.18l-.8-2.76c-.05-.15,0-.28.14-.32,3.07-1.07,5.26-3.01,6.11-5.77Z"/>
      <path class="cls-1" d="M111.78,559.13c-1.22,3.83-2.24,7.04-3.67,11.72-1.46,4.77-2.75,8.99-4.06,14.16-.04.13-.15.18-.27.15l-3.01-.92c-.13-.04-.18-.15-.14-.27l.79-2.59c.04-.13-.02-.23-.14-.27l-4.56-1.39c-.13-.04-.23.02-.27.14l-.98,3.22c-.04.13-.15.18-.27.15l-3.01-.92c-.13-.04-.18-.15-.14-.27,1.69-4.65,3.37-9.99,4.79-14.63,1.43-4.68,2.48-8.11,3.47-11.79.05-.17.15-.18.27-.14,1.6.58,3.35,1.16,5.44,1.8,2.3.7,3.98,1.17,5.64,1.59.17.05.2.11.15.27ZM105.27,568.02c.13.04.23-.02.27-.15l2.13-6.98c.04-.13-.02-.23-.14-.27l-4.56-1.39c-.13-.04-.23.02-.27.14l-2.13,6.98c-.04.13.02.23.14.27l4.56,1.39ZM99.87,569.39c-.13-.04-.23.02-.27.14l-2.22,7.27c-.04.13.02.23.14.27l4.56,1.39c.13.04.23-.02.27-.14l2.22-7.27c.04-.13-.02-.23-.14-.27l-4.56-1.39ZM124.32,568.5l-1.27,4.14c-.04.13.02.23.14.27,4.14,1.27,7.47,2.19,10.19,2.84.17.05.18.15.14.27l-.86,2.8c-.04.13-.11.2-.27.14-2.88-1.06-6.44-2.24-11.17-3.69-5.69-1.74-8.76-2.59-11.7-3.3-.13-.04-.18-.15-.14-.27l.86-2.8c.04-.13.15-.18.27-.14,2.34.85,4.87,1.72,8.95,3.01.17.05.23-.02.27-.15l1.27-4.14c.04-.13.02-.22-.15-.27-3.39-1.04-5.79-1.68-7.89-2.14-.13-.04-.18-.15-.15-.27l.86-2.8c.04-.13.15-.18.27-.15,2.01.75,4.37,1.56,7.74,2.64.17.05.23-.02.27-.14l.27-.88c.58-1.88.87-3.3,1.05-4.62,0-.18.11-.2.23-.16,1.17.5,2.75,1.16,3.66,1.62.59.32.53.8-.11,1.11-.57.24-.88.92-1.39,2.59l-.41,1.34c-.04.13.02.23.14.27,3.3,1.01,6,1.74,8.27,2.25.17.05.18.15.15.27l-.86,2.8c-.04.13-.11.2-.27.14-2.12-.83-4.81-1.75-8.12-2.76-.13-.04-.23.02-.27.15ZM125.76,581.14c-.04.13.02.23.15.27,1.85.52,3.38.9,4.84,1.21.17.05.18.15.15.27l-.91,2.97c-.04.13-.11.2-.27.15-1.38-.56-2.86-1.1-4.69-1.71-.13-.04-.23.02-.27.14l-1.2,3.93c-.51,1.67-.99,3.4-1.39,4.7-1.09,3.55-2.6,4.01-8.81,2.34-.17-.05-.23-.16-.23-.3-.01-1.15-.09-2.4-.3-3.52-.02-.1.06-.21.19-.17,1.34.55,2.41.92,3.38,1.22,1.59.49,2.25.28,2.86-1.73l2.29-7.48c.04-.13.02-.22-.14-.27l-2.72-.83c-5.48-1.67-8.33-2.5-11.13-3.08-.13-.04-.18-.15-.14-.27l.91-2.97c.04-.13.15-.18.27-.14,2.65,1.04,5.46,2.03,10.93,3.71l2.72.83c.17.05.25-.06.27-.15.38-1.39.6-2.42.74-3.48,0-.18.11-.2.23-.16,1.14.44,2.49.99,3.44,1.46.59.32.54.76-.06,1.08-.44.23-.72.7-1.11,1.99ZM109.74,582.69l2.58-.81c.15-.05.23-.02.32.14.87,1.64,1.93,4.16,2.52,6.12.04.15.02.23-.13.28l-3.09.84c-.15.05-.28,0-.31-.19-.44-2.01-1.17-4.24-1.99-6.05-.06-.11-.05-.29.1-.33Z"/>
      <path class="cls-1" d="M68.42,663.59c-.45-1.05-.92-1.93-1.65-2.97-.2-.24-.19-.29-.17-.33s.03-.08.12-.1c5.58-1.22,9.96-4.18,13.74-8,1.25-1.26,2.25-2.74,2.83-4.03.04-.13.12-.1.23-.02.96.75,2.3,2.03,2.96,2.73.72.77.61,1.28-.24,1.39-.62.08-1.19.6-1.92,1.33-4.31,4.53-9.92,8.53-15.63,10.17-.15.05-.21-.06-.27-.17ZM87.04,665.48c4.81,1.47,6.77,2.07,8.97,2.65.17.05.18.15.14.27-.48,1.27-1.35,3.66-2.05,5.82-1.02,3.03-2.46,6.56-3.31,8.13-2.11,3.61-4.55,3.96-7.98,2.91-1-.31-2.06-.72-2.86-1.1-.15-.09-.17-.19-.17-.33.01-1.09-.03-2.16-.14-3.56,0-.14.06-.21.22-.12,1.33.73,2.71,1.29,3.8,1.62,1.96.6,3.2.29,4.32-2.15,1.36-2.97,2.7-6.58,3.56-9.24.04-.13-.02-.23-.14-.27l-7.27-2.22c-.13-.04-.23.02-.31.13-3.14,7.13-7.91,11.39-15.74,13.2-.1.02-.14,0-.18,0-.08-.03-.15-.09-.18-.15-.54-1.08-1.21-2.02-1.99-3.08-.1-.12,0-.18.11-.2,7.35-1.18,11.93-5.08,14.37-10.83.09-.15.03-.26-.09-.3-2.98-.87-4.88-1.4-6.67-1.81-.13-.04-.18-.15-.15-.27l.88-2.88c.06-.21.23-.3.44-.23,2.62.99,5.54,1.92,12.44,4.03ZM92.29,651l3.54-.38c.1-.02.43-.05.47-.04s.07.07.07.21c-.2,7.53,2.27,15.14,8.68,20.8.07.07.06.11.05.15s-.03.08-.08.11c-1.36.73-2.66,1.52-3.61,2.23-.12.1-.21.07-.31-.05-5.07-5.98-7.42-11.91-8.29-19.22-.14-1.19-.38-2.36-.7-3.55-.05-.15.04-.26.17-.27Z"/>
      <polygon class="cls-1" points="273.57 32.6 293.77 7.66 278.66 3.05 279.59 0 298.52 5.79 297.75 8.31 277.65 33.85 273.57 32.6"/>
      <polygon class="cls-1" points="207.9 33.91 228.1 8.98 212.99 4.36 213.92 1.31 232.85 7.1 232.08 9.62 211.98 35.16 207.9 33.91"/>
      <g>
        <path class="cls-1" d="M240.12,117.78l8.12-26.56c.04-.13,0-.27-.11-.36-.03-.03-.08-.05-.12-.06-.08-.03-.17-.02-.25.02-1.7.87-2.87,1.34-4.33,1.74l1.16-3.79c2.03-.77,4.01-1.62,5.91-3.2l3.25.99-9.89,32.36-3.74-1.14Z"/>
        <path class="cls-1" d="M257.44,123.67c-4.84-1.48-6.25-4.98-4.41-11.03l3.74,1.14-.03.09c-1.23,4.03-.74,6.31,1.51,7,3.52,1.08,5.62-3.19,7.68-9.93l.5-1.64c.05-.15-.02-.31-.15-.39-.02-.01-.05-.02-.07-.03-.12-.04-.25,0-.34.08-1.55,1.57-3.27,1.96-5.56,1.26-3.94-1.21-5.24-5.37-3.48-11.14,2.29-7.49,5.84-10.39,10.84-8.86,7.39,2.26,5.91,9.06,2.82,19.18-1.57,5.13-3.01,9.07-4.94,11.63-2.15,2.84-4.73,3.68-8.1,2.65ZM266.89,93.07c-3.48-1.06-5.27,3.35-6.31,6.76-1.35,4.42-.72,7.17,1.82,7.94,2.61.8,4.66-1.2,6.11-5.92,1.54-5.03.99-7.98-1.61-8.78Z"/>
      </g>
      <path class="cls-1" d="M189.84,323.58c-4.84-1.48-6.25-4.98-4.41-11.03l3.74,1.14-.03.09c-1.23,4.02-.74,6.31,1.51,7,1.64.5,3.06-.14,4.33-1.96,1.1-1.57,2.16-4.1,3.35-7.97l.5-1.64c.05-.15-.02-.31-.15-.39-.02-.01-.05-.02-.07-.03-.12-.04-.25,0-.34.08-1.55,1.57-3.27,1.96-5.56,1.26-3.94-1.21-5.24-5.37-3.48-11.14,2.29-7.49,5.84-10.39,10.84-8.86,7.39,2.26,5.91,9.06,2.82,19.18-2.89,9.46-5.69,16.52-13.05,14.28ZM199.29,292.98c-3.48-1.06-5.27,3.35-6.31,6.76-1.35,4.42-.72,7.17,1.82,7.94,2.61.8,4.66-1.2,6.11-5.92,1.54-5.03,1-7.98-1.61-8.78Z"/>
      <g>
        <path class="cls-1" d="M153.77,409.46c-5.15-1.57-6.58-4.76-4.78-10.64l.04-.14,3.78,1.16-.04.14c-.42,1.37-1.69,5.53,1.74,6.57,2.55.78,4.45-.99,5.8-5.42.48-1.58,1.95-6.39-2.47-7.75l-2.37-.72.89-2.92,2.33.71c3.88,1.19,5.16-1.85,6.06-4.79,1.19-3.9.68-6.13-1.56-6.82-2.49-.76-4.28.75-5.46,4.62l-.07.23-3.69-1.13.1-.32c1.65-5.39,5.24-7.68,9.85-6.27,4.89,1.49,6.34,4.87,4.58,10.63-1.28,4.18-3.36,6.09-6.74,6.19-.15,0-.28.11-.32.25-.04.14.02.3.15.37,3.25,1.98,3.92,4.28,2.54,8.77-1.96,6.42-5.35,8.79-10.35,7.26Z"/>
        <path class="cls-1" d="M172.83,415.29c-7.26-2.22-5.78-9.02-2.68-19.13,2.99-9.78,5.67-16.53,12.91-14.32,7.26,2.22,5.78,9,2.7,19.09-3.09,10.12-5.66,16.58-12.92,14.36ZM182.19,384.67c-3.37-1.03-5.08,2.42-8.22,12.66-3.14,10.27-3.66,14.11-.28,15.14,3.42,1.05,4.98-2.09,8.23-12.71,3.41-11.15,3.46-14.12.27-15.09Z"/>
      </g>
      <g>
        <path class="cls-1" d="M84.34,634.85c-5.15-1.57-6.58-4.76-4.78-10.64l.04-.13,3.78,1.16-.04.13c-.42,1.37-1.69,5.53,1.74,6.57,2.55.78,4.45-.99,5.8-5.42.48-1.58,1.95-6.39-2.47-7.75l-2.37-.72.89-2.92,2.33.71c3.88,1.19,5.16-1.85,6.06-4.79,1.19-3.9.68-6.13-1.56-6.82-2.49-.76-4.27.75-5.46,4.62l-.07.23-3.69-1.13.1-.32c1.65-5.39,5.24-7.68,9.85-6.27,4.89,1.49,6.34,4.87,4.58,10.63-1.28,4.18-3.36,6.09-6.74,6.19-.15,0-.28.11-.32.25-.04.14.02.3.15.37,3.25,1.98,3.92,4.28,2.54,8.77-1.96,6.42-5.35,8.79-10.35,7.26Z"/>
        <path class="cls-1" d="M103.4,640.68c-7.26-2.22-5.78-9.02-2.68-19.13,2.99-9.78,5.67-16.53,12.91-14.32,7.26,2.22,5.78,9,2.7,19.09-3.09,10.12-5.66,16.58-12.92,14.36ZM112.76,610.05c-3.37-1.03-5.08,2.42-8.22,12.66-3.14,10.27-3.66,14.11-.28,15.14,3.42,1.05,4.98-2.09,8.23-12.71,3.41-11.15,3.46-14.12.27-15.09Z"/>
      </g>
      <g>
        <path class="cls-1" d="M112.23,544.04l8.12-26.56c.04-.13,0-.27-.11-.36-.03-.03-.08-.05-.12-.06-.08-.03-.17-.02-.25.02-1.7.87-2.87,1.35-4.33,1.74l1.16-3.79c2.03-.77,4-1.62,5.91-3.2l3.25.99-9.89,32.36-3.74-1.14Z"/>
        <path class="cls-1" d="M113.08,543.6l8.39-27.44c.04-.13,0-.27-.11-.36-.03-.03-.08-.05-.12-.06-.08-.03-.17-.02-.25.02l-1.42.72c-1.21.62-2.11,1.02-3.01,1.33l.69-2.26c1.7-.66,3.65-1.49,5.51-2.97l2.26.69-9.5,31.07-2.45-.75Z"/>
        <path class="cls-1" d="M126.14,548.3l16.12-26.48c.05-.09.06-.2.03-.3s-.12-.17-.22-.2l-10.45-3.2.99-3.24,14.6,4.46-.88,2.87-16.02,27.34-4.17-1.27Z"/>
        <path class="cls-1" d="M127.17,547.9l16.12-26.48c.05-.09.06-.2.03-.3s-.12-.17-.22-.2l-10.64-3.25.6-1.95,13.31,4.07-.66,2.15-15.71,26.81-2.83-.87Z"/>
      </g>
      <path class="cls-1" d="M212.52,77.43c-1.07,3.51-2.82,3.98-9.32,2.36-.17-.05-.24-.12-.23-.3.04-1.18-.06-2.49-.28-3.88-.02-.1.06-.21.22-.12.88.41,2.21.86,3.04,1.11,1.92.59,2.73.33,3.31-1.55l2.15-7.02c.04-.13-.02-.23-.14-.27l-13.96-4.27c-.13-.04-.23.02-.27.14-2.17,5-4.83,8.63-9.48,11.41-.05.03-.11.06-.19.03-.04-.01-.08-.03-.11-.08-.82-1.07-1.54-1.84-2.43-2.66-.07-.07-.06-.11-.05-.15s.07-.07.12-.1c7.19-3.79,9.22-9.98,12.1-19.39,1.56-5.1,2.49-8.43,3.18-11.14.05-.17.15-.18.27-.15,3.07,1.03,6.32,2.07,10.45,3.33,4.18,1.28,7.33,2.19,10.41,3.04.17.05.2.11.15.27-1.09,3.28-2.55,7.9-4.1,12.96-2.91,9.53-4.15,14.18-4.83,16.4ZM198.44,60.52l13.75,4.2c.13.04.23-.02.27-.15l1.69-5.52c.04-.13-.02-.23-.14-.27l-13.67-4.18c-.13-.04-.23.02-.27.14l-.52,1.71c-.41,1.34-.79,2.59-1.25,3.78-.04.13.02.23.14.27ZM214.95,55.73c.13.04.23-.02.27-.15l1.67-5.48c.04-.13-.02-.23-.14-.27l-13.67-4.18c-.13-.04-.23.02-.27.15l-1.67,5.48c-.04.13.02.23.14.27l13.67,4.18Z"/>
      <path class="cls-1" d="M184.43,175.13l-3.47-1.06c-.13-.04-.18-.15-.15-.27l.96-3.14c.04-.13-.02-.23-.14-.27l-17.85-5.46c-.13-.04-.23.02-.27.14l-.97,3.18c-.04.13-.15.18-.27.14l-3.39-1.04c-.13-.04-.18-.15-.15-.27,1.51-4.2,3.95-11.73,5.84-17.92,1.87-6.1,3.58-11.7,4.77-15.91.05-.17.15-.18.27-.14,4.1,1.39,8.91,2.86,12.46,3.95,3.72,1.14,8.36,2.56,12.54,3.7.17.05.18.15.15.27-1.34,4.07-3.02,9.59-4.86,15.61-2.1,6.86-4.18,14.26-5.2,18.34-.04.13-.15.18-.27.15ZM186.88,153.21c.13.04.23-.02.27-.15l3-9.82c.04-.13-.02-.23-.14-.27l-17.85-5.46c-.13-.04-.23.02-.27.14l-3,9.82c-.04.13.02.23.14.27l17.85,5.46ZM168.05,150.97c-.13-.04-.23.02-.27.14l-3.16,10.33c-.04.13.02.23.14.27l17.85,5.46c.13.04.23-.02.27-.15l3.16-10.33c.04-.13-.02-.23-.14-.27l-17.85-5.46Z"/>
      <g>
        <path class="cls-1" d="M147.59,186.12s.06-.06.11-.09c6.27-3.64,13.58-4.23,20.1-2.23,6.56,2,12.29,6.58,15.41,13.09.03.05.05.1.04.13s-.02.07-.12.12l-1.67,1.1s-.1.05-.13.04c-.07-.02-.1-.07-.13-.12-5.84-11.86-21.18-16.22-32.56-9.96-.05.03-.1.05-.17.03-.04-.01-.06-.06-.09-.11l-.77-1.85c-.05-.1-.04-.13-.03-.17Z"/>
        <path class="cls-1" d="M164.46,235.03l-3.06-.93c-.11-.03-.16-.13-.13-.24l.84-2.76c.03-.11-.02-.21-.13-.24l-15.73-4.81c-.11-.03-.21.02-.24.13l-.86,2.8c-.03.11-.13.16-.24.13l-2.98-.91c-.11-.03-.16-.13-.13-.24,1.33-3.7,3.48-10.34,5.15-15.79,1.64-5.38,3.15-10.31,4.21-14.02.04-.15.13-.16.24-.13,3.61,1.23,7.85,2.52,10.98,3.48,3.28,1,7.37,2.25,11.05,3.26.15.05.16.13.13.24-1.18,3.59-2.66,8.45-4.29,13.76-1.85,6.04-3.68,12.57-4.58,16.16-.03.11-.13.16-.24.13ZM166.62,215.71c.11.03.21-.02.24-.13l2.65-8.66c.03-.11-.02-.21-.13-.24l-15.73-4.81c-.11-.03-.21.02-.24.13l-2.65,8.66c-.03.11.02.21.13.24l15.73,4.81ZM150.02,213.74c-.11-.03-.21.02-.24.13l-2.78,9.1c-.03.11.02.21.13.24l15.73,4.81c.11.03.21-.02.24-.13l2.78-9.1c.03-.11-.02-.21-.13-.24l-15.73-4.81Z"/>
        <path class="cls-1" d="M168.54,245.15s-.06.06-.11.09c-6.27,3.64-13.58,4.23-20.1,2.23-6.56-2-12.29-6.58-15.41-13.09-.03-.05-.05-.1-.04-.13s.02-.07.12-.13l1.67-1.1s.1-.05.13-.04c.07.02.1.07.12.12,5.84,11.86,21.18,16.22,32.56,9.96.05-.03.1-.05.17-.03.04.01.06.06.09.11l.76,1.85c.05.1.04.13.03.17Z"/>
      </g>
      <path class="cls-1" d="M114.55,336.59c-1.22,3.83-2.24,7.04-3.67,11.72-1.46,4.77-2.75,8.99-4.06,14.17-.04.13-.15.18-.27.14l-3.01-.92c-.13-.04-.18-.15-.14-.27l.79-2.59c.04-.13-.02-.23-.14-.27l-4.56-1.39c-.13-.04-.23.02-.27.15l-.98,3.22c-.04.13-.15.18-.27.14l-3.01-.92c-.13-.04-.18-.15-.14-.27,1.69-4.65,3.37-9.99,4.79-14.63,1.43-4.68,2.48-8.11,3.47-11.78.05-.17.15-.18.27-.15,1.6.58,3.35,1.16,5.44,1.8,2.3.7,3.98,1.17,5.64,1.59.17.05.2.11.15.27ZM108.04,345.47c.13.04.23-.02.27-.14l2.13-6.98c.04-.13-.02-.23-.14-.27l-4.56-1.39c-.13-.04-.23.02-.27.15l-2.13,6.98c-.04.13.02.23.14.27l4.56,1.39ZM102.64,346.84c-.13-.04-.23.02-.27.15l-2.22,7.27c-.04.13.02.23.14.27l4.56,1.39c.13.04.23-.02.27-.15l2.22-7.27c.04-.13-.02-.23-.14-.27l-4.56-1.39ZM127.09,345.95l-1.27,4.14c-.04.13.02.23.14.27,4.14,1.27,7.47,2.19,10.19,2.84.17.05.18.15.14.27l-.86,2.8c-.04.13-.11.2-.27.15-2.88-1.06-6.44-2.24-11.17-3.69-5.69-1.74-8.76-2.59-11.7-3.3-.13-.04-.18-.15-.14-.27l.86-2.8c.04-.13.15-.18.27-.15,2.34.85,4.87,1.72,8.95,3.01.17.05.23-.02.27-.14l1.27-4.14c.04-.13.02-.22-.15-.27-3.39-1.04-5.79-1.68-7.89-2.14-.13-.04-.18-.15-.15-.27l.86-2.8c.04-.13.15-.18.27-.14,2.01.75,4.37,1.56,7.74,2.64.17.05.23-.02.27-.14l.27-.88c.58-1.88.87-3.3,1.05-4.62,0-.18.11-.2.23-.16,1.17.5,2.75,1.16,3.66,1.62.59.32.53.8-.11,1.11-.57.24-.88.92-1.39,2.59l-.41,1.34c-.04.13.02.23.14.27,3.3,1.01,6,1.74,8.27,2.25.17.05.18.15.15.27l-.86,2.8c-.04.13-.11.2-.27.15-2.12-.83-4.81-1.75-8.12-2.76-.13-.04-.23.02-.27.14ZM128.53,358.6c-.04.13.02.23.15.27,1.85.52,3.38.9,4.84,1.21.17.05.18.15.15.27l-.91,2.97c-.04.13-.11.2-.27.14-1.38-.56-2.86-1.1-4.69-1.71-.13-.04-.23.02-.27.15l-1.2,3.93c-.51,1.67-.99,3.4-1.39,4.7-1.09,3.55-2.6,4.01-8.81,2.34-.17-.05-.23-.16-.23-.3-.01-1.15-.09-2.4-.3-3.52-.02-.1.06-.21.19-.17,1.34.55,2.41.92,3.38,1.22,1.59.49,2.25.28,2.86-1.73l2.29-7.48c.04-.13.02-.22-.14-.27l-2.72-.83c-5.48-1.67-8.33-2.5-11.13-3.08-.13-.04-.18-.15-.14-.27l.91-2.97c.04-.13.15-.18.27-.15,2.65,1.04,5.46,2.03,10.93,3.71l2.72.83c.17.05.25-.06.27-.14.38-1.39.6-2.42.74-3.48,0-.18.11-.2.23-.16,1.14.44,2.49.99,3.44,1.46.59.32.54.76-.06,1.08-.44.23-.72.7-1.11,1.99ZM112.51,360.14l2.58-.81c.15-.05.23-.02.32.14.87,1.64,1.93,4.16,2.52,6.12.04.15.02.23-.13.28l-3.09.84c-.15.04-.28,0-.31-.19-.44-2.01-1.17-4.24-1.99-6.05-.06-.11-.05-.29.1-.33Z"/>
      <path class="cls-1" d="M71.95,438.53c-.45-1.05-.92-1.93-1.65-2.97-.2-.24-.19-.29-.17-.33s.03-.08.12-.1c5.58-1.22,9.96-4.18,13.74-8,1.25-1.26,2.25-2.74,2.83-4.03.04-.13.12-.1.23-.02.96.75,2.3,2.03,2.96,2.73.72.77.61,1.28-.24,1.39-.62.08-1.19.6-1.92,1.33-4.31,4.53-9.92,8.53-15.63,10.17-.15.05-.21-.06-.27-.17ZM90.57,440.43c4.81,1.47,6.77,2.07,8.97,2.65.17.05.18.15.14.27-.48,1.27-1.35,3.66-2.05,5.82-1.02,3.03-2.46,6.56-3.31,8.13-2.11,3.61-4.55,3.96-7.98,2.91-1-.31-2.06-.72-2.86-1.1-.15-.09-.17-.19-.17-.33.01-1.09-.03-2.16-.14-3.56,0-.14.06-.21.22-.12,1.33.73,2.71,1.29,3.8,1.62,1.96.6,3.2.29,4.32-2.15,1.36-2.97,2.7-6.58,3.56-9.24.04-.13-.02-.23-.14-.27l-7.27-2.22c-.13-.04-.23.02-.31.13-3.14,7.13-7.91,11.39-15.74,13.2-.1.02-.14,0-.18,0-.08-.03-.15-.09-.18-.15-.54-1.08-1.21-2.02-1.99-3.08-.1-.12,0-.18.11-.2,7.35-1.18,11.93-5.08,14.37-10.83.09-.15.03-.26-.09-.3-2.98-.87-4.88-1.4-6.67-1.81-.13-.04-.18-.15-.15-.27l.88-2.88c.06-.21.23-.3.44-.23,2.62.99,5.54,1.92,12.44,4.03ZM95.82,425.94l3.54-.38c.1-.02.43-.05.47-.04s.07.07.07.21c-.2,7.53,2.27,15.14,8.68,20.8.07.07.06.11.05.15s-.03.08-.08.11c-1.36.73-2.66,1.52-3.61,2.23-.12.1-.21.07-.31-.05-5.07-5.98-7.42-11.91-8.29-19.22-.14-1.19-.38-2.36-.7-3.55-.05-.15.04-.26.17-.27Z"/>
      <path class="cls-1" d="M73.3,495.89c1.43-4.68-2.52-10-.55-16.44,1.29-4.22,4.6-6.82,8.57-7.99.1-.02.14,0,.18,0,.08.03.11.08.13.18l.8,2.76c.05.15,0,.28-.14.32-3.07,1.07-5.28,3.05-6.11,5.77-1.43,4.68,2.52,10,.55,16.44-1.3,4.26-4.55,6.79-8.57,7.99-.1.02-.14,0-.18,0-.08-.03-.11-.08-.13-.18l-.8-2.76c-.05-.15,0-.28.14-.32,3.07-1.07,5.26-3.01,6.11-5.77Z"/>
      <g>
        <path class="cls-1" d="M87.62,410.63c-5.15-1.57-6.58-4.76-4.78-10.64l.04-.13,3.78,1.16-.04.13c-.42,1.37-1.69,5.53,1.74,6.57,2.55.78,4.45-.99,5.8-5.42.48-1.58,1.95-6.39-2.47-7.75l-2.37-.72.89-2.92,2.33.71c3.88,1.19,5.16-1.85,6.06-4.79,1.19-3.9.68-6.13-1.56-6.82-2.49-.76-4.28.75-5.46,4.62l-.07.23-3.69-1.13.1-.32c1.65-5.39,5.24-7.68,9.85-6.27,4.89,1.49,6.34,4.87,4.58,10.63-1.28,4.18-3.36,6.09-6.74,6.19-.15,0-.28.11-.32.25-.04.14.02.3.15.37,3.25,1.98,3.92,4.28,2.54,8.77-1.96,6.42-5.35,8.79-10.35,7.26Z"/>
        <path class="cls-1" d="M106.68,416.46c-7.26-2.22-5.78-9.02-2.68-19.13,2.99-9.78,5.67-16.53,12.91-14.32,7.26,2.22,5.78,9,2.7,19.09-3.09,10.12-5.66,16.58-12.92,14.36ZM116.04,385.83c-3.37-1.03-5.08,2.42-8.22,12.66-3.14,10.27-3.66,14.11-.28,15.14,3.42,1.05,4.98-2.09,8.23-12.71,3.41-11.15,3.46-14.12.27-15.09Z"/>
      </g>
      <g>
        <path class="cls-1" d="M18.46,636.1c-5.15-1.57-6.58-4.76-4.78-10.64l.04-.14,3.78,1.16-.04.14c-.42,1.37-1.69,5.53,1.74,6.57,2.55.78,4.45-.99,5.8-5.42.48-1.58,1.95-6.39-2.47-7.75l-2.37-.72.89-2.92,2.33.71c3.88,1.19,5.16-1.85,6.06-4.79,1.19-3.9.68-6.13-1.56-6.82-2.49-.76-4.27.75-5.46,4.62l-.07.23-3.69-1.13.1-.32c1.65-5.39,5.24-7.68,9.85-6.27,4.89,1.49,6.34,4.87,4.58,10.63-1.28,4.18-3.36,6.09-6.74,6.19-.15,0-.28.11-.32.25-.04.14.02.3.15.37,3.25,1.98,3.92,4.28,2.54,8.77-1.96,6.42-5.35,8.79-10.35,7.26Z"/>
        <path class="cls-1" d="M37.52,641.93c-7.26-2.22-5.78-9.02-2.68-19.13,2.99-9.78,5.67-16.53,12.91-14.32,7.26,2.22,5.78,9,2.7,19.09-3.09,10.12-5.66,16.58-12.92,14.36ZM46.89,611.3c-3.37-1.03-5.09,2.42-8.22,12.66-3.14,10.27-3.66,14.11-.28,15.14,3.42,1.05,4.98-2.09,8.23-12.71,3.41-11.15,3.46-14.12.27-15.09Z"/>
      </g>
      <g>
        <path class="cls-1" d="M168.93,117.4l.95-3.1,11.62-9.63c3.81-3.12,5.18-5.81,6.36-9.68.88-2.89.25-4.62-1.93-5.28-3.12-.95-4.55,1.95-5.44,4.73l-3.74-1.14c1.85-5.72,5.21-7.88,9.99-6.42,4.76,1.45,6.34,4.55,4.84,9.46-1.44,4.71-3.44,7.64-7.66,11.19l-9.09,7.7c-.09.08-.14.2-.11.32s.11.22.23.25l9.63,2.94-.96,3.15-14.69-4.49Z"/>
        <path class="cls-1" d="M195.98,126.27c-7.26-2.22-5.78-9.02-2.68-19.13,2.99-9.78,5.67-16.53,12.91-14.32,7.26,2.22,5.78,9,2.7,19.09-3.09,10.12-5.66,16.58-12.92,14.36ZM205.34,95.64c-3.37-1.03-5.08,2.42-8.22,12.66-3.14,10.27-3.66,14.11-.28,15.14,3.42,1.05,4.98-2.09,8.23-12.71,3.41-11.15,3.46-14.12.27-15.09Z"/>
      </g>
      <path class="cls-1" d="M124.17,324.89c-4.84-1.48-6.25-4.98-4.41-11.03l3.74,1.14-.03.09c-1.23,4.03-.74,6.31,1.51,7,3.52,1.08,5.62-3.19,7.68-9.93l.5-1.64c.05-.15-.02-.31-.15-.39-.02-.01-.05-.02-.07-.03-.12-.04-.25,0-.34.08-1.55,1.57-3.27,1.96-5.56,1.26-3.94-1.21-5.24-5.37-3.48-11.14,2.29-7.49,5.84-10.39,10.84-8.86,7.39,2.26,5.91,9.06,2.82,19.18-2.89,9.46-5.69,16.52-13.05,14.27ZM133.62,294.3c-3.48-1.06-5.27,3.35-6.31,6.76-1.35,4.42-.72,7.17,1.82,7.94,2.61.8,4.66-1.2,6.11-5.92,1.54-5.03,1-7.98-1.61-8.78Z"/>
      <g>
        <path class="cls-1" d="M45.41,545l8.12-26.56c.04-.13,0-.27-.11-.36-.03-.03-.08-.05-.12-.06-.08-.03-.17-.02-.25.02-1.7.87-2.87,1.34-4.33,1.74l1.16-3.79c2.03-.77,4.01-1.62,5.91-3.2l3.24.99-9.89,32.36-3.74-1.14Z"/>
        <path class="cls-1" d="M64.65,551.49c-7.47-2.28-5.9-8.76-2.73-19.15,2.79-9.14,5.7-16.52,13.05-14.27,5.78,1.77,5.57,5.76,4.66,10.1l-3.67-1.12c.99-3.7.46-5.5-1.79-6.19-3.4-1.04-5.09,2.63-7.9,10.65-.05.15,0,.31.14.4.03.02.05.03.08.04.12.04.24,0,.33-.08,1.59-1.54,3.36-1.94,5.57-1.26,4.24,1.3,5.3,5.18,3.26,11.87-2.3,7.51-5.99,10.54-10.99,9.02ZM70.34,533.06c-3.52-1.08-5.17,2.86-6.1,5.92-.78,2.54-2.6,8.49,1.29,9.68,3.84,1.17,5.27-3.54,6.43-7.32,1.05-3.45,1.88-7.21-1.61-8.28Z"/>
      </g>
      <path class="cls-1" d="M46.11,560.45c-1.22,3.83-2.24,7.04-3.67,11.72-1.46,4.77-2.75,8.99-4.06,14.16-.04.13-.15.18-.27.15l-3.01-.92c-.13-.04-.18-.15-.14-.27l.79-2.59c.04-.13-.02-.23-.14-.27l-4.56-1.39c-.13-.04-.23.02-.27.14l-.98,3.22c-.04.13-.15.18-.27.15l-3.01-.92c-.13-.04-.18-.15-.14-.27,1.69-4.65,3.37-9.99,4.79-14.63,1.43-4.68,2.48-8.11,3.47-11.79.05-.17.15-.18.27-.14,1.6.58,3.35,1.16,5.44,1.8,2.3.7,3.98,1.17,5.64,1.59.17.05.2.11.15.27ZM39.6,569.34c.13.04.23-.02.27-.15l2.13-6.98c.04-.13-.02-.23-.14-.27l-4.56-1.39c-.13-.04-.23.02-.27.14l-2.13,6.98c-.04.13.02.23.14.27l4.56,1.39ZM34.2,570.7c-.13-.04-.23.02-.27.14l-2.22,7.27c-.04.13.02.23.14.27l4.56,1.39c.13.04.23-.02.27-.14l2.22-7.27c.04-.13-.02-.23-.14-.27l-4.56-1.39ZM58.65,569.81l-1.27,4.14c-.04.13.02.23.14.27,4.14,1.27,7.47,2.19,10.19,2.84.17.05.18.15.14.27l-.86,2.8c-.04.13-.11.2-.27.14-2.88-1.06-6.44-2.24-11.17-3.69-5.69-1.74-8.76-2.59-11.7-3.3-.13-.04-.18-.15-.14-.27l.86-2.8c.04-.13.15-.18.27-.14,2.34.85,4.87,1.72,8.95,3.01.17.05.23-.02.27-.15l1.27-4.14c.04-.13.02-.22-.15-.27-3.39-1.04-5.79-1.68-7.89-2.14-.13-.04-.18-.15-.15-.27l.86-2.8c.04-.13.15-.18.27-.15,2.01.75,4.37,1.56,7.74,2.64.17.05.23-.02.27-.14l.27-.88c.58-1.88.87-3.3,1.05-4.62,0-.18.11-.2.23-.16,1.17.5,2.75,1.16,3.66,1.62.59.32.53.8-.11,1.11-.57.24-.88.92-1.39,2.59l-.41,1.34c-.04.13.02.23.14.27,3.3,1.01,6,1.74,8.27,2.25.17.05.18.15.15.27l-.86,2.8c-.04.13-.11.2-.27.14-2.12-.83-4.81-1.75-8.12-2.76-.13-.04-.23.02-.27.15ZM60.09,582.46c-.04.13.02.23.15.27,1.85.52,3.38.9,4.84,1.21.17.05.18.15.15.27l-.91,2.97c-.04.13-.11.2-.27.15-1.38-.56-2.86-1.1-4.69-1.71-.13-.04-.23.02-.27.14l-1.2,3.93c-.51,1.67-.99,3.4-1.39,4.7-1.09,3.55-2.6,4.01-8.81,2.34-.17-.05-.23-.16-.23-.3-.01-1.15-.09-2.4-.3-3.52-.02-.1.06-.21.19-.17,1.34.55,2.41.92,3.38,1.22,1.59.49,2.25.28,2.86-1.73l2.29-7.48c.04-.13.02-.22-.14-.27l-2.72-.83c-5.48-1.67-8.33-2.5-11.13-3.08-.13-.04-.18-.15-.14-.27l.91-2.97c.04-.13.15-.18.27-.14,2.65,1.04,5.46,2.03,10.93,3.71l2.72.83c.17.05.25-.06.27-.15.38-1.39.6-2.42.74-3.48,0-.18.11-.2.23-.16,1.14.44,2.49.99,3.44,1.46.59.32.54.76-.06,1.08-.44.23-.72.7-1.11,1.99ZM44.07,584.01l2.58-.81c.15-.05.23-.02.32.14.87,1.64,1.93,4.16,2.52,6.12.04.15.02.23-.13.28l-3.09.84c-.15.05-.28,0-.31-.19-.44-2.01-1.17-4.24-1.99-6.05-.06-.11-.05-.29.1-.33Z"/>
      <path class="cls-1" d="M2.75,664.9c-.45-1.05-.92-1.93-1.65-2.97-.2-.24-.19-.29-.17-.33s.03-.08.12-.1c5.58-1.22,9.96-4.18,13.74-8,1.25-1.26,2.25-2.74,2.83-4.03.04-.13.12-.1.23-.02.96.75,2.3,2.03,2.96,2.73.72.77.61,1.28-.24,1.39-.62.08-1.19.6-1.92,1.33-4.31,4.53-9.92,8.53-15.63,10.17-.15.05-.21-.06-.27-.17ZM21.37,666.8c4.81,1.47,6.77,2.07,8.97,2.65.17.05.18.15.14.27-.48,1.27-1.35,3.66-2.05,5.82-1.02,3.03-2.46,6.56-3.31,8.13-2.11,3.61-4.55,3.96-7.98,2.91-1-.31-2.06-.72-2.86-1.1-.15-.09-.17-.19-.17-.33.01-1.09-.03-2.16-.14-3.56,0-.14.06-.21.22-.12,1.33.73,2.71,1.29,3.8,1.62,1.96.6,3.2.29,4.32-2.15,1.36-2.97,2.7-6.58,3.56-9.24.04-.13-.02-.23-.14-.27l-7.27-2.22c-.13-.04-.23.02-.31.13-3.14,7.13-7.91,11.39-15.74,13.2-.1.02-.14,0-.18,0-.08-.03-.15-.09-.18-.15-.54-1.08-1.21-2.02-1.99-3.08-.1-.12,0-.18.11-.2,7.35-1.18,11.93-5.08,14.37-10.83.09-.15.03-.26-.09-.3-2.98-.87-4.88-1.4-6.67-1.81-.13-.04-.18-.15-.15-.27l.88-2.88c.06-.21.23-.3.44-.23,2.62.99,5.54,1.92,12.44,4.03ZM26.62,652.31l3.54-.38c.1-.02.43-.05.47-.04s.07.07.07.21c-.2,7.53,2.27,15.14,8.68,20.8.07.07.06.11.05.15s-.03.08-.08.11c-1.36.73-2.66,1.52-3.61,2.23-.12.1-.21.07-.31-.05-5.07-5.98-7.42-11.91-8.29-19.22-.14-1.19-.38-2.36-.7-3.55-.05-.15.04-.26.17-.27Z"/>
    </g>
  </g>
</svg>