<?xml version="1.0" encoding="UTF-8"?>
<svg id="_レイヤー_2" data-name="レイヤー 2" xmlns="http://www.w3.org/2000/svg" viewBox="0 0 453.45 1305.73">
  <defs>
    <style>
      .cls-1 {
        fill: #231815;
      }
    </style>
  </defs>
  <g id="_レイヤー_1-2" data-name="レイヤー 1">
    <g>
      <path class="cls-1" d="M420.57,44.87c4.49,7.79,10.57,14.11,20.07,20.33.19.13.23.22.19.36-.02.07-.11.12-.2.16-1.73.98-4.39,2.74-6.16,4.08-.2.17-.41.1-.6-.03-7.94-6.13-13.87-12.93-18.43-22.48-.1-.18-.26-.15-.3-.02-1.85,6.53-3.29,11.99-4.74,17.96-.06.21-.24.3-.45.24l-6.77-2.07c-.21-.06-.3-.24-.24-.45,2.1-5.63,3.95-10.95,6.05-17.33.06-.21-.07-.25-.26-.15-8.81,4.86-16.91,7.14-28.35,8.25-.32.05-.41-.13-.49-.38-.57-1.84-1.68-4.14-2.8-6.14-.05-.09-.1-.18-.07-.25s.04-.14.27-.14c11.44-.13,20-2.42,28.23-6.62.18-.1.22-.23.02-.3-4.72-1.37-9.23-2.67-13.44-3.73-.21-.06-.3-.24-.24-.45,1.32-3.83,2.42-7.42,3.9-12.25,1.22-4.01,2.26-7.39,3.2-10.95.08-.28.24-.3.45-.24,5.28,1.76,11.28,3.6,17.64,5.54.28.08.39-.03.45-.24l.99-3.25c.06-.21.04-.37-.24-.45-11.47-3.51-18.92-5.56-25.88-7.23-.21-.06-.3-.24-.24-.45l1.82-5.94c.06-.21.24-.3.45-.24,6.71,2.5,14.11,4.99,25.43,8.46.28.08.39-.03.45-.24.73-2.65,1.09-4.8,1.05-7.15,0-.23.17-.32.38-.26,2.74.91,5.51,1.99,7.36,2.85,1.06.48,1.06,1.23-.04,1.87-1.01.6-1.56,1.64-2.47,4.61-.06.21.03.39.24.45,11.81,3.61,19.04,5.67,26.37,7.38.28.08.3.24.24.45l-1.82,5.94c-.06.21-.18.32-.45.24-7.06-2.61-14.24-5.03-25.99-8.62-.21-.06-.39.03-.45.24l-.99,3.25c-.06.21.03.39.24.45,6.56,2.01,12.64,3.86,18.07,5.37.28.08.3.24.24.45-1.22,3.48-2.23,6.79-3.43,10.73-1.5,4.9-2.62,8.56-3.66,12.47-.06.21-.18.32-.45.24-3.62-1.26-8.69-2.96-14.07-4.61-.14-.04-.18.1-.08.28ZM414.2,27.14c.21.06.39-.03.45-.24l1.06-3.45c.06-.21-.03-.39-.24-.45l-11.33-3.46c-.21-.06-.39.03-.45.24l-1.06,3.45c-.06.21.03.39.24.45l11.33,3.46ZM412.99,32.36c.06-.21-.03-.39-.24-.45l-11.33-3.46c-.21-.06-.39.03-.45.24l-1.14,3.73c-.06.21.03.39.24.45l11.33,3.46c.21.06.39-.03.45-.24l1.14-3.73ZM432.65,32.78c.21.06.39-.03.45-.24l1.06-3.45c.06-.21-.03-.39-.24-.45l-11.53-3.53c-.21-.06-.39.03-.45.24l-1.06,3.45c-.06.21.03.39.24.45l11.53,3.53ZM419.65,34.02c-.21-.06-.39.03-.45.24l-1.14,3.73c-.06.21.03.39.24.45l11.53,3.53c.21.06.39-.03.45-.24l1.14-3.73c.06-.21-.03-.39-.24-.45l-11.53-3.53Z"/>
      <path class="cls-1" d="M376.51,120.07c-4.21,2.41-10.64,4.9-16.85,5.95-.32.05-.57-.1-.67-.28-1.05-1.98-1.84-3.36-3.17-5.2-.16-.2-.33-.4-.31-.47s.11-.12.27-.14c6.04-.72,12.34-2.57,16.19-4.79,1.46-.84,2.92-1.9,3.95-3.02.22-.23.36-.19.59.03,1.52,1.45,3.54,3.5,4.53,4.71.99,1.21.4,2.16-.84,2.01-1.1-.11-2.32.42-3.69,1.21ZM429.51,92.92l-1.88,6.15c-.06.21-.18.32-.45.24-7.17-2.72-12.66-4.55-27.92-9.22s-20.71-6.11-28.16-7.93c-.21-.06-.3-.24-.24-.45l1.88-6.15c.06-.21.24-.3.45-.24,6.48,2.51,11.55,4.21,23.78,7.95.28.08.39-.03.45-.24l.68-2.21c.68-2.21,1.12-4.41,1.22-6.2.01-.3.17-.32.38-.26,2.63,1.03,5.7,2.35,7.41,3.17,1.32.63,1.11,1.55-.02,2.03-.88.41-1.31,1.56-1.75,3.01l-.8,2.62c-.06.21.03.39.24.45,12.5,3.82,17.74,5.2,24.5,6.81.28.08.3.24.24.45ZM395.68,114.9l-2.81,9.19c-.84,2.76-1.41,4.85-1.98,6.72-1.79,5.87-5.26,6.09-14.55,3.86-.28-.08-.44-.29-.45-.51-.06-2.51-.28-5-.92-7.61-.07-.25.08-.28.29-.21,1.29.47,3,1.07,4.65,1.57,3.52,1.08,4.25.17,5.18-2.87l3.74-12.22c.06-.21.04-.37-.24-.45-5.46-1.67-10.5-3.21-15.4-4.48-.21-.06-.3-.24-.24-.45,1.31-3.53,2.24-6.34,3.19-9.45.87-2.83,1.63-5.32,2.5-8.9.08-.28.24-.3.45-.24,5.72,2.05,11.66,3.87,18.22,5.87,7.11,2.17,12.91,3.95,18.8,5.45.28.08.3.24.24.45-1.22,3.48-2.04,5.95-2.91,8.78-.95,3.11-1.75,5.96-2.64,9.62-.06.21-.17.32-.45.24-4.58-1.55-9.05-2.99-14.23-4.58-.21-.06-.39.03-.45.24ZM407.7,104c.06-.21-.03-.39-.24-.45l-23.14-7.07c-.21-.06-.39.03-.45.24l-2.28,7.46c-.06.21.03.39.24.45l23.14,7.07c.21.06.39-.03.45-.24l2.28-7.46ZM398.45,122.39l5.9-1.75c.25-.07.37.04.46.22,2.54,5.76,6.79,11.89,12.88,17.15.12.11.1.18.07.25s-.2.17-.54.29c-2.01.9-3.68,1.67-5.93,3.1-.18.1-.41.1-.64-.12-5.22-5.15-9.91-12.55-12.42-18.67-.07-.25.04-.37.22-.46Z"/>
      <path class="cls-1" d="M396.77,212.13c.14.04.19.13.16.2s-.04.14-.17.32c-1.35,1.7-2.63,3.65-3.81,5.56-.15.26-.31.28-.52.22-5.98-1.68-11.51-3.37-19.38-5.77-15.47-4.73-24.05-8.03-27.21-17.46-.07-.25-.19-.36-.46-.22l-5.32,2.83c-1.35.72-1.89,1.23-2.65,1.98-.58.65-1.05.96-1.46.84s-.7-.67-1-1.67c-.67-2.02-1.12-3.74-1.57-5.99-.03-.16-.05-.32-.03-.39.04-.14.13-.19.36-.19.96.07,1.99-.07,3.3-.43,2.06-.58,4.93-1.81,7.5-3.52.2-.16.31-.28.4-.56l4.69-15.33c.06-.21.04-.37-.24-.45-3.87-1.18-6.72-1.98-8.49-2.37-.21-.06-.3-.24-.24-.45l1.71-5.59c.06-.21.24-.3.45-.24,2.31.86,4.63,1.64,7.26,2.45,2.69.82,5.06,1.47,7.38,2.03.28.08.32.18.24.45-.68,1.98-1.41,4.1-2.04,6.17l-4.24,13.88c-2.79,9.12,7.49,13.54,20.47,17.51,10.57,3.23,15.42,4.41,24.92,6.18ZM363.62,153.58l-5.48,2.86c-.27.14-.39.03-.48-.15-1.52-3.18-3.96-7.78-5.91-10.57-.16-.2-.12-.34.15-.48l4.79-2.31c.27-.14.41-.1.57.1,2.19,2.71,5.04,6.98,6.53,10,.14.27.1.41-.17.55ZM365.55,166.03c-1.27-1.52-2.61-2.84-4.13-4.28-.12-.11-.14-.27.04-.37,4.55-2.76,8.53-5.93,11.57-9.45,1.04-1.19,1.71-2.12,2.31-3.37.15-.26.24-.3.5-.15,1.83,1.17,3.84,2.76,5.1,3.82.96.82.59,1.54-.53,1.73-.96.16-1.45.54-2.6,1.85-.47.54-.91,1.01-1.47,1.59-.22.23-.2.39.01.46l6.84,2.09c.21.06.39-.03.45-.24l.53-1.73c.89-2.9,1.39-5.54,1.48-7.33.02-.3.18-.32.38-.26,2.51.92,5.03,2.07,6.58,2.92,1.16.66,1.33,1.31.07,1.99-1.08.57-1.47,1.59-2.38,4.56l-.53,1.73c-.06.21.03.39.24.45,4.44,1.28,10.08,2.85,14.03,3.76.28.08.3.24.24.45l-1.67,5.46c-.06.21-.18.32-.45.24-3.85-1.48-9.4-3.33-13.73-4.73-.21-.06-.39.03-.45.24l-1.79,5.87c-.06.21.03.39.24.45,8.36,2.56,13.51,3.98,18.59,5.15.28.08.3.24.24.45l-1.75,5.73c-.06.21-.18.32-.45.24-5.49-2.06-11.32-3.99-21.75-7.18-10.5-3.21-16-4.74-21.63-6.08-.21-.06-.3-.24-.24-.45l1.75-5.73c.06-.21.24-.3.45-.24,4.8,1.84,9.66,3.48,17.95,6.02.28.08.39-.03.45-.24l1.79-5.87c.06-.21-.03-.39-.24-.45l-9.88-3.02c-.21-.06-.37-.04-.57.13-1.63,1.39-3.38,2.67-5.11,3.88-.2.16-.34.12-.5-.08ZM390.09,208.05l-5.73-1.75c-.21-.06-.3-.24-.24-.45l.63-2.07c.06-.21-.03-.39-.24-.45l-19.48-5.95c-.21-.06-.39.03-.45.24l-.63,2.07c-.06.21-.24.3-.45.24l-5.59-1.71c-.21-.06-.3-.24-.24-.45,1.09-3.07,2.78-8.36,3.69-11.33.72-2.35,1.73-5.66,2.44-8.47.06-.21.24-.3.45-.24,4.29,1.54,8.09,2.7,15.55,4.98,7.94,2.43,12.09,3.7,16.5,4.82.28.08.3.24.24.45-.98,2.72-2,6.04-2.71,8.38-.91,2.97-2.53,8.29-3.28,11.46-.06.21-.24.3-.45.24ZM368.75,185.21c-.21-.06-.39.03-.45.24l-1.77,5.8c-.06.21.03.39.24.45l19.48,5.95c.21.06.39-.03.45-.24l1.77-5.8c.06-.21-.03-.39-.24-.45l-19.48-5.95Z"/>
      <path class="cls-1" d="M347.38,251.63l-3.38,11.05c-1.84,6.01-3.53,12.29-5.1,18.91-.06.21-.24.3-.45.24l-6.91-2.11c-.21-.06-.3-.24-.24-.45,2.47-6.34,4.51-12.52,6.34-18.53l3.4-11.12c.06-.21.04-.37-.24-.45l-5.94-1.82c-.21-.06-.37-.04-.45.24-3.5,10.94-8.68,20-18.59,25.73-.18.1-.41.1-.51-.08-1.26-2.05-2.61-3.82-4.02-5.38-.12-.11-.1-.18-.07-.25s.2-.16.29-.21c8.46-4.44,13.09-10.95,16.59-21.66.08-.28.04-.37-.24-.45-3.13-.88-5.84-1.64-8.19-2.13-.21-.06-.3-.24-.24-.45l1.79-5.87c.06-.21.24-.3.45-.24,2.22.9,4.89,1.8,7.98,2.82.28.08.39-.03.45-.24l3.86-12.64c.06-.21.04-.37-.24-.45-2.44-.67-4.6-1.26-6.53-1.62-.21-.06-.3-.24-.24-.45l1.69-5.53c.06-.21.24-.3.45-.24,3.97,1.59,9.34,3.31,16.59,5.52,7.46,2.28,12.25,3.67,16.36,4.55.28.08.3.24.24.45l-1.69,5.53c-.06.21-.18.32-.45.24-1.87-.8-3.99-1.52-6.46-2.35-.21-.06-.39.03-.45.24l-3.86,12.64c-.06.21.03.39.24.45,2.58.71,4.81,1.32,6.8,1.7.28.08.3.24.24.45l-1.79,5.87c-.06.21-.17.32-.45.24-1.87-.8-4.06-1.54-6.59-2.39-.21-.06-.39.03-.45.24ZM343.01,243.2l3.91-12.78c.06-.21.04-.37-.24-.45l-5.94-1.82c-.21-.06-.39.03-.45.24l-3.91,12.78c-.06.21.03.39.24.45l5.94,1.82c.28.08.39-.03.45-.24ZM378.39,272.75c-.15.48-.67.7-1.31.58-.94-.14-2.06.05-3.47.98-6.59,4.25-16.93,8.95-25.91,10.88-.16.03-.32.05-.39.03s-.12-.11-.21-.29c-.83-2.22-1.61-3.89-2.8-5.92-.1-.18-.03-.39.29-.44,9.82-1.23,19.23-5.6,25.97-10.34.96-.69,2.1-1.7,3.09-2.68.22-.23.38-.26.55-.06,1.37,1.93,2.73,3.93,3.97,6.05.24.45.32.93.24,1.2ZM377.71,247.31c.22-.23.38-.26.55-.06,1.3,1.91,2.61,3.82,3.85,5.93.67,1.26,0,1.96-1.1,1.86-1.01-.16-1.94-.07-3.61.94-5.52,3.22-14.55,7.33-23.62,9.32-.16.03-.37-.04-.44-.29-.74-2.27-1.67-3.91-2.8-5.92-.1-.18-.12-.34.2-.39,9.88-1.44,17.72-4.85,23.77-8.82,1.01-.6,2.22-1.59,3.2-2.57ZM360.29,246.97c-1.01-2.12-2.04-3.72-3.29-5.54-.14-.27-.1-.41.15-.48,8.43-1.88,14.23-4.56,19.83-9.04.9-.71,1.97-1.74,2.88-2.75.11-.12.2-.16.34-.12.07.02.14.04.19.13,1.44,1.72,2.8,3.42,4.18,5.36.9,1.26.21,2.03-.89,1.92-.96-.07-1.85.11-3.29,1.11-5.05,3.67-11.24,7.14-19.63,9.63-.25.07-.37-.04-.46-.22Z"/>
      <path class="cls-1" d="M332.68,320.47c-.39,15.59,6.09,27.77,17.94,37.66.49.38.61.49.58.56s-.11.12-.2.17c-2.82,1.33-5.41,2.88-6.74,3.76-.58.43-.65.4-.72.38s-.14-.04-.37-.26c-9.5-9.17-15.58-20.17-16.62-34.31,0-.23-.14-.27-.28-.08-7.15,10.8-17.13,16.74-32.74,19.14-.32.05-.48.08-.55.06s-.14-.04-.21-.29c-.96-2.79-1.82-4.18-3.27-6.36-.33-.4-.31-.47-.29-.54s.18-.1.41-.1c17.71-1.61,28.41-8.68,34.9-22.26.06-.21.11-.35-.17-.43-10.86-3.25-18.02-5.28-24.85-6.92-.21-.06-.3-.24-.24-.45l2.03-6.63c.06-.21.24-.3.45-.24,6.71,2.51,13.9,4.93,24.95,8.31.28.08.46-.01.52-.22l.59-1.93c2.36-7.73,2.84-10.76,3.04-13.65.01-.3.24-.3.45-.24,2.26.77,6.11,2.25,7.92,3.25,1.04.55,1.2,1.5-.09,2.01-1.29.51-1.74,1.73-3.32,6.91-.68,2.21-1.25,4.08-1.82,5.71-.06.21.03.39.24.45,11.53,3.53,18.99,5.58,26.09,7.3.28.08.3.24.24.45l-2.03,6.63c-.06.21-.17.32-.45.24-6.71-2.51-13.83-4.91-25.09-8.35-.14-.04-.3-.02-.31.28Z"/>
      <path class="cls-1" d="M332.9,416.6l-1.79,5.87c-.06.21-.17.32-.45.24-6.25-2.29-11.92-4.25-23.43-7.84-.21-.06-.39.03-.38.26-.28,1.65-.72,3.33-1.27,5.13-2.43,7.94-6.33,11.06-14.89,8.44-.97-.3-2.35-.72-3.29-1.08-.21-.06-.32-.17-.31-.47.13-2.15,0-4.23-.44-6.48-.03-.16.04-.37.29-.21,1.78.85,3.88,1.64,5.47,2.12,3.45,1.06,5.12.05,6.53-4.57.57-1.87.99-3.47,1.2-4.92.02-.3-.03-.39-.24-.45-15.47-4.73-22.3-6.59-29.75-8.42-.21-.06-.3-.24-.24-.45l1.79-5.87c.06-.21.24-.3.45-.24,6.88,2.71,13.35,4.76,27.44,9.07.28.08.39-.03.31-.28-.63-2.15-1.81-3.95-3.77-6.44-.17-.2-.33-.4,0-.53l5.02-1.86c.34-.12.46-.01.62.19,1.18,1.34,2.05,2.67,2.86,3.97.1.18.28.31.53.24,2.83-.87,5.98-2.02,8.42-3.09.27-.14.15-.25.02-.3l-3.38-1.03c-12.29-3.76-17.56-5.29-23.63-6.7-.21-.06-.3-.24-.24-.45l1.69-5.52c.06-.21.24-.3.45-.24,5.77,2.37,11.09,3.99,28.22,9.23,2.83.87,3.15.81,4.33.42.98-.23,1.53-.06,2.08.86.69.97,1.84,3.13,2.39,4.05.63,1.4.05,2.05-1.25,2.11-1.21,0-2.23.38-3.95,1.06-3.35,1.32-8.78,3.28-13.27,4.63-.25.07-.34.12-.29.44l.19,1.11c.05.32.24.45.45.51,12.5,3.82,18.48,5.5,25.26,7.04.28.08.3.24.24.45ZM286.33,379.71c-.21-.06-.39.03-.45.24l-2.66,8.7c-.06.21-.24.3-.45.24l-6.15-1.88c-.21-.06-.3-.24-.24-.45,1.25-3.09,1.99-5.28,2.75-7.77.53-1.73,1.2-3.94,1.78-6.33.08-.28.24-.3.45-.24,3.07,1.09,6.45,2.12,10.99,3.59.21.06.32-.05.26-.37-.62-2.91-1.72-6.49-2.79-9.39-.07-.25-.03-.39.22-.46l5.26-1.41c.25-.07.46-.01.6.26,1.33,2.82,2.65,6.4,3.59,10.01.07.25-.04.37-.22.46l-4.97,1.2c-.25.07-.22.23-.02.3l15.75,4.81c2.62.8,4.97,1.52,7.11,2.18.28.08.43.06.64-.11,2.78-2.17,5.66-4.69,7.96-7.01,1.09-1.1,1.91-2.06,2.68-3.33.13-.19.2-.16.34-.12.07.02.14.04.26.15,1.89,1.71,3.79,3.42,5.24,5.08.96,1.05.51,2.04-.73,1.89-1.1-.11-2.04.51-3.25,1.5-1.52,1.27-3.38,2.67-5.22,3.99-.2.16-.11.35.1.41,5.87,1.79,9.9,2.95,13.67,3.95.28.08.3.24.24.45-.77,2.26-1.46,4.54-1.99,6.26-.76,2.49-1.39,4.79-2.13,7.96-.06.21-.24.3-.45.24l-6.15-1.88c-.21-.06-.3-.24-.24-.45l2.66-8.7c.06-.21-.03-.39-.24-.45l-44.2-13.51ZM314.5,378.96l-6.45.6c-.23,0-.41-.13-.42-.36.03-3.54-.28-6.5-.96-9.96-.05-.32.13-.41.35-.42l5.86-.63c.23,0,.3.02.37.26.79,3.34,1.26,6.5,1.6,10.08,0,.23-.13.41-.35.42Z"/>
      <path class="cls-1" d="M310.8,476.53c-.06.21-.24.3-.52.22-4.06-1.54-9.94-3.57-16.27-5.58-.21-.06-.44-.06-.52.22-1.8,6.4-4.24,14.86-6.83,24.57-2.26,8.14-5.28,9.87-18.01,6.28-.21-.06-.32-.18-.33-.4.24-2.27.19-5.08-.26-7.56-.05-.32.06-.43.33-.35,8.73,2.82,9.98,2.67,11.38-1.88.95-3.11,3.13-10.22,5.29-17.56.06-.21-.05-.32-.25-.15-9.34,7.57-21.69,11.42-31.54,13.01-.16.03-.37-.04-.44-.29-.72-2.11-1.84-4.11-3.41-6.63-.05-.09-.1-.18-.07-.25s.11-.12.27-.14c12.4-1.27,23.01-5.12,32.09-12.32.2-.17.17-.32-.1-.41-8.86-2.63-18.06-5.14-23.26-6.43-.21-.06-.26-.15-.24-.45.14-.94.5-2.11.92-3.5.42-1.38.8-2.62,1.22-3.48.15-.26.24-.3.45-.24,5.84,2.39,17.38,6.14,27.46,9.23.28.08.39-.03.45-.24,1.11-3.89,2.04-7.16,2.43-8.93.37-1.7.56-3.3.59-4.88,0-.23.15-.26.36-.19,1.66.51,5.6,1.94,7.5,2.9,1.57.78,1.57,1.54.43,2.55-1.14,1.01-1.81,2.47-2.87,5.92-.27.9-.76,2.49-1.44,4.7-.06.21.1.41.24.45,6.42,1.96,12.59,3.55,16.79,4.38.28.08.3.24.31.47-.21.92-.52,2.18-.94,3.56s-.85,2.53-1.19,3.41Z"/>
      <path class="cls-1" d="M263.9,516.05c.06-.21.22-.23.36-.19,2.62.8,5.6,1.94,7.75,3.05,1.11.57,1.42,1.04,1.29,1.45-.11.35-.35.65-.77,1.05-.74.68-1.04,1.19-1.77,3.08-1.09,2.84-3.25,9.65-6.67,20.84-2.49,8.15-5.41,17.68-7.76,26.63-.06.21-.17.32-.45.24-1.06-.25-2.6-.64-4.05-1.09-1.24-.38-2.53-.85-3.69-1.28-.21-.06-.3-.24-.24-.45,3.12-8.71,6.07-18.38,8.52-26.39,2.45-8.01,4.46-14.57,6.05-20.28.75-2.72,1-4,1.31-6.02.04-.37.08-.5.12-.64Z"/>
      <path class="cls-1" d="M266.74,606.56c-.13.41-.55.81-1.36,1.25-1.35.72-2.2,1.52-4.66,4.39-5.46,6.49-19.45,21.62-44.56,24.97-.32.05-.48.08-.62.04s-.23-.22-.28-.31c-1.01-2.12-3.15-5.27-4.7-7.1-.17-.2-.12-.34.26-.37,18.41-.94,33.07-9.6,43.42-22.97.15-.25.2-.39-.08-.48-7.46-2.28-13.1-3.85-21.63-6.31-6.6-1.87-10.93-3.04-14.95-3.97-.21-.06-.32-.17-.31-.47.29-1.2.6-2.46,1.04-3.91s.96-2.88,1.36-3.96c.08-.28.31-.28.52-.22,4.29,1.77,8.12,3.09,14.59,5.14,7.51,2.37,13.72,4.27,20.49,6.34,2.9.89,3.61,1.03,4.52.78.75-.22,1.16-.33,1.5-.22s.7.44,1.14.95c1.46,1.65,3.07,3.81,4.04,5.31.24.45.36.79.26,1.14ZM264.97,594.31c1.33-4.35,5.75-6.7,10.1-5.37,4.42,1.35,6.72,5.68,5.39,10.03-1.37,4.49-5.63,6.81-10.12,5.44-4.28-1.31-6.7-5.75-5.37-10.1ZM276.44,597.82c.63-2.07-.52-4.24-2.59-4.87-2.07-.63-4.24.52-4.87,2.59-.63,2.07.52,4.24,2.59,4.87,2.07.63,4.24-.52,4.87-2.59Z"/>
      <path class="cls-1" d="M190.67,685.41c.04-.14.13-.19.34-.12,2.66.44,5.33.35,8.48.18,14.14-.81,35.18-7.37,48.88-15.87.27-.14.41-.1.39.2-.12,2.61.15,6.16.43,8.21.03.16.05.32.03.39-.04.14-.13.19-.31.28-15.51,8.48-31.32,12.78-49.2,15.92-2.16.4-2.75.59-3.62,1.23-.78.59-1.19.69-1.68.54-.28-.08-.49-.38-.71-.9-.88-2.08-2.22-6.34-2.98-9.52-.03-.16-.08-.48-.06-.55ZM208.82,648.29c.14.04.19.13.35.33,3.25,3.94,7.48,10.6,9.83,15.01.05.09.03.39-.15.48-2.3,1.34-5.02,2.84-7.62,3.94-.18.1-.37-.04-.46-.22-2.4-5.49-6.26-11.88-9.24-15.74-.16-.2-.03-.39.15-.48,1.98-1.28,4.46-2.49,6.5-3.22.34-.12.5-.15.64-.11Z"/>
      <path class="cls-1" d="M224.97,755.79c-4.21-1.06-12.98-2.99-22.7-5.05-.21-.06-.39.03-.4.33-1.07,6.7-2.22,14.42-3.03,21.28-.01.3-.11.35-.4.33-2.36-.19-5.59-.73-7.85-1.27-.21-.06-.3-.24-.24-.45,1.64-7.58,3.01-14.79,4.19-21.37.06-.21.01-.3-.26-.38-10.4-2.05-20.01-3.7-24.09-4.19-.3-.01-.35-.11-.33-.4.26-2.34.68-4.93,1.33-7.07.08-.28.24-.3.45-.24,4.12,1.11,13.58,3.25,23.82,5.32.21.06.34-.12.38-.26.54-3.23,1.11-6.61,1.63-9.77.01-.3-.03-.39-.24-.45-7.12-1.42-13.11-2.57-17.33-3.11-.3-.01-.35-.11-.33-.4.26-2.34.63-4.79,1.31-7,.08-.28.24-.3.45-.24,4.35,1.33,10.23,2.6,16.89,4.03.28.08.39-.03.4-.33.44-2.66.72-4.84.88-6.08.23-1.97.37-4.42.07-6.4-.03-.16.11-.35.31-.28,2.43.44,5.81,1.25,7.26,1.69,2.35.72,2.48,1.29,1.79,2.28-.93,1.3-1.33,2.39-1.84,5.03-.18,1.08-.57,2.85-1.01,5.28-.06.21.1.41.31.47,7.55,1.48,12.88,2.35,17.89,2.98.3.01.35.11.33.4-.18,2.06-.68,4.7-1.38,6.98-.06.21-.18.32-.45.24-3.77-1-10.5-2.46-17.6-3.95-.28-.08-.41.1-.47.31-.49,3.1-1.05,6.4-1.68,9.68-.06.21.1.41.31.47,9.62,1.88,18.77,3.32,23.06,3.88.3.02.35.11.33.4-.13,2.15-.63,4.79-1.33,7.07-.06.21-.18.32-.45.24Z"/>
      <path class="cls-1" d="M209.58,801.08c-.09.31-.33.65-.88.88-.94.39-1.2.59-2.24,1.56-3.62,3.38-8.56,7.1-13.14,9.85-.24.13-.43.07-.58-.11-1.06-1.21-2.59-2.63-4.08-3.76-.17-.12-.11-.31.05-.39,3.35-1.83,6.74-4.26,10.32-7.31.18-.15.16-.29-.05-.29-3.96-.39-9.17-.9-14.32-1.39-.21,0-.29.05-.3.32-.92,9.23-1.63,16.9-2.08,23.7-.01.27-.09.31-.3.32-1.64.04-4.63-.19-6.16-.52-.19-.06-.31-.09-.3-.36,1.01-6.42,1.88-15.26,2.78-23.76.01-.27-.03-.35-.3-.36-3.17-.29-5.77-.47-7.5-.59-2.33-.17-4.18-.33-5.76-.27-.21,0-.35-.18-.36-.38,0-1.36.23-5.43.52-6.37.04-.12.18-.15.31-.11,1.98.4,3.91.79,6.46,1.09,1.84.22,4.06.49,6.95.83.21,0,.29-.05.34-.44.35-3.36.41-5.58.46-7.74.03-1.21-.08-2.2-.14-3.1,0-.21.1-.31.36-.3,2.15.32,5.88.98,6.82,1.27.87.27,1.05.8.51,1.65-.53.86-.72,1.48-1.04,2.95-.22,1.16-.54,3.1-.9,6.05-.01.27.03.35.28.43,6.06.63,12.37,1.34,15.15,1.57,2.06.15,2.78.03,3.51-.35.49-.26.69-.26,1-.17.25.08.52.29.84.6,1.12,1.02,2.36,2.49,3.3,3.66.45.54.58.99.47,1.37Z"/>
      <path class="cls-1" d="M135.1,867.18c.04-.14.13-.19.34-.12,2.66.44,5.33.35,8.48.18,14.14-.81,35.18-7.37,48.88-15.87.27-.14.41-.1.39.2-.12,2.61.15,6.16.43,8.21.03.16.05.32.03.39-.04.14-.13.19-.31.28-15.51,8.48-31.32,12.78-49.2,15.92-2.16.4-2.75.59-3.62,1.23-.79.59-1.19.69-1.68.55-.28-.08-.49-.38-.71-.9-.88-2.08-2.22-6.34-2.98-9.52-.03-.16-.08-.48-.06-.55ZM153.25,830.06c.14.04.19.13.35.33,3.25,3.94,7.48,10.6,9.83,15.01.05.09.03.39-.15.48-2.3,1.34-5.02,2.85-7.62,3.94-.18.1-.37-.04-.46-.22-2.4-5.49-6.26-11.88-9.24-15.74-.16-.2-.03-.39.15-.48,1.98-1.28,4.46-2.49,6.5-3.22.34-.12.5-.15.64-.11Z"/>
      <path class="cls-1" d="M134.09,903.35c.14.04.58.33,1.39.88,1.81,1.23,4.84,3.44,6.01,4.56,1.41,1.34,1.1,2.07-.3,2.7-1.13.49-1.96.99-3.25,2.48-5.32,6.3-13.77,14.67-24.38,19.96-.09.05-.18.1-.32.05s-.26-.15-.3-.24c-1.21-1.96-3.17-4.22-4.85-5.86-.12-.11-.1-.18-.07-.25s.11-.12.2-.16c9.41-4.6,18.43-12.11,23.47-19.71.84-1.26,1.67-2.74,2.11-4.19.06-.21.15-.26.29-.21ZM155.21,913.06c2.27-.51,4.73-.89,6.96-1.04.23,0,.46-.01.53,0s.14.04.26.38c4.01,10.59,7.05,21.64,8.78,32.29.03.16.03.39,0,.53-.02.07-.06.21-.31.28-2.45.84-5.95,1.43-8.5,1.63-.23,0-.37-.04-.42-.35-1.49-12.16-4.13-23.54-7.57-33.28-.07-.25.04-.37.29-.44ZM167.02,905.56c1.33-4.35,5.75-6.7,10.1-5.37,4.42,1.35,6.72,5.68,5.39,10.03-1.37,4.49-5.63,6.81-10.12,5.44s-6.7-5.75-5.37-10.1ZM178.48,909.07c.63-2.07-.52-4.24-2.59-4.87s-4.24.52-4.87,2.59.52,4.24,2.59,4.87c2.07.63,4.24-.52,4.87-2.59Z"/>
      <path class="cls-1" d="M135.11,983.27c4.94,7.55,9.44,15.57,12.76,23.23.1.18.12.34.08.48s-.13.19-.31.28c-2.3,1.11-5.27,2.17-7.95,2.78-.23,0-.37-.04-.44-.29-2.36-6.84-5.72-14.14-10.49-22.24-.14-.27-.3-.24-.48-.15-7.85,4.7-17.59,8.37-29.39,10.42-.32.05-.48.08-.62.04s-.23-.22-.28-.31c-.87-1.85-2.32-4.26-4.23-6.66-.17-.2-.14-.27-.12-.34s.04-.14.27-.14c18.83-1.57,34.84-10.19,45.35-21.86.22-.23.11-.35-.1-.41l-6.63-2.03c-8.29-2.53-14.5-4.21-20.2-5.57-.21-.06-.3-.24-.31-.47.49-2.34,1.44-5.45,2.28-7.46.15-.26.31-.28.52-.22,5.45,2.19,11.9,4.55,25.78,8.79,2.42.74,3.22.83,4.61.5.57-.13,1.05-.21,1.39-.1s.79.39,1.21.97c1.23,1.66,2.84,4.04,3.7,5.44.82,1.53.62,1.93-1.08,2.54s-2.46,1.14-5.56,4.11c-2.7,2.65-5.92,5.52-9.66,8.15-.2.17-.18.32-.08.51Z"/>
      <path class="cls-1" d="M68.47,1063.87l2.17-7.11c.06-.21.24-.3.45-.24,7.82,2.84,18.09,6.06,29.62,9.58,12.02,3.67,22.05,6.67,29.92,8.62.28.08.3.24.24.45l-2.17,7.11c-.06.21-.17.32-.45.24-7.61-2.78-17.6-5.91-29.62-9.58-11.53-3.53-21.85-6.6-29.92-8.62-.21-.06-.3-.24-.24-.45ZM84.55,1032.53l2.15-7.04c.06-.21.24-.3.45-.24,6.64,2.48,14.77,5.04,23.54,7.73,8.91,2.72,16.94,5.1,23.84,6.76.28.08.3.24.24.45l-2.15,7.04c-.06.21-.17.32-.45.24-6.64-2.48-14.63-5-23.54-7.73s-16.87-5.08-23.84-6.76c-.21-.06-.3-.24-.24-.45Z"/>
      <path class="cls-1" d="M23.71,1210.29l2.17-7.11c.06-.21.24-.3.45-.24,7.82,2.84,18.09,6.06,29.62,9.58,12.02,3.67,22.05,6.67,29.92,8.62.28.08.3.24.24.45l-2.17,7.11c-.06.21-.17.32-.45.24-7.61-2.78-17.6-5.91-29.62-9.58-11.53-3.53-21.85-6.6-29.92-8.62-.21-.06-.3-.24-.24-.45ZM39.78,1178.95l2.15-7.04c.06-.21.24-.3.45-.24,6.64,2.48,14.77,5.05,23.54,7.73,8.91,2.72,16.94,5.1,23.84,6.76.28.08.3.24.24.45l-2.15,7.04c-.06.21-.17.32-.45.24-6.64-2.48-14.63-5-23.54-7.73-8.77-2.68-16.87-5.08-23.84-6.76-.21-.06-.3-.24-.24-.45Z"/>
      <path class="cls-1" d="M48.59,1295.38c4.93,1.43,9.39,2.64,13.32,3.62.28.08.3.24.24.45l-1.84,6.01c-.06.21-.17.32-.45.24-7.54-2.76-17.67-5.93-29.48-9.54-11.67-3.57-22.12-6.69-30.12-8.68-.21-.06-.3-.24-.24-.45l1.84-6.01c.06-.21.24-.3.45-.24,4.22,1.52,9.29,3.22,14.93,5.02.28.08.46-.01.59-.2,2.77-4.14,6.47-9.8,9.99-15.37.13-.19.11-.35-.17-.43-4.92-1.43-8.81-2.54-12.28-3.3-.21-.06-.3-.24-.24-.45l1.86-6.08c.06-.21.24-.3.45-.24,3.65,1.42,7.91,2.79,13.62,4.62.28.08.46-.01.61-.27,2.11-3.43,4.1-6.75,5.64-9.3.15-.25.15-.48-.13-.57-7.69-2.27-14.34-4.23-20.04-5.6-.21-.06-.3-.24-.24-.45l1.82-5.94c.06-.21.24-.3.45-.24,6.71,2.51,15.05,5.13,24.99,8.17,10.08,3.08,18.39,5.55,25.43,7.24.28.08.3.24.24.45l-1.82,5.94c-.06.21-.18.32-.45.24-6.09-2.31-13.46-4.64-22.3-7.35-.21-.06-.44-.06-.59.2l-5.91,9.45c-.15.26-.04.37.1.41,8.29,2.53,13.56,4.07,17.56,5.07.21.06.23.22.17.43-.99,2.49-2.15,5.54-3.49,9.2-1.35,3.67-3.12,8.71-4.73,13.51-.06.21.03.39.24.45ZM40.84,1293.09c.28.08.46-.01.54-.29l5.84-16.64c.06-.21-.03-.39-.24-.45l-11.53-3.53c-.21-.06-.37-.04-.52.22-3.63,5.69-7.19,11.4-9.78,15.44-.15.26.01.46.22.52l6.56,2.01,8.91,2.72Z"/>
      <path class="cls-1" d="M82.32,1102.39c13.03,0,23.64,10.6,23.64,23.64s-10.6,23.64-23.64,23.64-23.64-10.6-23.64-23.64,10.6-23.64,23.64-23.64M82.32,1095.52c-16.85,0-30.5,13.66-30.5,30.5s13.66,30.5,30.5,30.5,30.5-13.66,30.5-30.5-13.66-30.5-30.5-30.5h0Z"/>
    </g>
  </g>
</svg>